<svg width="39" height="16" viewBox="0 0 39 16" fill="none" xmlns="http://www.w3.org/2000/svg">
<path d="M4.19239 12.1606C3.33906 12.1606 2.57106 11.99 1.88839 11.6486C1.20572 11.2966 0.709724 10.9073 0.400391 10.4806L1.39239 9.48863C1.62706 9.82996 1.99506 10.1393 2.49639 10.4166C2.99772 10.694 3.56306 10.8326 4.19239 10.8326C4.93906 10.8326 5.53106 10.6406 5.96839 10.2566C6.41639 9.86196 6.64039 9.37663 6.64039 8.80063C6.64039 8.24596 6.41639 7.78196 5.96839 7.40863C5.53106 7.02463 4.93906 6.83263 4.19239 6.83263H3.04039V5.44063H4.19239C4.82172 5.44063 5.31772 5.28063 5.68039 4.96063C6.05372 4.62996 6.24039 4.21396 6.24039 3.71263C6.24039 3.20063 6.05372 2.78463 5.68039 2.46463C5.31772 2.13396 4.82172 1.96863 4.19239 1.96863C3.66972 1.96863 3.17906 2.09129 2.72039 2.33663C2.27239 2.57129 1.93106 2.83796 1.69639 3.13663L0.720391 2.12862C1.02972 1.74462 1.49906 1.40329 2.12839 1.10462C2.75772 0.795292 3.44572 0.640625 4.19239 0.640625C4.89639 0.640625 5.50972 0.773958 6.03239 1.04062C6.56572 1.30729 6.97106 1.66996 7.24839 2.12862C7.53639 2.57662 7.68039 3.06729 7.68039 3.60063C7.68039 4.22996 7.49906 4.76863 7.13639 5.21663C6.77372 5.65396 6.37372 5.94196 5.93639 6.08063C6.48039 6.24063 6.97106 6.56596 7.40839 7.05663C7.85639 7.53663 8.08039 8.13396 8.08039 8.84863C8.08039 9.46729 7.92039 10.0273 7.60039 10.5286C7.28039 11.03 6.82172 11.43 6.22439 11.7286C5.63772 12.0166 4.96039 12.1606 4.19239 12.1606Z" fill="#11112B"/>
<path d="M12.4743 12.1606C11.8343 12.1606 11.2529 12.022 10.7303 11.7446C10.2076 11.4566 9.8076 11.1313 9.53027 10.7686L10.3943 9.92063C10.6289 10.1873 10.9276 10.4273 11.2903 10.6406C11.6636 10.854 12.0583 10.9606 12.4743 10.9606C12.9649 10.9606 13.3489 10.8486 13.6263 10.6246C13.9036 10.4006 14.0423 10.1233 14.0423 9.79263C14.0423 9.50463 13.9089 9.28596 13.6423 9.13663C13.3756 8.97663 12.9596 8.81129 12.3943 8.64062C11.8609 8.48062 11.4236 8.32596 11.0823 8.17663C10.7409 8.01663 10.4476 7.79263 10.2023 7.50463C9.9676 7.20596 9.85027 6.82196 9.85027 6.35262C9.85027 5.96862 9.96227 5.61129 10.1863 5.28063C10.4103 4.93929 10.7249 4.66729 11.1303 4.46463C11.5463 4.26196 12.0209 4.16063 12.5543 4.16063C13.1303 4.16063 13.6369 4.26729 14.0743 4.48063C14.5223 4.69396 14.8849 4.94463 15.1623 5.23263L14.2983 6.08063C14.0956 5.88863 13.8449 5.72329 13.5463 5.58463C13.2476 5.43529 12.9169 5.36063 12.5543 5.36063C12.1169 5.36063 11.7756 5.45663 11.5303 5.64863C11.2849 5.84063 11.1623 6.07529 11.1623 6.35262C11.1623 6.62996 11.2903 6.84329 11.5463 6.99263C11.8129 7.14196 12.2236 7.29662 12.7783 7.45662C13.3116 7.61662 13.7489 7.77663 14.0903 7.93663C14.4423 8.08596 14.7409 8.31529 14.9863 8.62463C15.2316 8.92329 15.3543 9.31263 15.3543 9.79263C15.3543 10.2193 15.2369 10.614 15.0023 10.9766C14.7676 11.3393 14.4316 11.6273 13.9943 11.8406C13.5569 12.054 13.0503 12.1606 12.4743 12.1606Z" fill="#11112B"/>
<path d="M23.0873 15.3606V10.7846H23.0713C22.8579 11.1366 22.5059 11.4566 22.0153 11.7446C21.5246 12.022 20.9646 12.1606 20.3353 12.1606C19.6953 12.1606 19.0979 11.99 18.5433 11.6486C17.9993 11.2966 17.5619 10.8166 17.2313 10.2086C16.9006 9.60063 16.7353 8.91796 16.7353 8.16063C16.7353 7.40329 16.9006 6.72063 17.2313 6.11263C17.5619 5.50463 17.9993 5.02996 18.5433 4.68863C19.0979 4.33663 19.6953 4.16063 20.3353 4.16063C20.9646 4.16063 21.5246 4.30463 22.0153 4.59263C22.5059 4.86996 22.8579 5.18462 23.0713 5.53662H23.0873V4.32063H24.3993V15.3606H23.0873ZM20.5593 10.9126C21.0179 10.9126 21.4393 10.7953 21.8233 10.5606C22.2073 10.3153 22.5113 9.98463 22.7353 9.56863C22.9699 9.15263 23.0873 8.68329 23.0873 8.16063C23.0873 7.63796 22.9699 7.16863 22.7353 6.75263C22.5113 6.33663 22.2073 6.01129 21.8233 5.77662C21.4393 5.53129 21.0179 5.40862 20.5593 5.40862C20.1113 5.40862 19.6953 5.53129 19.3113 5.77662C18.9273 6.01129 18.6179 6.33663 18.3833 6.75263C18.1593 7.16863 18.0473 7.63796 18.0473 8.16063C18.0473 8.68329 18.1593 9.15263 18.3833 9.56863C18.6179 9.98463 18.9273 10.3153 19.3113 10.5606C19.6953 10.7953 20.1113 10.9126 20.5593 10.9126Z" fill="#11112B"/>
<path d="M26.7941 12.0006V4.32063H28.1061V5.45662H28.1221C28.2821 5.12596 28.5595 4.82729 28.9541 4.56063C29.3595 4.29396 29.8288 4.16063 30.3621 4.16063C30.9381 4.16063 31.4448 4.30996 31.8821 4.60863C32.3195 4.89663 32.6288 5.22196 32.8101 5.58463H32.8421C33.0128 5.22196 33.3275 4.89663 33.7861 4.60863C34.2555 4.30996 34.8155 4.16063 35.4661 4.16063C35.9781 4.16063 36.4475 4.29929 36.8741 4.57663C37.3115 4.84329 37.6528 5.22729 37.8981 5.72863C38.1541 6.21929 38.2821 6.78996 38.2821 7.44063V12.0006H36.9861V7.44063C36.9861 6.82196 36.8155 6.33129 36.4741 5.96863C36.1328 5.59529 35.7061 5.40862 35.1941 5.40862C34.6181 5.40862 34.1381 5.62196 33.7541 6.04863C33.3808 6.46463 33.1941 7.02463 33.1941 7.72863V12.0006H31.8821V7.44063C31.8821 6.82196 31.7115 6.33129 31.3701 5.96863C31.0288 5.59529 30.6075 5.40862 30.1061 5.40862C29.5301 5.40862 29.0501 5.62196 28.6661 6.04863C28.2928 6.46463 28.1061 7.02463 28.1061 7.72863V12.0006H26.7941Z" fill="#11112B"/>
</svg>
