<svg width="439" height="440" viewBox="0 0 439 440" fill="none" xmlns="http://www.w3.org/2000/svg">
<path d="M292.565 45.6734L278 49.5056L385 439.067L399 439.067L292.565 45.6734Z" fill="#11112B"/>
<path d="M195.086 268.211H180.007L180 439.067H195.079L195.086 268.211Z" fill="#11112B"/>
<path d="M285.086 268.211H270.007L270 439.067H285.079L285.086 268.211Z" fill="#11112B"/>
<path d="M262.702 283.02L262.702 268.214L203 268.211L203 283.017L262.702 283.02Z" fill="#11112B"/>
<path d="M195.702 167.968L203.241 155.146L151.539 125.831L144 138.654L195.702 167.968Z" fill="#11112B"/>
<path d="M180.702 194.48L188.241 181.657L136.539 152.343L129 165.166L180.702 194.48Z" fill="#11112B"/>
<path d="M279.778 41.5567L266.648 34.2751L34 439.067L50 439.067L279.778 41.5567Z" fill="#11112B"/>
</svg>
