<svg width="439" height="439" viewBox="0 0 439 439" fill="none" xmlns="http://www.w3.org/2000/svg">
<path d="M182.086 317H167.007L167.002 439H182.081L182.086 317Z" fill="#11112B"/>
<path d="M272.086 317H257.007L257.002 439H272.081L272.086 317Z" fill="#11112B"/>
<path d="M249.702 332.082L249.702 317.003L190 317L190 332.079L249.702 332.082Z" fill="#11112B"/>
<path d="M227.085 169.064L219.546 156.005L110 219.244L117.54 232.303L227.085 169.064Z" fill="#11112B"/>
<path d="M50.0858 352H35.0068L35.0024 439H50.0814L50.0858 352Z" fill="#11112B"/>
<path d="M404.086 352H389.007L389.002 439H404.081L404.086 352Z" fill="#11112B"/>
<path d="M115.309 235.539L102.25 228L39 337.539L52.0587 345.079L115.309 235.539Z" fill="#11112B"/>
<path d="M387.239 345.085L400.298 337.546L337.059 228L324 235.54L387.239 345.085Z" fill="#11112B"/>
<path d="M321.54 232.309L329.079 219.25L219.54 156L212 169.059L321.54 232.309Z" fill="#11112B"/>
</svg>
