<svg width="439" height="445" viewBox="0 0 439 445" fill="none" xmlns="http://www.w3.org/2000/svg">
<mask id="mask0_120_64" style="mask-type:alpha" maskUnits="userSpaceOnUse" x="0" y="0" width="439" height="439">
<rect width="439" height="439" rx="26" fill="#E6E9D1"/>
</mask>
<g mask="url(#mask0_120_64)">
<path d="M105.092 182H90.0127L90.004 352H105.083L105.092 182Z" fill="#11112B"/>
<path d="M105.092 380.243H90.0127L90.0094 444H105.088L105.092 380.243Z" fill="#11112B"/>
<path d="M195.092 182H180.013L180.004 352H195.083L195.092 182Z" fill="#11112B"/>
<path d="M335.489 175.092L335.489 160.013L90.0004 160L90.0004 175.079L335.489 175.092Z" fill="#11112B"/>
<path d="M256 374.088L256 359.009L90.0004 359L90.0004 374.079L256 374.088Z" fill="#11112B"/>
<path d="M281.092 182H266.013L266 439H281.079L281.092 182Z" fill="#11112B"/>
<path d="M354.565 178L340 181.903L409.348 440.768L423.914 436.865L354.565 178Z" fill="#11112B"/>
</g>
</svg>
