<svg width="894" height="277" viewBox="0 0 894 277" fill="none" xmlns="http://www.w3.org/2000/svg">
<path d="M135.13 276.218C116.087 276.791 97.151 273.202 79.6404 265.701C62.1299 258.199 46.4675 246.966 33.7497 232.787C11.5048 206.522 -0.478701 173.097 0.0146479 138.687C-0.478701 104.276 11.5048 70.8491 33.7497 44.5839C46.4675 30.4051 62.1299 19.174 79.6404 11.6725C97.151 4.17093 116.087 0.580419 135.13 1.15317V14.2177C51.4116 14.2177 13.0865 79.0126 13.0865 138.687C13.0865 198.361 51.235 262.272 135.13 262.272V276.218Z" fill="#F3F3F3"/>
<path d="M537.064 274.25L550.711 270.47L475.935 0.000364116L462.287 3.78004L537.064 274.25Z" fill="#F3F3F3"/>
<path d="M640.868 3.39681L627.095 0.103271L562.244 271.944L576.018 275.238L640.868 3.39681Z" fill="#F3F3F3"/>
<path d="M324.261 2.08197L310.615 5.86096L385.379 276.282L399.024 272.503L324.261 2.08197Z" fill="#F3F3F3"/>
<path d="M220.475 272.885L234.247 276.178L299.085 4.3869L285.314 1.09396L220.475 272.885Z" fill="#F3F3F3"/>
<path d="M342.175 179.687L341.923 165.519L270.055 166.793L270.307 180.961L342.175 179.687Z" fill="#F3F3F3"/>
<path d="M739.778 0.69493L725.979 0.764893L727.094 274.009L740.894 273.939L739.778 0.69493Z" fill="#F3F3F3"/>
<path d="M893.087 13.8019L893.03 0L756.153 0.693972L756.209 14.4959L893.087 13.8019Z" fill="#F3F3F3"/>
<path d="M893.533 128.088L893.477 114.286L756.602 114.98L756.658 128.782L893.533 128.088Z" fill="#F3F3F3"/>
<path d="M894 273.295L893.943 259.493L757.068 260.187L757.125 273.989L894 273.295Z" fill="#F3F3F3"/>
</svg>
