<svg width="569" height="557" viewBox="0 0 569 557" fill="none" xmlns="http://www.w3.org/2000/svg">
<rect width="569" height="557" rx="26" fill="#AED9F4"/>
<path d="M107.861 273.58C100.804 273.58 94.3259 271.842 88.4274 268.366C82.529 264.785 77.8418 259.992 74.366 253.989C70.8901 247.985 69.1522 241.349 69.1522 234.082C69.1522 226.814 70.8901 220.178 74.366 214.174C77.8418 208.171 82.529 203.431 88.4274 199.955C94.3259 196.374 100.804 194.583 107.861 194.583C114.918 194.583 121.132 196.163 126.504 199.323C131.981 202.377 136.247 205.906 139.301 209.908L129.98 217.808C127.452 214.754 124.345 212.173 120.658 210.066C116.972 207.96 112.706 206.907 107.861 206.907C103.121 206.907 98.8023 208.118 94.9052 210.54C91.008 212.858 87.9008 216.123 85.5835 220.336C83.2663 224.444 82.1077 229.026 82.1077 234.082C82.1077 239.137 83.2663 243.772 85.5835 247.985C87.9008 252.093 91.008 255.358 94.9052 257.781C98.8023 260.098 103.121 261.256 107.861 261.256C112.706 261.256 117.024 260.203 120.816 258.097C124.713 255.885 127.926 253.199 130.454 250.039L139.933 257.939C136.668 262.152 132.244 265.838 126.662 268.998C121.185 272.053 114.918 273.58 107.861 273.58ZM189.025 273.58C181.863 273.58 175.28 271.842 169.276 268.366C163.377 264.785 158.69 259.992 155.214 253.989C151.738 247.985 150.001 241.349 150.001 234.082C150.001 226.814 151.738 220.178 155.214 214.174C158.69 208.171 163.377 203.431 169.276 199.955C175.28 196.374 181.863 194.583 189.025 194.583C196.187 194.583 202.718 196.374 208.616 199.955C214.62 203.431 219.36 208.171 222.836 214.174C226.312 220.178 228.049 226.814 228.049 234.082C228.049 241.349 226.312 247.985 222.836 253.989C219.36 259.992 214.62 264.785 208.616 268.366C202.718 271.842 196.187 273.58 189.025 273.58ZM189.025 261.256C193.765 261.256 198.136 260.098 202.138 257.781C206.141 255.358 209.301 252.093 211.618 247.985C213.935 243.772 215.094 239.137 215.094 234.082C215.094 229.026 213.935 224.444 211.618 220.336C209.301 216.123 206.141 212.858 202.138 210.54C198.136 208.118 193.765 206.907 189.025 206.907C184.285 206.907 179.914 208.118 175.912 210.54C171.909 212.858 168.749 216.123 166.432 220.336C164.115 224.444 162.956 229.026 162.956 234.082C162.956 239.137 164.115 243.772 166.432 247.985C168.749 252.093 171.909 255.358 175.912 257.781C179.914 260.098 184.285 261.256 189.025 261.256ZM246.705 272L246.705 196.163H259.661V207.381H259.819C261.398 204.115 264.137 201.166 268.034 198.533C272.037 195.9 276.671 194.583 281.938 194.583C287.625 194.583 292.629 196.058 296.947 199.007C301.266 201.851 304.32 205.063 306.111 208.645H306.427C308.112 205.063 311.219 201.851 315.748 199.007C320.383 196.058 325.913 194.583 332.338 194.583C337.393 194.583 342.028 195.952 346.241 198.691C350.56 201.324 353.93 205.116 356.353 210.066C358.881 214.912 360.145 220.547 360.145 226.972V272H347.347V226.972C347.347 220.863 345.662 216.018 342.291 212.436C338.921 208.75 334.708 206.907 329.652 206.907C323.964 206.907 319.224 209.013 315.432 213.226C311.746 217.334 309.903 222.864 309.903 229.816V272H296.947V226.972C296.947 220.863 295.262 216.018 291.891 212.436C288.521 208.75 284.36 206.907 279.41 206.907C273.722 206.907 268.982 209.013 265.19 213.226C261.504 217.334 259.661 222.864 259.661 229.816V272H246.705ZM383.098 272V196.163H396.054V207.381H396.212C397.791 204.115 400.53 201.166 404.427 198.533C408.43 195.9 413.064 194.583 418.331 194.583C424.018 194.583 429.022 196.058 433.34 199.007C437.659 201.851 440.713 205.063 442.504 208.645H442.82C444.505 205.063 447.612 201.851 452.141 199.007C456.776 196.058 462.306 194.583 468.731 194.583C473.786 194.583 478.421 195.952 482.634 198.691C486.953 201.324 490.323 205.116 492.746 210.066C495.274 214.912 496.538 220.547 496.538 226.972V272H483.74V226.972C483.74 220.863 482.055 216.018 478.684 212.436C475.314 208.75 471.101 206.907 466.045 206.907C460.357 206.907 455.617 209.013 451.825 213.226C448.139 217.334 446.296 222.864 446.296 229.816V272H433.34V226.972C433.34 220.863 431.655 216.018 428.284 212.436C424.914 208.75 420.753 206.907 415.803 206.907C410.115 206.907 405.375 209.013 401.583 213.226C397.897 217.334 396.054 222.864 396.054 229.816V272H383.098ZM148.574 398.58C142.781 398.58 137.567 397.211 132.933 394.472C128.404 391.734 124.823 387.889 122.189 382.939C119.556 377.988 118.239 372.248 118.239 365.717V321.163H131.195V365.717C131.195 371.826 132.986 376.777 136.567 380.569C140.253 384.361 144.94 386.256 150.628 386.256C154.841 386.256 158.633 385.256 162.004 383.255C165.48 381.253 168.165 378.462 170.061 374.881C172.063 371.3 173.063 367.245 173.063 362.715V321.163H185.861L185.861 397H173.063V385.466H172.905C170.904 388.837 167.692 391.892 163.268 394.63C158.844 397.263 153.946 398.58 148.574 398.58ZM209.598 397V321.163H222.554V332.697H222.712C224.818 329.326 228.031 326.324 232.349 323.691C236.668 320.952 241.565 319.583 247.043 319.583C252.836 319.583 257.997 320.952 262.526 323.691C267.16 326.429 270.742 330.274 273.27 335.224C275.903 340.175 277.219 345.915 277.219 352.446V397H264.422V352.446C264.422 346.337 262.579 341.386 258.892 337.594C255.206 333.803 250.518 331.907 244.831 331.907C238.511 331.907 233.192 334.118 228.873 338.542C224.66 342.966 222.554 348.601 222.554 355.448V397H209.598ZM313.912 397H300.957V321.163H313.912V397ZM307.434 305.68C305.223 305.68 303.274 304.89 301.589 303.31C300.009 301.73 299.219 299.781 299.219 297.464C299.219 295.147 300.009 293.198 301.589 291.618C303.274 290.038 305.223 289.248 307.434 289.248C309.541 289.248 311.384 290.038 312.964 291.618C314.65 293.198 315.492 295.147 315.492 297.464C315.492 299.781 314.65 301.73 312.964 303.31C311.384 304.89 309.541 305.68 307.434 305.68ZM367.344 397.79C360.287 397.79 354.81 395.789 350.912 391.786C347.121 387.678 345.225 381.78 345.225 374.091L345.225 333.487H330.847V321.163H340.011C344.435 321.163 346.647 318.53 346.647 313.263V295.884H358.18V321.163H376.665V333.487H358.18L358.18 372.985C358.18 377.093 359.181 380.2 361.182 382.307C363.183 384.413 365.974 385.466 369.556 385.466C372.505 385.466 375.559 384.676 378.719 383.097V395.42C377.455 396.052 375.77 396.579 373.663 397C371.662 397.527 369.556 397.79 367.344 397.79ZM446.565 321.163H459.995L428.08 407.586C425.341 415.169 421.866 420.804 417.652 424.491C413.439 428.283 408.331 430.179 402.327 430.179C400.326 430.179 398.377 429.968 396.481 429.547C394.585 429.125 393.111 428.651 392.057 428.125V415.643C393.005 416.275 394.217 416.802 395.691 417.223C397.271 417.75 398.956 418.013 400.747 418.013C403.907 418.013 406.645 417.065 408.963 415.169C411.385 413.273 413.281 410.535 414.651 406.954L418.6 396.842L385.106 321.163H399.167L425.394 381.517H425.71L446.565 321.163Z" fill="#11112B"/>
</svg>
