<svg width="707" height="573" viewBox="0 0 707 573" fill="none" xmlns="http://www.w3.org/2000/svg">
<path d="M419 562L705 0H0V562H205H419Z" fill="#F3F3F3"/>
<path d="M6 6H656H697L416 567H6V6Z" stroke="#E84A0F" stroke-width="12"/>
<path d="M190.823 290.7C188.023 290.7 185.409 289.953 182.983 288.46C180.603 286.92 178.689 284.82 177.243 282.16C175.796 279.5 175.073 276.513 175.073 273.2C175.073 269.887 175.796 266.9 177.243 264.24C178.689 261.58 180.603 259.503 182.983 258.01C185.409 256.47 188.023 255.7 190.823 255.7C193.576 255.7 196.026 256.33 198.173 257.59C200.319 258.803 201.859 260.18 202.793 261.72H202.863V241H208.603V290H202.863V284.68H202.793C201.859 286.22 200.319 287.62 198.173 288.88C196.026 290.093 193.576 290.7 190.823 290.7ZM191.803 285.24C193.809 285.24 195.653 284.727 197.333 283.7C199.013 282.627 200.343 281.18 201.323 279.36C202.349 277.54 202.863 275.487 202.863 273.2C202.863 270.913 202.349 268.86 201.323 267.04C200.343 265.22 199.013 263.797 197.333 262.77C195.653 261.697 193.809 261.16 191.803 261.16C189.843 261.16 188.023 261.697 186.343 262.77C184.663 263.797 183.309 265.22 182.283 267.04C181.303 268.86 180.812 270.913 180.812 273.2C180.812 275.487 181.303 277.54 182.283 279.36C183.309 281.18 184.663 282.627 186.343 283.7C188.023 284.727 189.843 285.24 191.803 285.24ZM225.512 290H219.772V256.4H225.512V290ZM222.642 249.54C221.662 249.54 220.799 249.19 220.052 248.49C219.352 247.79 219.002 246.927 219.002 245.9C219.002 244.873 219.352 244.01 220.052 243.31C220.799 242.61 221.662 242.26 222.642 242.26C223.575 242.26 224.392 242.61 225.092 243.31C225.839 244.01 226.212 244.873 226.212 245.9C226.212 246.927 225.839 247.79 225.092 248.49C224.392 249.19 223.575 249.54 222.642 249.54ZM236.375 290V256.4H242.115V261.51H242.185C243.118 260.017 244.542 258.687 246.455 257.52C248.368 256.307 250.538 255.7 252.965 255.7C255.532 255.7 257.818 256.307 259.825 257.52C261.878 258.733 263.465 260.437 264.585 262.63C265.752 264.823 266.335 267.367 266.335 270.26V290H260.665V270.26C260.665 267.553 259.848 265.36 258.215 263.68C256.582 262 254.505 261.16 251.985 261.16C249.185 261.16 246.828 262.14 244.915 264.1C243.048 266.06 242.115 268.557 242.115 271.59V290H236.375ZM282.592 290H276.852V256.4H282.592V290ZM279.722 249.54C278.742 249.54 277.879 249.19 277.132 248.49C276.432 247.79 276.082 246.927 276.082 245.9C276.082 244.873 276.432 244.01 277.132 243.31C277.879 242.61 278.742 242.26 279.722 242.26C280.655 242.26 281.472 242.61 282.172 243.31C282.919 244.01 283.292 244.873 283.292 245.9C283.292 246.927 282.919 247.79 282.172 248.49C281.472 249.19 280.655 249.54 279.722 249.54ZM293.455 290V256.4H299.195V261.51H299.265C300.198 260.017 301.622 258.687 303.535 257.52C305.448 256.307 307.618 255.7 310.045 255.7C312.612 255.7 314.898 256.307 316.905 257.52C318.958 258.733 320.545 260.437 321.665 262.63C322.832 264.823 323.415 267.367 323.415 270.26V290H317.745V270.26C317.745 267.553 316.928 265.36 315.295 263.68C313.662 262 311.585 261.16 309.065 261.16C306.265 261.16 303.908 262.14 301.995 264.1C300.128 266.06 299.195 268.557 299.195 271.59V290H293.455ZM347.092 304.7C344.012 304.7 341.119 303.953 338.412 302.46C335.752 301.013 333.839 299.427 332.672 297.7L336.732 293.99C337.619 295.297 339.019 296.487 340.932 297.56C342.892 298.68 344.945 299.24 347.092 299.24C350.359 299.24 352.972 298.143 354.932 295.95C356.939 293.757 357.942 290.91 357.942 287.41V283.49H357.872C356.799 285.123 355.235 286.5 353.182 287.62C351.129 288.74 348.912 289.3 346.532 289.3C343.825 289.3 341.305 288.577 338.972 287.13C336.639 285.683 334.772 283.677 333.372 281.11C332.019 278.543 331.342 275.673 331.342 272.5C331.342 269.327 332.019 266.457 333.372 263.89C334.772 261.323 336.639 259.317 338.972 257.87C341.305 256.423 343.825 255.7 346.532 255.7C349.099 255.7 351.385 256.307 353.392 257.52C355.445 258.733 356.939 260.063 357.872 261.51H357.942V256.4H363.682V287.41C363.682 290.677 362.959 293.617 361.512 296.23C360.112 298.89 358.152 300.967 355.632 302.46C353.112 303.953 350.265 304.7 347.092 304.7ZM347.442 283.84C349.402 283.84 351.175 283.35 352.762 282.37C354.349 281.39 355.609 280.06 356.542 278.38C357.475 276.653 357.942 274.693 357.942 272.5C357.942 270.307 357.475 268.37 356.542 266.69C355.609 264.963 354.349 263.61 352.762 262.63C351.175 261.65 349.402 261.16 347.442 261.16C345.575 261.16 343.849 261.65 342.262 262.63C340.675 263.61 339.415 264.963 338.482 266.69C337.549 268.417 337.082 270.353 337.082 272.5C337.082 274.647 337.549 276.583 338.482 278.31C339.415 280.037 340.675 281.39 342.262 282.37C343.849 283.35 345.575 283.84 347.442 283.84ZM220.739 313.7C223.399 313.7 225.756 314.26 227.809 315.38C229.863 316.5 231.449 318.063 232.569 320.07C233.736 322.03 234.319 324.27 234.319 326.79V348H228.789V342.89H228.719C227.833 344.383 226.363 345.737 224.309 346.95C222.256 348.117 219.946 348.7 217.379 348.7C215.186 348.7 213.226 348.257 211.499 347.37C209.773 346.483 208.419 345.317 207.439 343.87C206.506 342.377 206.039 340.767 206.039 339.04C206.039 336.24 206.973 333.93 208.839 332.11C210.706 330.243 213.319 329.03 216.679 328.47L228.579 326.51V326.37C228.579 324.223 227.833 322.45 226.339 321.05C224.893 319.65 223.026 318.95 220.739 318.95C218.873 318.95 217.193 319.37 215.699 320.21C214.253 321.05 212.899 322.17 211.639 323.57L207.929 320C209.423 318.227 211.243 316.733 213.389 315.52C215.536 314.307 217.986 313.7 220.739 313.7ZM218.219 343.66C220.133 343.66 221.883 343.193 223.469 342.26C225.056 341.327 226.293 340.067 227.179 338.48C228.113 336.847 228.579 335.05 228.579 333.09V331.2L218.079 333.02C215.979 333.393 214.393 334.07 213.319 335.05C212.293 336.03 211.779 337.197 211.779 338.55C211.779 339.95 212.363 341.163 213.529 342.19C214.743 343.17 216.306 343.66 218.219 343.66ZM244.441 348V314.4H250.181V319.3H250.251C251.185 317.853 252.585 316.57 254.451 315.45C256.365 314.283 258.511 313.7 260.891 313.7H262.501V319.65C261.381 319.51 260.611 319.44 260.191 319.44C258.371 319.44 256.691 319.907 255.151 320.84C253.658 321.773 252.445 323.08 251.511 324.76C250.625 326.393 250.181 328.237 250.181 330.29V348H244.441ZM283.346 348.7C280.219 348.7 277.349 347.93 274.736 346.39C272.122 344.803 270.046 342.68 268.506 340.02C266.966 337.36 266.196 334.42 266.196 331.2C266.196 327.933 266.942 324.97 268.436 322.31C269.976 319.65 272.029 317.55 274.596 316.01C277.162 314.47 279.962 313.7 282.996 313.7C285.982 313.7 288.712 314.423 291.186 315.87C293.659 317.317 295.596 319.323 296.996 321.89C298.396 324.41 299.096 327.28 299.096 330.5C299.096 331.247 299.026 332.18 298.886 333.3H272.146C272.519 336.1 273.779 338.457 275.926 340.37C278.072 342.283 280.639 343.24 283.626 343.24C287.312 343.24 290.602 341.7 293.496 338.62L297.346 342.19C295.992 343.963 294.102 345.503 291.676 346.81C289.296 348.07 286.519 348.7 283.346 348.7ZM293.216 328.54C292.749 325.6 291.606 323.267 289.786 321.54C288.012 319.813 285.749 318.95 282.996 318.95C280.149 318.95 277.746 319.86 275.786 321.68C273.826 323.453 272.589 325.74 272.076 328.54H293.216ZM319.519 313.7C322.179 313.7 324.535 314.26 326.589 315.38C328.642 316.5 330.229 318.063 331.349 320.07C332.515 322.03 333.099 324.27 333.099 326.79V348H327.569V342.89H327.499C326.612 344.383 325.142 345.737 323.089 346.95C321.035 348.117 318.725 348.7 316.159 348.7C313.965 348.7 312.005 348.257 310.279 347.37C308.552 346.483 307.199 345.317 306.219 343.87C305.285 342.377 304.819 340.767 304.819 339.04C304.819 336.24 305.752 333.93 307.619 332.11C309.485 330.243 312.099 329.03 315.459 328.47L327.359 326.51V326.37C327.359 324.223 326.612 322.45 325.119 321.05C323.672 319.65 321.805 318.95 319.519 318.95C317.652 318.95 315.972 319.37 314.479 320.21C313.032 321.05 311.679 322.17 310.419 323.57L306.709 320C308.202 318.227 310.022 316.733 312.169 315.52C314.315 314.307 316.765 313.7 319.519 313.7ZM316.999 343.66C318.912 343.66 320.662 343.193 322.249 342.26C323.835 341.327 325.072 340.067 325.959 338.48C326.892 336.847 327.359 335.05 327.359 333.09V331.2L316.859 333.02C314.759 333.393 313.172 334.07 312.099 335.05C311.072 336.03 310.559 337.197 310.559 338.55C310.559 339.95 311.142 341.163 312.309 342.19C313.522 343.17 315.085 343.66 316.999 343.66Z" fill="#11112B"/>
<path d="M329.688 234.752C330.392 234.752 331.032 234.917 331.608 235.248C332.184 235.579 332.637 236.027 332.968 236.592C333.309 237.157 333.48 237.776 333.48 238.448C333.48 239.131 333.309 239.755 332.968 240.32C332.637 240.885 332.173 241.333 331.576 241.664C330.989 241.995 330.328 242.16 329.592 242.16C328.856 242.16 328.189 241.995 327.592 241.664C327.005 241.333 326.541 240.885 326.2 240.32C325.859 239.755 325.688 239.131 325.688 238.448C325.688 238.021 325.768 237.584 325.928 237.136C326.099 236.688 326.285 236.309 326.488 236L329.8 230.8H331.368L328.712 234.912C329.011 234.805 329.336 234.752 329.688 234.752ZM329.592 240.832C330.051 240.832 330.467 240.731 330.84 240.528C331.213 240.315 331.507 240.027 331.72 239.664C331.933 239.301 332.04 238.896 332.04 238.448C332.04 238.011 331.933 237.611 331.72 237.248C331.507 236.885 331.213 236.603 330.84 236.4C330.467 236.187 330.051 236.08 329.592 236.08C329.123 236.08 328.701 236.187 328.328 236.4C327.955 236.603 327.661 236.885 327.448 237.248C327.235 237.611 327.128 238.011 327.128 238.448C327.128 238.896 327.235 239.301 327.448 239.664C327.661 240.027 327.955 240.315 328.328 240.528C328.701 240.731 329.123 240.832 329.592 240.832ZM337.724 242.16C337.084 242.16 336.503 242.021 335.98 241.744C335.457 241.456 335.057 241.131 334.78 240.768L335.644 239.92C335.879 240.187 336.177 240.427 336.54 240.64C336.913 240.853 337.308 240.96 337.724 240.96C338.215 240.96 338.599 240.848 338.876 240.624C339.153 240.4 339.292 240.123 339.292 239.792C339.292 239.504 339.159 239.285 338.892 239.136C338.625 238.976 338.209 238.811 337.644 238.64C337.111 238.48 336.673 238.325 336.332 238.176C335.991 238.016 335.697 237.792 335.452 237.504C335.217 237.205 335.1 236.821 335.1 236.352C335.1 235.968 335.212 235.611 335.436 235.28C335.66 234.939 335.975 234.667 336.38 234.464C336.796 234.261 337.271 234.16 337.804 234.16C338.38 234.16 338.887 234.267 339.324 234.48C339.772 234.693 340.135 234.944 340.412 235.232L339.548 236.08C339.345 235.888 339.095 235.723 338.796 235.584C338.497 235.435 338.167 235.36 337.804 235.36C337.367 235.36 337.025 235.456 336.78 235.648C336.535 235.84 336.412 236.075 336.412 236.352C336.412 236.629 336.54 236.843 336.796 236.992C337.063 237.141 337.473 237.296 338.028 237.456C338.561 237.616 338.999 237.776 339.34 237.936C339.692 238.085 339.991 238.315 340.236 238.624C340.481 238.923 340.604 239.312 340.604 239.792C340.604 240.219 340.487 240.613 340.252 240.976C340.017 241.339 339.681 241.627 339.244 241.84C338.807 242.053 338.3 242.16 337.724 242.16ZM348.337 245.36V240.784H348.321C348.108 241.136 347.756 241.456 347.265 241.744C346.774 242.021 346.214 242.16 345.585 242.16C344.945 242.16 344.348 241.989 343.793 241.648C343.249 241.296 342.812 240.816 342.481 240.208C342.15 239.6 341.985 238.917 341.985 238.16C341.985 237.403 342.15 236.72 342.481 236.112C342.812 235.504 343.249 235.029 343.793 234.688C344.348 234.336 344.945 234.16 345.585 234.16C346.214 234.16 346.774 234.304 347.265 234.592C347.756 234.869 348.108 235.184 348.321 235.536H348.337V234.32H349.649V245.36H348.337ZM345.809 240.912C346.268 240.912 346.689 240.795 347.073 240.56C347.457 240.315 347.761 239.984 347.985 239.568C348.22 239.152 348.337 238.683 348.337 238.16C348.337 237.637 348.22 237.168 347.985 236.752C347.761 236.336 347.457 236.011 347.073 235.776C346.689 235.531 346.268 235.408 345.809 235.408C345.361 235.408 344.945 235.531 344.561 235.776C344.177 236.011 343.868 236.336 343.633 236.752C343.409 237.168 343.297 237.637 343.297 238.16C343.297 238.683 343.409 239.152 343.633 239.568C343.868 239.984 344.177 240.315 344.561 240.56C344.945 240.795 345.361 240.912 345.809 240.912ZM352.044 242V234.32H353.356V235.456H353.372C353.532 235.125 353.809 234.827 354.204 234.56C354.609 234.293 355.078 234.16 355.612 234.16C356.188 234.16 356.694 234.309 357.132 234.608C357.569 234.896 357.878 235.221 358.06 235.584H358.092C358.262 235.221 358.577 234.896 359.036 234.608C359.505 234.309 360.065 234.16 360.716 234.16C361.228 234.16 361.697 234.299 362.124 234.576C362.561 234.843 362.902 235.227 363.148 235.728C363.404 236.219 363.532 236.789 363.532 237.44V242H362.236V237.44C362.236 236.821 362.065 236.331 361.724 235.968C361.382 235.595 360.956 235.408 360.444 235.408C359.868 235.408 359.388 235.621 359.004 236.048C358.63 236.464 358.444 237.024 358.444 237.728V242H357.132V237.44C357.132 236.821 356.961 236.331 356.62 235.968C356.278 235.595 355.857 235.408 355.356 235.408C354.78 235.408 354.3 235.621 353.916 236.048C353.542 236.464 353.356 237.024 353.356 237.728V242H352.044Z" fill="#11112B"/>
</svg>
