<svg width="2845" height="557" viewBox="0 0 2845 557" fill="none" xmlns="http://www.w3.org/2000/svg">
<path d="M81.7651 331.144L145.682 490.265" stroke="#11112B" stroke-width="12"/>
<path d="M25 484.901L202 463.894" stroke="#11112B" stroke-width="12"/>
<path d="M96.0682 492.5L117.076 311.477" stroke="#11112B" stroke-width="12"/>
<path d="M650.729 331.654L714.604 490.673" stroke="#11112B" stroke-width="12"/>
<path d="M594 485.313L770.886 464.319" stroke="#11112B" stroke-width="12"/>
<path d="M665.022 492.906L686.016 312" stroke="#11112B" stroke-width="12"/>
<path d="M870.943 485.313L1046.04 416.97" stroke="#11112B" stroke-width="12"/>
<path d="M1019.24 488.439L945.985 331.654" stroke="#11112B" stroke-width="12"/>
<path d="M918.738 438.858L1114.83 481.293" stroke="#11112B" stroke-width="12"/>
<path d="M1219.73 331.654L1283.6 490.673" stroke="#11112B" stroke-width="12"/>
<path d="M1163 485.313L1339.89 464.319" stroke="#11112B" stroke-width="12"/>
<path d="M1234.02 492.906L1255.02 312" stroke="#11112B" stroke-width="12"/>
<path d="M1439.94 485.313L1615.04 416.97" stroke="#11112B" stroke-width="12"/>
<path d="M1588.24 488.439L1514.99 331.654" stroke="#11112B" stroke-width="12"/>
<path d="M1487.74 438.858L1683.83 481.293" stroke="#11112B" stroke-width="12"/>
<path d="M1309.96 400.443L1383.21 489.779" stroke="#11112B" stroke-width="12"/>
<path d="M1474.34 400.443L1395.72 489.779" stroke="#11112B" stroke-width="12"/>
<path d="M1788.73 332.009L1852.6 491.028" stroke="#11112B" stroke-width="12"/>
<path d="M1732 485.668L1908.89 464.674" stroke="#11112B" stroke-width="12"/>
<path d="M1803.02 493.262L1824.02 312.355" stroke="#11112B" stroke-width="12"/>
<path d="M2008.94 485.668L2184.04 417.325" stroke="#11112B" stroke-width="12"/>
<path d="M2157.24 488.794L2083.99 332.009" stroke="#11112B" stroke-width="12"/>
<path d="M2056.74 439.213L2252.83 481.648" stroke="#11112B" stroke-width="12"/>
<path d="M1869.13 64.8931L1876.28 393.204" stroke="#11112B" stroke-width="12"/>
<path d="M2053.16 64.8931L2046.02 393.204" stroke="#11112B" stroke-width="12"/>
<path d="M1878.96 400.798L1952.21 490.134" stroke="#11112B" stroke-width="12"/>
<path d="M2043.34 400.798L1964.72 490.134" stroke="#11112B" stroke-width="12"/>
<path d="M1883.43 64L1922.73 340.943" stroke="#11112B" stroke-width="12"/>
<path d="M2038.87 64L1999.56 340.943" stroke="#11112B" stroke-width="12"/>
<path d="M2357.73 332.009L2421.6 491.028" stroke="#11112B" stroke-width="12"/>
<path d="M2301 485.668L2477.89 464.674" stroke="#11112B" stroke-width="12"/>
<path d="M2372.02 493.262L2393.02 312.355" stroke="#11112B" stroke-width="12"/>
<path d="M2577.94 485.668L2753.04 417.325" stroke="#11112B" stroke-width="12"/>
<path d="M2726.24 488.794L2652.99 332.009" stroke="#11112B" stroke-width="12"/>
<path d="M2625.74 439.213L2821.83 481.648" stroke="#11112B" stroke-width="12"/>
<path d="M2438.13 64.8931L2445.28 393.204" stroke="#11112B" stroke-width="12"/>
<path d="M2622.16 64.8931L2615.02 393.204" stroke="#11112B" stroke-width="12"/>
<path d="M2447.96 400.798L2521.21 490.134" stroke="#11112B" stroke-width="12"/>
<path d="M2612.34 400.798L2533.72 490.134" stroke="#11112B" stroke-width="12"/>
<path d="M2452.43 64L2491.73 340.943" stroke="#11112B" stroke-width="12"/>
<path d="M2607.87 64L2568.56 340.943" stroke="#11112B" stroke-width="12"/>
<path d="M2505.58 340.943L2523 171.65" stroke="#11112B" stroke-width="12"/>
<path d="M2554.72 340.943L2537.29 171.65" stroke="#11112B" stroke-width="12"/>
</svg>
