<svg width="2845" height="557" viewBox="0 0 2845 557" fill="none" xmlns="http://www.w3.org/2000/svg">
<rect x="1334.21" y="217" width="29" height="29" fill="#11112B"/>
<rect x="1481.21" y="217" width="29" height="29" fill="#11112B"/>
<rect x="1334.21" y="217" width="29" height="29" fill="#11112B"/>
<rect x="1481.21" y="217" width="29" height="29" fill="#11112B"/>
<path d="M1430.21 157.5L1514.71 33" stroke="#11112B" stroke-width="12"/>
<path d="M1430.39 522.923L1628.55 158.001" stroke="#11112B" stroke-width="12"/>
<path d="M1415.2 523.221L1216.88 158" stroke="#11112B" stroke-width="12"/>
<path d="M1414.71 157.5L1330.21 33" stroke="#11112B" stroke-width="12"/>
<path d="M1218.08 146.844L1316.47 32.9999" stroke="#11112B" stroke-width="12"/>
<path d="M1627.47 146.844L1529.08 32.9999" stroke="#11112B" stroke-width="12"/>
<rect x="765.211" y="217" width="29" height="29" fill="#11112B"/>
<rect x="765.211" y="217" width="29" height="29" fill="#11112B"/>
<path d="M861.211 157.5L945.711 33" stroke="#11112B" stroke-width="12"/>
<path d="M861.393 522.923L1059.55 158.001" stroke="#11112B" stroke-width="12"/>
<path d="M846.198 523.221L647.881 158" stroke="#11112B" stroke-width="12"/>
<path d="M845.711 157.5L761.211 33" stroke="#11112B" stroke-width="12"/>
<path d="M649.082 146.844L747.469 32.9999" stroke="#11112B" stroke-width="12"/>
<path d="M1058.47 146.844L960.082 32.9999" stroke="#11112B" stroke-width="12"/>
<path d="M292.211 157.5L376.711 33" stroke="#11112B" stroke-width="12"/>
<path d="M292.393 522.923L490.548 158.001" stroke="#11112B" stroke-width="12"/>
<path d="M277.198 523.221L78.8809 158" stroke="#11112B" stroke-width="12"/>
<path d="M276.711 157.5L192.211 33" stroke="#11112B" stroke-width="12"/>
<path d="M80.0817 146.844L178.469 32.9999" stroke="#11112B" stroke-width="12"/>
<path d="M489.469 146.844L391.082 32.9999" stroke="#11112B" stroke-width="12"/>
<rect x="2472.21" y="217" width="29" height="29" fill="#11112B"/>
<rect x="2619.21" y="217" width="29" height="29" fill="#11112B"/>
<rect x="2472.21" y="217" width="29" height="29" fill="#11112B"/>
<rect x="2619.21" y="217" width="29" height="29" fill="#11112B"/>
<path d="M2568.21 157.5L2652.71 33" stroke="#11112B" stroke-width="12"/>
<path d="M2568.39 522.923L2766.55 158.001" stroke="#11112B" stroke-width="12"/>
<path d="M2553.2 523.221L2354.88 158" stroke="#11112B" stroke-width="12"/>
<path d="M2552.71 157.5L2468.21 33" stroke="#11112B" stroke-width="12"/>
<path d="M2356.08 146.844L2454.47 32.9999" stroke="#11112B" stroke-width="12"/>
<path d="M2765.47 146.844L2667.08 32.9999" stroke="#11112B" stroke-width="12"/>
<path d="M2591.21 348C2591.21 374.51 2577.56 396 2560.71 396C2543.87 396 2530.21 374.51 2530.21 348" stroke="#11112B" stroke-width="12"/>
<path d="M2530.21 337C2530.21 310.49 2543.87 289 2560.71 289C2577.56 289 2591.21 310.49 2591.21 337" stroke="#11112B" stroke-width="12"/>
<rect x="1903.21" y="217" width="29" height="29" fill="#11112B"/>
<rect x="2050.21" y="217" width="29" height="29" fill="#11112B"/>
<rect x="1903.21" y="217" width="29" height="29" fill="#11112B"/>
<rect x="2050.21" y="217" width="29" height="29" fill="#11112B"/>
<path d="M1999.21 157.5L2083.71 33" stroke="#11112B" stroke-width="12"/>
<path d="M1999.39 522.923L2197.55 158.001" stroke="#11112B" stroke-width="12"/>
<path d="M1984.2 523.221L1785.88 158" stroke="#11112B" stroke-width="12"/>
<path d="M1983.71 157.5L1899.21 33" stroke="#11112B" stroke-width="12"/>
<path d="M1787.08 146.844L1885.47 32.9999" stroke="#11112B" stroke-width="12"/>
<path d="M2196.47 146.844L2098.08 32.9999" stroke="#11112B" stroke-width="12"/>
<path d="M1955 345L2028 345" stroke="#11112B" stroke-width="12"/>
</svg>
