<svg width="2845" height="557" viewBox="0 0 2845 557" fill="none" xmlns="http://www.w3.org/2000/svg">
<path d="M143 515.5V180" stroke="#11112B" stroke-width="12"/>
<path d="M146 168L280 45.5" stroke="#11112B" stroke-width="12"/>
<path d="M426.5 168L292.5 45.5" stroke="#11112B" stroke-width="12"/>
<path d="M195 102.5V41" stroke="#11112B" stroke-width="12"/>
<path d="M712 515.5V180" stroke="#11112B" stroke-width="12"/>
<path d="M994.5 515.5V180" stroke="#11112B" stroke-width="12"/>
<path d="M715 168L849 45.5" stroke="#11112B" stroke-width="12"/>
<path d="M995.5 168L861.5 45.5" stroke="#11112B" stroke-width="12"/>
<path d="M764 102.5V41" stroke="#11112B" stroke-width="12"/>
<rect x="1334.5" y="236" width="29" height="29" fill="#11112B"/>
<path d="M1281 515.5V180" stroke="#11112B" stroke-width="12"/>
<path d="M1295.5 510H1549.5" stroke="#11112B" stroke-width="12"/>
<path d="M1563.5 515.5V180" stroke="#11112B" stroke-width="12"/>
<path d="M1284 168L1418 45.5" stroke="#11112B" stroke-width="12"/>
<path d="M1564.5 168L1430.5 45.5" stroke="#11112B" stroke-width="12"/>
<path d="M1333 102.5V41" stroke="#11112B" stroke-width="12"/>
<rect x="1903.5" y="236" width="29" height="29" fill="#11112B"/>
<rect x="2050.5" y="236" width="29" height="29" fill="#11112B"/>
<path d="M1850 515.5V180" stroke="#11112B" stroke-width="12"/>
<path d="M1864.5 510H2118.5" stroke="#11112B" stroke-width="12"/>
<path d="M2132.5 515.5V180" stroke="#11112B" stroke-width="12"/>
<path d="M1853 168L1987 45.5" stroke="#11112B" stroke-width="12"/>
<path d="M2133.5 168L1999.5 45.5" stroke="#11112B" stroke-width="12"/>
<path d="M1902 102.5V41" stroke="#11112B" stroke-width="12"/>
<path d="M1906 405H1987" stroke="#11112B" stroke-width="12"/>
<path d="M1997 405H2078" stroke="#11112B" stroke-width="12"/>
<rect x="2472.5" y="236" width="29" height="29" fill="#11112B"/>
<rect x="2619.5" y="236" width="29" height="29" fill="#11112B"/>
<path d="M2419 515.5V180" stroke="#11112B" stroke-width="12"/>
<path d="M2433.5 510H2687.5" stroke="#11112B" stroke-width="12"/>
<path d="M2701.5 515.5V180" stroke="#11112B" stroke-width="12"/>
<path d="M2422 168L2556 45.5" stroke="#11112B" stroke-width="12"/>
<path d="M2702.5 168L2568.5 45.5" stroke="#11112B" stroke-width="12"/>
<path d="M2471 102.5V41" stroke="#11112B" stroke-width="12"/>
<path d="M2649.5 343C2649.5 389.245 2613.83 427.158 2568.5 430.726M2473.5 343C2473.5 389.584 2509.7 427.715 2555.5 430.799" stroke="#11112B" stroke-width="12"/>
</svg>
