<svg width="439" height="439" viewBox="0 0 439 439" fill="none" xmlns="http://www.w3.org/2000/svg">
<mask id="mask0_120_102" style="mask-type:alpha" maskUnits="userSpaceOnUse" x="0" y="0" width="439" height="439">
<rect width="439" height="439" rx="26" fill="#E6E9D1"/>
</mask>
<g mask="url(#mask0_120_102)">
<path d="M117.085 214H102.006L101.997 439H117.075L117.085 214Z" fill="#11112B"/>
<path d="M207.085 214H192.006L191.997 439H207.075L207.085 214Z" fill="#11112B"/>
<path d="M184.701 229.082L184.701 214.003L124.999 214L124.999 229.079L184.701 229.082Z" fill="#11112B"/>
<path d="M194.084 143.064L186.545 130.005L76.9991 193.244L84.5386 206.303L194.084 143.064Z" fill="#11112B"/>
<path d="M84.0907 214H69.0117L68.9995 452.489H84.0785L84.0907 214Z" fill="#11112B"/>
<path d="M371.085 326H356.006L355.999 452.489H371.078L371.085 326Z" fill="#11112B"/>
<path d="M371.086 130H356.007L355.999 277.489H371.078L371.086 130Z" fill="#11112B"/>
<path d="M354.238 319.085L367.297 311.546L304.058 202L290.999 209.54L354.238 319.085Z" fill="#11112B"/>
<path d="M288.539 206.309L296.078 193.25L186.539 130L178.999 143.059L288.539 206.309Z" fill="#11112B"/>
</g>
</svg>
