<svg width="388" height="729" viewBox="0 0 388 729" fill="none" xmlns="http://www.w3.org/2000/svg">
<path d="M356.413 0.0898438H303.424L182.368 244.786L235.788 305.099L87.5915 425.293V559.273L1 557.981V651.465V727.502L331.426 726.64V607.523L386.138 563.15L387 496.806V418.831L386.569 402.46L387 386.09L246.558 233.801L356.413 0.0898438Z" fill="#F3F3F3"/>
<path d="M2.72363 601.277V559.92H88.8843V424.432L235.142 304.454L180.215 244.357L301.27 2.67578H358.998" stroke="#E84A0F" stroke-width="5.16964"/>
<path d="M3.58496 655.771V726.208L330.349 725.561L329.488 606.875L385.277 565.087C385.277 494.006 384.415 381.996 384.415 381.996L244.189 233.799L357.921 2.24219" stroke="#E84A0F" stroke-width="5.16964"/>
<path d="M139.434 562.855H136.961V541.746H139.434V562.855ZM146.738 562.855H144.265V548.38H146.738V562.855ZM145.501 545.425C145.079 545.425 144.707 545.274 144.385 544.973C144.084 544.671 143.933 544.299 143.933 543.857C143.933 543.415 144.084 543.043 144.385 542.741C144.707 542.44 145.079 542.289 145.501 542.289C145.903 542.289 146.255 542.44 146.557 542.741C146.878 543.043 147.039 543.415 147.039 543.857C147.039 544.299 146.878 544.671 146.557 544.973C146.255 545.274 145.903 545.425 145.501 545.425ZM158.052 562.855H155.338L149.548 548.38H152.232L156.725 559.93H156.785L161.279 548.38H163.842L158.052 562.855ZM169.119 562.855H166.646V548.38H169.119V562.855ZM167.883 545.425C167.461 545.425 167.089 545.274 166.767 544.973C166.465 544.671 166.315 544.299 166.315 543.857C166.315 543.415 166.465 543.043 166.767 542.741C167.089 542.44 167.461 542.289 167.883 542.289C168.285 542.289 168.637 542.44 168.938 542.741C169.26 543.043 169.421 543.415 169.421 543.857C169.421 544.299 169.26 544.671 168.938 544.973C168.637 545.274 168.285 545.425 167.883 545.425ZM173.799 562.855V548.38H176.272V550.582H176.302C176.704 549.939 177.317 549.366 178.142 548.863C178.966 548.34 179.901 548.079 180.946 548.079C182.052 548.079 183.037 548.34 183.901 548.863C184.786 549.386 185.47 550.119 185.952 551.064C186.455 552.009 186.706 553.105 186.706 554.351V562.855H184.263V554.351C184.263 553.185 183.911 552.24 183.208 551.517C182.504 550.793 181.61 550.431 180.524 550.431C179.318 550.431 178.302 550.853 177.478 551.698C176.674 552.542 176.272 553.618 176.272 554.924V562.855H173.799ZM196.906 569.188C195.579 569.188 194.333 568.867 193.167 568.223C192.021 567.6 191.196 566.917 190.694 566.173L192.443 564.574C192.825 565.137 193.428 565.65 194.252 566.112C195.097 566.595 195.981 566.836 196.906 566.836C198.313 566.836 199.439 566.364 200.284 565.419C201.148 564.474 201.58 563.247 201.58 561.74V560.051H201.55C201.088 560.755 200.414 561.348 199.53 561.83C198.645 562.313 197.69 562.554 196.665 562.554C195.499 562.554 194.413 562.242 193.408 561.619C192.403 560.996 191.599 560.131 190.995 559.026C190.412 557.92 190.121 556.683 190.121 555.316C190.121 553.949 190.412 552.713 190.995 551.607C191.599 550.501 192.403 549.637 193.408 549.014C194.413 548.391 195.499 548.079 196.665 548.079C197.771 548.079 198.756 548.34 199.62 548.863C200.505 549.386 201.148 549.959 201.55 550.582H201.58V548.38H204.053V561.74C204.053 563.147 203.741 564.414 203.118 565.539C202.515 566.685 201.671 567.58 200.585 568.223C199.499 568.867 198.273 569.188 196.906 569.188ZM197.057 560.202C197.901 560.202 198.665 559.991 199.349 559.568C200.032 559.146 200.575 558.573 200.977 557.85C201.379 557.106 201.58 556.261 201.58 555.316C201.58 554.372 201.379 553.537 200.977 552.813C200.575 552.07 200.032 551.487 199.349 551.064C198.665 550.642 197.901 550.431 197.057 550.431C196.253 550.431 195.509 550.642 194.825 551.064C194.142 551.487 193.599 552.07 193.197 552.813C192.795 553.557 192.594 554.392 192.594 555.316C192.594 556.241 192.795 557.076 193.197 557.819C193.599 558.563 194.142 559.146 194.825 559.568C195.509 559.991 196.253 560.202 197.057 560.202ZM220.897 548.079C222.043 548.079 223.058 548.32 223.943 548.803C224.827 549.285 225.511 549.959 225.993 550.823C226.496 551.668 226.747 552.633 226.747 553.718V562.855H224.365V560.654H224.335C223.953 561.297 223.319 561.88 222.435 562.403C221.55 562.906 220.555 563.157 219.449 563.157C218.504 563.157 217.66 562.966 216.916 562.584C216.172 562.202 215.589 561.699 215.167 561.076C214.765 560.433 214.564 559.739 214.564 558.995C214.564 557.789 214.966 556.794 215.77 556.01C216.574 555.206 217.7 554.683 219.148 554.442L224.274 553.598V553.537C224.274 552.612 223.953 551.848 223.309 551.245C222.686 550.642 221.882 550.341 220.897 550.341C220.093 550.341 219.369 550.522 218.726 550.883C218.102 551.245 217.519 551.728 216.976 552.331L215.378 550.793C216.022 550.029 216.806 549.386 217.73 548.863C218.655 548.34 219.711 548.079 220.897 548.079ZM219.811 560.986C220.635 560.986 221.389 560.785 222.073 560.383C222.756 559.981 223.289 559.438 223.671 558.754C224.073 558.051 224.274 557.277 224.274 556.432V555.618L219.751 556.402C218.846 556.563 218.163 556.854 217.7 557.277C217.258 557.699 217.037 558.201 217.037 558.784C217.037 559.388 217.288 559.91 217.791 560.353C218.313 560.775 218.987 560.986 219.811 560.986ZM231.108 562.855V548.38H233.581V550.491H233.611C234.013 549.868 234.616 549.315 235.42 548.833C236.244 548.33 237.169 548.079 238.194 548.079H238.888V550.642C238.406 550.582 238.074 550.552 237.893 550.552C237.109 550.552 236.385 550.753 235.722 551.155C235.078 551.557 234.556 552.12 234.153 552.844C233.772 553.547 233.581 554.341 233.581 555.226V562.855H231.108ZM247.868 563.157C246.521 563.157 245.284 562.825 244.159 562.162C243.033 561.478 242.138 560.564 241.475 559.418C240.811 558.272 240.479 557.005 240.479 555.618C240.479 554.211 240.801 552.934 241.444 551.788C242.108 550.642 242.992 549.738 244.098 549.074C245.204 548.411 246.41 548.079 247.717 548.079C249.004 548.079 250.18 548.391 251.245 549.014C252.311 549.637 253.145 550.501 253.748 551.607C254.351 552.693 254.653 553.929 254.653 555.316C254.653 555.638 254.623 556.04 254.562 556.523H243.043C243.204 557.729 243.746 558.744 244.671 559.568C245.596 560.393 246.702 560.805 247.988 560.805C249.577 560.805 250.994 560.141 252.24 558.815L253.899 560.353C253.316 561.116 252.502 561.78 251.456 562.343C250.431 562.886 249.235 563.157 247.868 563.157ZM252.12 554.472C251.919 553.205 251.426 552.2 250.642 551.456C249.878 550.713 248.903 550.341 247.717 550.341C246.491 550.341 245.455 550.733 244.611 551.517C243.767 552.281 243.234 553.266 243.013 554.472H252.12ZM263.451 548.079C264.597 548.079 265.612 548.32 266.497 548.803C267.382 549.285 268.065 549.959 268.548 550.823C269.05 551.668 269.302 552.633 269.302 553.718V562.855H266.919V560.654H266.889C266.507 561.297 265.874 561.88 264.989 562.403C264.105 562.906 263.109 563.157 262.004 563.157C261.059 563.157 260.214 562.966 259.471 562.584C258.727 562.202 258.144 561.699 257.722 561.076C257.319 560.433 257.118 559.739 257.118 558.995C257.118 557.789 257.521 556.794 258.325 556.01C259.129 555.206 260.255 554.683 261.702 554.442L266.829 553.598V553.537C266.829 552.612 266.507 551.848 265.864 551.245C265.241 550.642 264.436 550.341 263.451 550.341C262.647 550.341 261.923 550.522 261.28 550.883C260.657 551.245 260.074 551.728 259.531 552.331L257.933 550.793C258.576 550.029 259.36 549.386 260.285 548.863C261.21 548.34 262.265 548.079 263.451 548.079ZM262.366 560.986C263.19 560.986 263.944 560.785 264.627 560.383C265.311 559.981 265.844 559.438 266.226 558.754C266.628 558.051 266.829 557.277 266.829 556.432V555.618L262.305 556.402C261.401 556.563 260.717 556.854 260.255 557.277C259.812 557.699 259.591 558.201 259.591 558.784C259.591 559.388 259.843 559.91 260.345 560.353C260.868 560.775 261.541 560.986 262.366 560.986Z" fill="#11112B"/>
<path d="M248.988 536.977C248.988 536.614 249.059 536.299 249.201 536.032C249.344 535.766 249.514 535.545 249.711 535.371C249.914 535.196 250.175 535.001 250.497 534.785C250.736 534.624 250.925 534.488 251.062 534.378C251.2 534.268 251.313 534.144 251.4 534.006C251.492 533.863 251.538 533.705 251.538 533.53C251.538 533.277 251.451 533.073 251.276 532.917C251.106 532.76 250.872 532.682 250.573 532.682C250.306 532.682 250.09 532.754 249.925 532.896C249.76 533.038 249.64 533.206 249.567 533.399L249.05 533.172C249.1 533.002 249.19 532.834 249.318 532.669C249.447 532.499 249.617 532.358 249.829 532.248C250.045 532.138 250.293 532.083 250.573 532.083C250.881 532.083 251.154 532.147 251.393 532.276C251.637 532.404 251.825 532.579 251.958 532.799C252.092 533.02 252.158 533.264 252.158 533.53C252.158 533.787 252.101 534.015 251.986 534.213C251.871 534.41 251.729 534.58 251.559 534.723C251.393 534.86 251.17 535.024 250.89 535.212C250.559 535.437 250.302 535.632 250.118 535.798C249.934 535.959 249.799 536.152 249.711 536.377H252.158V536.977H248.988ZM254.872 537.045C254.518 537.045 254.192 536.947 253.893 536.749C253.594 536.552 253.355 536.264 253.176 535.887C253.001 535.511 252.914 535.07 252.914 534.564C252.914 534.059 253.001 533.617 253.176 533.241C253.355 532.864 253.594 532.577 253.893 532.379C254.192 532.181 254.518 532.083 254.872 532.083C255.225 532.083 255.549 532.181 255.844 532.379C256.142 532.577 256.379 532.864 256.554 533.241C256.733 533.617 256.822 534.059 256.822 534.564C256.822 535.07 256.733 535.511 256.554 535.887C256.379 536.264 256.142 536.552 255.844 536.749C255.549 536.947 255.225 537.045 254.872 537.045ZM254.872 536.473C255.106 536.473 255.324 536.4 255.526 536.253C255.733 536.106 255.896 535.89 256.016 535.605C256.14 535.315 256.202 534.968 256.202 534.564C256.202 534.16 256.14 533.815 256.016 533.53C255.896 533.241 255.733 533.022 255.526 532.875C255.324 532.728 255.106 532.655 254.872 532.655C254.633 532.655 254.412 532.728 254.21 532.875C254.008 533.022 253.845 533.241 253.721 533.53C253.596 533.815 253.534 534.16 253.534 534.564C253.534 534.968 253.596 535.315 253.721 535.605C253.845 535.89 254.008 536.106 254.21 536.253C254.412 536.4 254.633 536.473 254.872 536.473ZM258.717 537.045C258.441 537.045 258.191 536.986 257.966 536.866C257.74 536.742 257.568 536.602 257.449 536.446L257.821 536.08C257.922 536.195 258.051 536.299 258.207 536.391C258.368 536.483 258.538 536.529 258.717 536.529C258.928 536.529 259.094 536.48 259.213 536.384C259.333 536.287 259.392 536.168 259.392 536.025C259.392 535.901 259.335 535.807 259.22 535.743C259.105 535.674 258.926 535.603 258.682 535.529C258.453 535.46 258.264 535.394 258.117 535.329C257.97 535.26 257.844 535.164 257.738 535.04C257.637 534.911 257.586 534.746 257.586 534.543C257.586 534.378 257.635 534.224 257.731 534.082C257.828 533.935 257.963 533.817 258.138 533.73C258.317 533.643 258.522 533.599 258.751 533.599C258.999 533.599 259.218 533.645 259.406 533.737C259.599 533.829 259.755 533.937 259.875 534.061L259.503 534.426C259.415 534.343 259.307 534.272 259.179 534.213C259.05 534.148 258.908 534.116 258.751 534.116C258.563 534.116 258.416 534.157 258.31 534.24C258.204 534.323 258.152 534.424 258.152 534.543C258.152 534.663 258.207 534.755 258.317 534.819C258.432 534.883 258.609 534.95 258.848 535.019C259.078 535.088 259.266 535.157 259.413 535.226C259.565 535.29 259.693 535.389 259.799 535.522C259.905 535.651 259.958 535.819 259.958 536.025C259.958 536.209 259.907 536.379 259.806 536.535C259.705 536.692 259.56 536.816 259.372 536.908C259.183 537 258.965 537.045 258.717 537.045ZM263.289 538.424V536.453H263.282C263.19 536.604 263.039 536.742 262.827 536.866C262.616 536.986 262.375 537.045 262.103 537.045C261.828 537.045 261.57 536.972 261.331 536.825C261.097 536.673 260.909 536.466 260.766 536.205C260.624 535.943 260.552 535.649 260.552 535.322C260.552 534.996 260.624 534.702 260.766 534.44C260.909 534.178 261.097 533.974 261.331 533.827C261.57 533.675 261.828 533.599 262.103 533.599C262.375 533.599 262.616 533.661 262.827 533.785C263.039 533.905 263.19 534.04 263.282 534.192H263.289V533.668H263.854V538.424H263.289ZM262.2 536.508C262.397 536.508 262.579 536.457 262.744 536.356C262.91 536.251 263.041 536.108 263.137 535.929C263.238 535.75 263.289 535.547 263.289 535.322C263.289 535.097 263.238 534.895 263.137 534.716C263.041 534.536 262.91 534.396 262.744 534.295C262.579 534.19 262.397 534.137 262.2 534.137C262.007 534.137 261.828 534.19 261.662 534.295C261.497 534.396 261.364 534.536 261.262 534.716C261.166 534.895 261.118 535.097 261.118 535.322C261.118 535.547 261.166 535.75 261.262 535.929C261.364 536.108 261.497 536.251 261.662 536.356C261.828 536.457 262.007 536.508 262.2 536.508ZM264.886 536.977V533.668H265.451V534.157H265.458C265.527 534.015 265.646 533.886 265.816 533.771C265.991 533.657 266.193 533.599 266.423 533.599C266.671 533.599 266.889 533.663 267.078 533.792C267.266 533.916 267.399 534.056 267.478 534.213H267.491C267.565 534.056 267.7 533.916 267.898 533.792C268.1 533.663 268.342 533.599 268.622 533.599C268.842 533.599 269.045 533.659 269.228 533.778C269.417 533.893 269.564 534.059 269.67 534.275C269.78 534.486 269.835 534.732 269.835 535.012V536.977H269.277V535.012C269.277 534.746 269.203 534.534 269.056 534.378C268.909 534.217 268.725 534.137 268.505 534.137C268.257 534.137 268.05 534.229 267.884 534.412C267.723 534.592 267.643 534.833 267.643 535.136V536.977H267.078V535.012C267.078 534.746 267.004 534.534 266.857 534.378C266.71 534.217 266.529 534.137 266.313 534.137C266.065 534.137 265.858 534.229 265.692 534.412C265.532 534.592 265.451 534.833 265.451 535.136V536.977H264.886Z" fill="#11112B"/>
</svg>
