<svg width="900" height="1692" viewBox="0 0 900 1692" fill="none" xmlns="http://www.w3.org/2000/svg">
<path d="M827 0H704L423 568L547 708L203 987V1298L2 1295V1512V1688.5L769 1686.5V1410L896 1307L898 1153V972L897 934L898 896L572 542.5L827 0Z" fill="#F3F3F3"/>
<path d="M6 1395.5V1299.5H206V985L545.5 706.5L418 567L699 6H833" stroke="#E84A0F" stroke-width="12"/>
<path d="M8 1522V1685.5L766.5 1684L764.5 1408.5L894 1311.5C894 1146.5 892 886.5 892 886.5L566.5 542.5L830.5 5" stroke="#E84A0F" stroke-width="12"/>
<path d="M323.34 1306H317.6V1257H323.34V1306ZM340.293 1306H334.553V1272.4H340.293V1306ZM337.423 1265.54C336.443 1265.54 335.58 1265.19 334.833 1264.49C334.133 1263.79 333.783 1262.93 333.783 1261.9C333.783 1260.87 334.133 1260.01 334.833 1259.31C335.58 1258.61 336.443 1258.26 337.423 1258.26C338.356 1258.26 339.173 1258.61 339.873 1259.31C340.62 1260.01 340.993 1260.87 340.993 1261.9C340.993 1262.93 340.62 1263.79 339.873 1264.49C339.173 1265.19 338.356 1265.54 337.423 1265.54ZM366.556 1306H360.256L346.816 1272.4H353.046L363.476 1299.21H363.616L374.046 1272.4H379.996L366.556 1306ZM392.246 1306H386.506V1272.4H392.246V1306ZM389.376 1265.54C388.396 1265.54 387.533 1265.19 386.786 1264.49C386.086 1263.79 385.736 1262.93 385.736 1261.9C385.736 1260.87 386.086 1260.01 386.786 1259.31C387.533 1258.61 388.396 1258.26 389.376 1258.26C390.31 1258.26 391.126 1258.61 391.826 1259.31C392.573 1260.01 392.946 1260.87 392.946 1261.9C392.946 1262.93 392.573 1263.79 391.826 1264.49C391.126 1265.19 390.31 1265.54 389.376 1265.54ZM403.109 1306V1272.4H408.849V1277.51H408.919C409.853 1276.02 411.276 1274.69 413.189 1273.52C415.103 1272.31 417.273 1271.7 419.699 1271.7C422.266 1271.7 424.553 1272.31 426.559 1273.52C428.613 1274.73 430.199 1276.44 431.319 1278.63C432.486 1280.82 433.069 1283.37 433.069 1286.26V1306H427.399V1286.26C427.399 1283.55 426.583 1281.36 424.949 1279.68C423.316 1278 421.239 1277.16 418.719 1277.16C415.919 1277.16 413.563 1278.14 411.649 1280.1C409.783 1282.06 408.849 1284.56 408.849 1287.59V1306H403.109ZM456.746 1320.7C453.666 1320.7 450.773 1319.95 448.066 1318.46C445.406 1317.01 443.493 1315.43 442.326 1313.7L446.386 1309.99C447.273 1311.3 448.673 1312.49 450.586 1313.56C452.546 1314.68 454.6 1315.24 456.746 1315.24C460.013 1315.24 462.626 1314.14 464.586 1311.95C466.593 1309.76 467.596 1306.91 467.596 1303.41V1299.49H467.526C466.453 1301.12 464.89 1302.5 462.836 1303.62C460.783 1304.74 458.566 1305.3 456.186 1305.3C453.48 1305.3 450.96 1304.58 448.626 1303.13C446.293 1301.68 444.426 1299.68 443.026 1297.11C441.673 1294.54 440.996 1291.67 440.996 1288.5C440.996 1285.33 441.673 1282.46 443.026 1279.89C444.426 1277.32 446.293 1275.32 448.626 1273.87C450.96 1272.42 453.48 1271.7 456.186 1271.7C458.753 1271.7 461.04 1272.31 463.046 1273.52C465.1 1274.73 466.593 1276.06 467.526 1277.51H467.596V1272.4H473.336V1303.41C473.336 1306.68 472.613 1309.62 471.166 1312.23C469.766 1314.89 467.806 1316.97 465.286 1318.46C462.766 1319.95 459.92 1320.7 456.746 1320.7ZM457.096 1299.84C459.056 1299.84 460.83 1299.35 462.416 1298.37C464.003 1297.39 465.263 1296.06 466.196 1294.38C467.13 1292.65 467.596 1290.69 467.596 1288.5C467.596 1286.31 467.13 1284.37 466.196 1282.69C465.263 1280.96 464.003 1279.61 462.416 1278.63C460.83 1277.65 459.056 1277.16 457.096 1277.16C455.23 1277.16 453.503 1277.65 451.916 1278.63C450.33 1279.61 449.07 1280.96 448.136 1282.69C447.203 1284.42 446.736 1286.35 446.736 1288.5C446.736 1290.65 447.203 1292.58 448.136 1294.31C449.07 1296.04 450.33 1297.39 451.916 1298.37C453.503 1299.35 455.23 1299.84 457.096 1299.84ZM512.435 1271.7C515.095 1271.7 517.451 1272.26 519.505 1273.38C521.558 1274.5 523.145 1276.06 524.265 1278.07C525.431 1280.03 526.015 1282.27 526.015 1284.79V1306H520.485V1300.89H520.415C519.528 1302.38 518.058 1303.74 516.005 1304.95C513.951 1306.12 511.641 1306.7 509.075 1306.7C506.881 1306.7 504.921 1306.26 503.195 1305.37C501.468 1304.48 500.115 1303.32 499.135 1301.87C498.201 1300.38 497.735 1298.77 497.735 1297.04C497.735 1294.24 498.668 1291.93 500.535 1290.11C502.401 1288.24 505.015 1287.03 508.375 1286.47L520.275 1284.51V1284.37C520.275 1282.22 519.528 1280.45 518.035 1279.05C516.588 1277.65 514.721 1276.95 512.435 1276.95C510.568 1276.95 508.888 1277.37 507.395 1278.21C505.948 1279.05 504.595 1280.17 503.335 1281.57L499.625 1278C501.118 1276.23 502.938 1274.73 505.085 1273.52C507.231 1272.31 509.681 1271.7 512.435 1271.7ZM509.915 1301.66C511.828 1301.66 513.578 1301.19 515.165 1300.26C516.751 1299.33 517.988 1298.07 518.875 1296.48C519.808 1294.85 520.275 1293.05 520.275 1291.09V1289.2L509.775 1291.02C507.675 1291.39 506.088 1292.07 505.015 1293.05C503.988 1294.03 503.475 1295.2 503.475 1296.55C503.475 1297.95 504.058 1299.16 505.225 1300.19C506.438 1301.17 508.001 1301.66 509.915 1301.66ZM536.137 1306V1272.4H541.877V1277.3H541.947C542.88 1275.85 544.28 1274.57 546.147 1273.45C548.06 1272.28 550.207 1271.7 552.587 1271.7H554.197V1277.65C553.077 1277.51 552.307 1277.44 551.887 1277.44C550.067 1277.44 548.387 1277.91 546.847 1278.84C545.353 1279.77 544.14 1281.08 543.207 1282.76C542.32 1284.39 541.877 1286.24 541.877 1288.29V1306H536.137ZM575.041 1306.7C571.914 1306.7 569.044 1305.93 566.431 1304.39C563.818 1302.8 561.741 1300.68 560.201 1298.02C558.661 1295.36 557.891 1292.42 557.891 1289.2C557.891 1285.93 558.638 1282.97 560.131 1280.31C561.671 1277.65 563.724 1275.55 566.291 1274.01C568.858 1272.47 571.658 1271.7 574.691 1271.7C577.678 1271.7 580.408 1272.42 582.881 1273.87C585.354 1275.32 587.291 1277.32 588.691 1279.89C590.091 1282.41 590.791 1285.28 590.791 1288.5C590.791 1289.25 590.721 1290.18 590.581 1291.3H563.841C564.214 1294.1 565.474 1296.46 567.621 1298.37C569.768 1300.28 572.334 1301.24 575.321 1301.24C579.008 1301.24 582.298 1299.7 585.191 1296.62L589.041 1300.19C587.688 1301.96 585.798 1303.5 583.371 1304.81C580.991 1306.07 578.214 1306.7 575.041 1306.7ZM584.911 1286.54C584.444 1283.6 583.301 1281.27 581.481 1279.54C579.708 1277.81 577.444 1276.95 574.691 1276.95C571.844 1276.95 569.441 1277.86 567.481 1279.68C565.521 1281.45 564.284 1283.74 563.771 1286.54H584.911ZM611.214 1271.7C613.874 1271.7 616.231 1272.26 618.284 1273.38C620.337 1274.5 621.924 1276.06 623.044 1278.07C624.211 1280.03 624.794 1282.27 624.794 1284.79V1306H619.264V1300.89H619.194C618.307 1302.38 616.837 1303.74 614.784 1304.95C612.731 1306.12 610.421 1306.7 607.854 1306.7C605.661 1306.7 603.701 1306.26 601.974 1305.37C600.247 1304.48 598.894 1303.32 597.914 1301.87C596.981 1300.38 596.514 1298.77 596.514 1297.04C596.514 1294.24 597.447 1291.93 599.314 1290.11C601.181 1288.24 603.794 1287.03 607.154 1286.47L619.054 1284.51V1284.37C619.054 1282.22 618.307 1280.45 616.814 1279.05C615.367 1277.65 613.501 1276.95 611.214 1276.95C609.347 1276.95 607.667 1277.37 606.174 1278.21C604.727 1279.05 603.374 1280.17 602.114 1281.57L598.404 1278C599.897 1276.23 601.717 1274.73 603.864 1273.52C606.011 1272.31 608.461 1271.7 611.214 1271.7ZM608.694 1301.66C610.607 1301.66 612.357 1301.19 613.944 1300.26C615.531 1299.33 616.767 1298.07 617.654 1296.48C618.587 1294.85 619.054 1293.05 619.054 1291.09V1289.2L608.554 1291.02C606.454 1291.39 604.867 1292.07 603.794 1293.05C602.767 1294.03 602.254 1295.2 602.254 1296.55C602.254 1297.95 602.837 1299.16 604.004 1300.19C605.217 1301.17 606.781 1301.66 608.694 1301.66Z" fill="#11112B"/>
<path d="M577.64 1245C577.64 1244.16 577.805 1243.43 578.136 1242.81C578.467 1242.19 578.861 1241.68 579.32 1241.27C579.789 1240.87 580.397 1240.41 581.144 1239.91C581.699 1239.54 582.136 1239.22 582.456 1238.97C582.776 1238.71 583.037 1238.42 583.24 1238.1C583.453 1237.77 583.56 1237.41 583.56 1237C583.56 1236.41 583.357 1235.94 582.952 1235.58C582.557 1235.21 582.013 1235.03 581.32 1235.03C580.701 1235.03 580.2 1235.2 579.816 1235.53C579.432 1235.86 579.155 1236.25 578.984 1236.7L577.784 1236.17C577.901 1235.77 578.109 1235.38 578.408 1235C578.707 1234.61 579.101 1234.28 579.592 1234.02C580.093 1233.77 580.669 1233.64 581.32 1233.64C582.035 1233.64 582.669 1233.79 583.224 1234.09C583.789 1234.39 584.227 1234.79 584.536 1235.3C584.845 1235.82 585 1236.38 585 1237C585 1237.6 584.867 1238.13 584.6 1238.58C584.333 1239.04 584.003 1239.44 583.608 1239.77C583.224 1240.09 582.707 1240.47 582.056 1240.9C581.288 1241.43 580.691 1241.88 580.264 1242.26C579.837 1242.64 579.523 1243.09 579.32 1243.61H585V1245H577.64ZM591.298 1245.16C590.477 1245.16 589.72 1244.93 589.026 1244.47C588.333 1244.01 587.778 1243.35 587.362 1242.47C586.957 1241.6 586.754 1240.57 586.754 1239.4C586.754 1238.23 586.957 1237.2 587.362 1236.33C587.778 1235.45 588.333 1234.79 589.026 1234.33C589.72 1233.87 590.477 1233.64 591.298 1233.64C592.12 1233.64 592.872 1233.87 593.554 1234.33C594.248 1234.79 594.797 1235.45 595.202 1236.33C595.618 1237.2 595.826 1238.23 595.826 1239.4C595.826 1240.57 595.618 1241.6 595.202 1242.47C594.797 1243.35 594.248 1244.01 593.554 1244.47C592.872 1244.93 592.12 1245.16 591.298 1245.16ZM591.298 1243.83C591.842 1243.83 592.349 1243.66 592.818 1243.32C593.298 1242.98 593.677 1242.48 593.954 1241.82C594.242 1241.14 594.386 1240.34 594.386 1239.4C594.386 1238.46 594.242 1237.66 593.954 1237C593.677 1236.33 593.298 1235.82 592.818 1235.48C592.349 1235.14 591.842 1234.97 591.298 1234.97C590.744 1234.97 590.232 1235.14 589.762 1235.48C589.293 1235.82 588.914 1236.33 588.626 1237C588.338 1237.66 588.194 1238.46 588.194 1239.4C588.194 1240.34 588.338 1241.14 588.626 1241.82C588.914 1242.48 589.293 1242.98 589.762 1243.32C590.232 1243.66 590.744 1243.83 591.298 1243.83ZM600.224 1245.16C599.584 1245.16 599.003 1245.02 598.48 1244.74C597.957 1244.46 597.557 1244.13 597.28 1243.77L598.144 1242.92C598.379 1243.19 598.677 1243.43 599.04 1243.64C599.413 1243.85 599.808 1243.96 600.224 1243.96C600.715 1243.96 601.099 1243.85 601.376 1243.62C601.653 1243.4 601.792 1243.12 601.792 1242.79C601.792 1242.5 601.659 1242.29 601.392 1242.14C601.125 1241.98 600.709 1241.81 600.144 1241.64C599.611 1241.48 599.173 1241.33 598.832 1241.18C598.491 1241.02 598.197 1240.79 597.952 1240.5C597.717 1240.21 597.6 1239.82 597.6 1239.35C597.6 1238.97 597.712 1238.61 597.936 1238.28C598.16 1237.94 598.475 1237.67 598.88 1237.46C599.296 1237.26 599.771 1237.16 600.304 1237.16C600.88 1237.16 601.387 1237.27 601.824 1237.48C602.272 1237.69 602.635 1237.94 602.912 1238.23L602.048 1239.08C601.845 1238.89 601.595 1238.72 601.296 1238.58C600.997 1238.43 600.667 1238.36 600.304 1238.36C599.867 1238.36 599.525 1238.46 599.28 1238.65C599.035 1238.84 598.912 1239.07 598.912 1239.35C598.912 1239.63 599.04 1239.84 599.296 1239.99C599.563 1240.14 599.973 1240.3 600.528 1240.46C601.061 1240.62 601.499 1240.78 601.84 1240.94C602.192 1241.09 602.491 1241.31 602.736 1241.62C602.981 1241.92 603.104 1242.31 603.104 1242.79C603.104 1243.22 602.987 1243.61 602.752 1243.98C602.517 1244.34 602.181 1244.63 601.744 1244.84C601.307 1245.05 600.8 1245.16 600.224 1245.16ZM610.837 1248.36V1243.78H610.821C610.608 1244.14 610.256 1244.46 609.765 1244.74C609.274 1245.02 608.714 1245.16 608.085 1245.16C607.445 1245.16 606.848 1244.99 606.293 1244.65C605.749 1244.3 605.312 1243.82 604.981 1243.21C604.65 1242.6 604.485 1241.92 604.485 1241.16C604.485 1240.4 604.65 1239.72 604.981 1239.11C605.312 1238.5 605.749 1238.03 606.293 1237.69C606.848 1237.34 607.445 1237.16 608.085 1237.16C608.714 1237.16 609.274 1237.3 609.765 1237.59C610.256 1237.87 610.608 1238.18 610.821 1238.54H610.837V1237.32H612.149V1248.36H610.837ZM608.309 1243.91C608.768 1243.91 609.189 1243.79 609.573 1243.56C609.957 1243.31 610.261 1242.98 610.485 1242.57C610.72 1242.15 610.837 1241.68 610.837 1241.16C610.837 1240.64 610.72 1240.17 610.485 1239.75C610.261 1239.34 609.957 1239.01 609.573 1238.78C609.189 1238.53 608.768 1238.41 608.309 1238.41C607.861 1238.41 607.445 1238.53 607.061 1238.78C606.677 1239.01 606.368 1239.34 606.133 1239.75C605.909 1240.17 605.797 1240.64 605.797 1241.16C605.797 1241.68 605.909 1242.15 606.133 1242.57C606.368 1242.98 606.677 1243.31 607.061 1243.56C607.445 1243.79 607.861 1243.91 608.309 1243.91ZM614.544 1245V1237.32H615.856V1238.46H615.872C616.032 1238.13 616.309 1237.83 616.704 1237.56C617.109 1237.29 617.578 1237.16 618.112 1237.16C618.688 1237.16 619.194 1237.31 619.632 1237.61C620.069 1237.9 620.378 1238.22 620.56 1238.58H620.592C620.762 1238.22 621.077 1237.9 621.536 1237.61C622.005 1237.31 622.565 1237.16 623.216 1237.16C623.728 1237.16 624.197 1237.3 624.624 1237.58C625.061 1237.84 625.402 1238.23 625.648 1238.73C625.904 1239.22 626.032 1239.79 626.032 1240.44V1245H624.736V1240.44C624.736 1239.82 624.565 1239.33 624.224 1238.97C623.882 1238.59 623.456 1238.41 622.944 1238.41C622.368 1238.41 621.888 1238.62 621.504 1239.05C621.13 1239.46 620.944 1240.02 620.944 1240.73V1245H619.632V1240.44C619.632 1239.82 619.461 1239.33 619.12 1238.97C618.778 1238.59 618.357 1238.41 617.856 1238.41C617.28 1238.41 616.8 1238.62 616.416 1239.05C616.042 1239.46 615.856 1240.02 615.856 1240.73V1245H614.544Z" fill="#11112B"/>
</svg>
