<svg width="2443" height="272" viewBox="0 0 2443 272" fill="none" xmlns="http://www.w3.org/2000/svg">
<path d="M136.818 0C111.963 0 89.0457 6.12 68.0669 18.36C47.3162 30.6 30.784 47.1467 18.4704 68C6.15681 88.8533 0 111.633 0 136.34C0 161.047 6.15681 183.827 18.4704 204.68C30.784 225.307 47.3162 241.74 68.0669 253.98C89.0457 265.993 111.963 272 136.818 272V258.06C114.699 258.06 94.1763 252.62 75.2498 241.74C56.5514 230.86 41.6154 216.127 30.442 197.54C19.4966 178.727 14.0238 158.327 14.0238 136.34C14.0238 114.127 19.4966 93.7267 30.442 75.14C41.6154 56.3267 56.5514 41.48 75.2498 30.6C94.1763 19.4933 114.699 13.94 136.818 13.94V0Z" fill="#F3F3F3"/>
<path d="M251.906 176.46V162.18H323.736V176.46H251.906ZM210.177 272L284.743 4.07999L271.403 0.339996L196.837 267.92L210.177 272ZM305.265 0.339996L379.831 267.92L366.149 272L291.584 4.07999L305.265 0.339996Z" fill="#F3F3F3"/>
<path d="M501.427 272L488.087 268.6L552.392 0L566.073 3.06L501.427 272ZM467.222 272L480.904 268.6L416.258 0L402.918 3.06L467.222 272Z" fill="#F3F3F3"/>
<path d="M633.085 272H619.404L619.746 0H633.427L633.085 272ZM640.61 257.72H801.713V272H640.61V257.72ZM640.61 112.88L801.713 113.22V126.82H640.61V112.88ZM640.61 0H801.713V13.94H640.61V0Z" fill="#F3F3F3"/>
<path d="M892.614 176.46V162.18H964.443V176.46H892.614ZM850.884 272L925.45 4.07999L912.11 0.339996L837.545 267.92L850.884 272ZM945.973 0.339996L1020.54 267.92L1006.86 272L932.291 4.07999L945.973 0.339996Z" fill="#F3F3F3"/>
<path d="M1072.52 0H1058.84V272H1072.86L1072.52 0ZM1134.43 272L1144.35 262.14L1089.28 207.4L1079.7 217.26L1134.43 272ZM1079.7 191.76C1095.89 191.76 1110.83 187.793 1124.51 179.86C1138.42 171.927 1149.36 161.16 1157.35 147.56C1165.33 133.96 1169.32 119.113 1169.32 103.02C1169.32 86.9267 1165.33 72.08 1157.35 58.48C1149.36 44.88 1138.42 34.1133 1124.51 26.18C1110.83 18.02 1095.89 13.94 1079.7 13.94V0C1098.63 0 1115.96 4.64666 1131.69 13.94C1147.65 23.2333 1160.2 35.8133 1169.32 51.68C1178.67 67.32 1183.34 84.4333 1183.34 103.02C1183.34 121.607 1178.67 138.833 1169.32 154.7C1159.97 170.34 1147.31 182.807 1131.35 192.1C1115.62 201.167 1098.4 205.7 1079.7 205.7V191.76Z" fill="#F3F3F3"/>
<path d="M1353.35 0C1328.49 0 1305.58 6.12 1284.6 18.36C1263.85 30.6 1247.31 47.1467 1235 68C1222.69 88.8533 1216.53 111.633 1216.53 136.34C1216.53 161.047 1222.69 183.827 1235 204.68C1247.31 225.307 1263.85 241.74 1284.6 253.98C1305.58 265.993 1328.49 272 1353.35 272V258.06C1331.23 258.06 1310.71 252.62 1291.78 241.74C1273.08 230.86 1258.15 216.127 1246.97 197.54C1236.03 178.727 1230.55 158.327 1230.55 136.34C1230.55 114.127 1236.03 93.7267 1246.97 75.14C1258.15 56.3267 1273.08 41.48 1291.78 30.6C1310.71 19.4933 1331.23 13.94 1353.35 13.94V0Z" fill="#F3F3F3"/>
<path d="M1393.37 272H1407.39L1407.05 0H1393.37V272ZM1554.81 143.82V129.88H1414.23V143.48L1554.81 143.82ZM1562 272H1575.68L1575.34 0H1561.65L1562 272Z" fill="#F3F3F3"/>
<path d="M1791.32 0C1766.47 0 1743.55 6.12 1722.57 18.36C1701.82 30.6 1685.29 47.1467 1672.97 68C1660.66 88.8533 1654.5 111.633 1654.5 136.34C1654.5 161.047 1660.66 183.827 1672.97 204.68C1685.29 225.307 1701.82 241.74 1722.57 253.98C1743.55 265.993 1766.47 272 1791.32 272V258.06C1769.2 258.06 1748.68 252.62 1729.75 241.74C1711.05 230.86 1696.12 216.127 1684.95 197.54C1674 178.727 1668.53 158.327 1668.53 136.34C1668.53 114.127 1674 93.7267 1684.95 75.14C1696.12 56.3267 1711.05 41.48 1729.75 30.6C1748.68 19.4933 1769.2 13.94 1791.32 13.94V0Z" fill="#F3F3F3"/>
<path d="M2080.11 135.66C2080.11 157.873 2074.52 178.387 2063.35 197.2C2052.4 215.787 2037.47 230.633 2018.54 241.74C1999.84 252.62 1979.43 258.06 1957.31 258.06V272C1982.17 272 2004.97 265.88 2025.72 253.64C2046.7 241.4 2063.35 224.853 2075.66 204C2087.97 183.147 2094.13 160.367 2094.13 135.66C2094.13 110.953 2087.97 88.2867 2075.66 67.66C2063.35 46.8067 2046.7 30.3733 2025.72 18.36C2004.97 6.12 1982.17 0 1957.31 0V13.94C1979.43 13.94 1999.84 19.38 2018.54 30.26C2037.47 41.14 2052.4 55.9867 2063.35 74.8C2074.52 93.3867 2080.11 113.673 2080.11 135.66ZM1813.65 136.34C1813.65 161.047 1819.81 183.827 1832.12 204.68C1844.44 225.307 1860.97 241.74 1881.72 253.98C1902.7 265.993 1925.62 272 1950.47 272V258.06C1928.13 258.06 1907.49 252.62 1888.56 241.74C1869.86 230.86 1854.93 216.127 1843.75 197.54C1832.81 178.727 1827.34 158.327 1827.34 136.34C1827.34 114.127 1832.81 93.7267 1843.75 75.14C1854.93 56.3267 1869.86 41.48 1888.56 30.6C1907.49 19.4933 1928.13 13.94 1950.47 13.94V0C1925.62 0 1902.7 6.12 1881.72 18.36C1860.97 30.6 1844.44 47.1467 1832.12 68C1819.81 88.8533 1813.65 111.633 1813.65 136.34Z" fill="#F3F3F3"/>
<path d="M2175.52 0L2189.2 3.06L2124.56 272L2111.22 268.26L2175.52 0ZM2260.69 272L2274.37 268.26L2209.73 0L2196.39 3.06L2260.69 272ZM2344.83 0L2358.51 3.06L2294.21 272L2280.53 268.26L2344.83 0ZM2429.66 272L2443 268.26L2378.7 0L2365.01 3.06L2429.66 272Z" fill="#F3F3F3"/>
<rect x="1626" y="249" width="23" height="23" fill="#F3F3F3"/>
</svg>
