<svg width="569" height="557" viewBox="0 0 569 557" fill="none" xmlns="http://www.w3.org/2000/svg">
<rect width="569" height="557" rx="26" fill="#AED9F4"/>
<path d="M161.595 341H148.639L148.639 230.404H161.595L161.595 341ZM220.082 342.58C212.92 342.58 206.337 340.842 200.333 337.366C194.435 333.785 189.747 328.992 186.272 322.989C182.796 316.985 181.058 310.349 181.058 303.082C181.058 295.814 182.796 289.178 186.272 283.174C189.747 277.171 194.435 272.431 200.333 268.955C206.337 265.374 212.92 263.583 220.082 263.583C227.245 263.583 233.775 265.374 239.674 268.955C245.677 272.431 250.417 277.171 253.893 283.174C257.369 289.178 259.107 295.814 259.107 303.082C259.107 310.349 257.369 316.985 253.893 322.989C250.417 328.992 245.677 333.785 239.674 337.366C233.775 340.842 227.245 342.58 220.082 342.58ZM220.082 330.256C224.822 330.256 229.193 329.098 233.196 326.781C237.198 324.358 240.358 321.093 242.675 316.985C244.993 312.772 246.151 308.137 246.151 303.082C246.151 298.026 244.993 293.444 242.675 289.336C240.358 285.123 237.198 281.858 233.196 279.54C229.193 277.118 224.822 275.907 220.082 275.907C215.342 275.907 210.971 277.118 206.969 279.54C202.966 281.858 199.806 285.123 197.489 289.336C195.172 293.444 194.013 298.026 194.013 303.082C194.013 308.137 195.172 312.772 197.489 316.985C199.806 321.093 202.966 324.358 206.969 326.781C210.971 329.098 215.342 330.256 220.082 330.256ZM312.521 341H298.302L267.967 265.163H282.028L305.569 325.675H305.885L329.426 265.163H342.856L312.521 341ZM390.412 342.58C383.355 342.58 376.877 340.842 370.979 337.366C365.08 333.785 360.393 328.992 356.917 322.989C353.441 316.985 351.703 310.349 351.703 303.082C351.703 295.708 353.389 289.02 356.759 283.016C360.235 277.013 364.87 272.273 370.663 268.797C376.456 265.321 382.776 263.583 389.622 263.583C396.363 263.583 402.525 265.216 408.107 268.481C413.69 271.746 418.061 276.275 421.221 282.068C424.381 287.756 425.96 294.234 425.96 301.502C425.96 303.187 425.802 305.293 425.486 307.821H365.133C365.975 314.141 368.819 319.46 373.665 323.779C378.51 328.097 384.303 330.256 391.044 330.256C399.365 330.256 406.791 326.781 413.321 319.829L422.011 327.887C418.956 331.889 414.69 335.365 409.213 338.314C403.841 341.158 397.574 342.58 390.412 342.58ZM412.689 297.078C411.636 290.442 409.055 285.176 404.947 281.278C400.945 277.381 395.836 275.433 389.622 275.433C383.197 275.433 377.772 277.487 373.349 281.594C368.925 285.597 366.133 290.758 364.975 297.078H412.689Z" fill="#11112B"/>
</svg>
