<svg width="2845" height="557" viewBox="0 0 2845 557" fill="none" xmlns="http://www.w3.org/2000/svg">
<path d="M164 41L153 96" stroke="#11112B" stroke-width="12"/>
<path d="M183 41L194 96" stroke="#11112B" stroke-width="12"/>
<path d="M157 115H193.5" stroke="#11112B" stroke-width="12"/>
<path d="M377 115H413.5" stroke="#11112B" stroke-width="12"/>
<path d="M377 63H413.5" stroke="#11112B" stroke-width="12"/>
<path d="M368 71L368 107.5" stroke="#11112B" stroke-width="12"/>
<path d="M422 71L422 107.5" stroke="#11112B" stroke-width="12"/>
<path d="M158.513 125.549L125.917 285.951" stroke="#11112B" stroke-width="12"/>
<path d="M378.513 125.549L345.917 285.951" stroke="#11112B" stroke-width="12"/>
<path d="M190.917 125.549L223.513 285.951" stroke="#11112B" stroke-width="12"/>
<path d="M410.917 125.549L443.513 285.951" stroke="#11112B" stroke-width="12"/>
<path d="M175.5 127V307.5" stroke="#11112B" stroke-width="12"/>
<path d="M395.5 127V307.5" stroke="#11112B" stroke-width="12"/>
<path d="M168 314L122 517" stroke="#11112B" stroke-width="12"/>
<path d="M388 314L342 517" stroke="#11112B" stroke-width="12"/>
<path d="M182 314L228 517" stroke="#11112B" stroke-width="12"/>
<path d="M402 314L448 517" stroke="#11112B" stroke-width="12"/>
<path d="M750 41L739 96" stroke="#11112B" stroke-width="12"/>
<path d="M769 41L780 96" stroke="#11112B" stroke-width="12"/>
<path d="M743 115H779.5" stroke="#11112B" stroke-width="12"/>
<path d="M928 115H964.5" stroke="#11112B" stroke-width="12"/>
<path d="M928 63H964.5" stroke="#11112B" stroke-width="12"/>
<path d="M919 71L919 107.5" stroke="#11112B" stroke-width="12"/>
<path d="M973 71L973 107.5" stroke="#11112B" stroke-width="12"/>
<path d="M744.513 125.549L711.917 285.951" stroke="#11112B" stroke-width="12"/>
<path d="M929.513 125.549L896.917 285.951" stroke="#11112B" stroke-width="12"/>
<path d="M776.917 125.549L809.513 285.951" stroke="#11112B" stroke-width="12"/>
<path d="M961.917 125.549L994.513 285.951" stroke="#11112B" stroke-width="12"/>
<path d="M761.5 127V307.5" stroke="#11112B" stroke-width="12"/>
<path d="M946.5 127V307.5" stroke="#11112B" stroke-width="12"/>
<path d="M754 314L708 517" stroke="#11112B" stroke-width="12"/>
<path d="M939 314L893 517" stroke="#11112B" stroke-width="12"/>
<path d="M768 314L814 517" stroke="#11112B" stroke-width="12"/>
<path d="M953 314L999 517" stroke="#11112B" stroke-width="12"/>
<path d="M1319 41L1308 96" stroke="#11112B" stroke-width="12"/>
<path d="M1338 41L1349 96" stroke="#11112B" stroke-width="12"/>
<path d="M1312 115H1348.5" stroke="#11112B" stroke-width="12"/>
<path d="M1497 115H1533.5" stroke="#11112B" stroke-width="12"/>
<path d="M1497 63H1533.5" stroke="#11112B" stroke-width="12"/>
<path d="M1488 71L1488 107.5" stroke="#11112B" stroke-width="12"/>
<path d="M1542 71L1542 107.5" stroke="#11112B" stroke-width="12"/>
<path d="M1313.51 125.549L1280.92 285.951" stroke="#11112B" stroke-width="12"/>
<path d="M1502 132.5L1429 279" stroke="#11112B" stroke-width="12"/>
<path d="M1344 132.5L1417 279" stroke="#11112B" stroke-width="12"/>
<path d="M1530.92 125.549L1563.51 285.951" stroke="#11112B" stroke-width="12"/>
<path d="M1330.5 127V307.5" stroke="#11112B" stroke-width="12"/>
<path d="M1515.5 127V307.5" stroke="#11112B" stroke-width="12"/>
<path d="M1323 314L1277 517" stroke="#11112B" stroke-width="12"/>
<path d="M1508 314L1462 517" stroke="#11112B" stroke-width="12"/>
<path d="M1337 314L1383 517" stroke="#11112B" stroke-width="12"/>
<path d="M1522 314L1568 517" stroke="#11112B" stroke-width="12"/>
<path d="M1888 41L1877 96" stroke="#11112B" stroke-width="12"/>
<path d="M1907 41L1918 96" stroke="#11112B" stroke-width="12"/>
<path d="M1881 115H1917.5" stroke="#11112B" stroke-width="12"/>
<path d="M2066 115H2102.5" stroke="#11112B" stroke-width="12"/>
<path d="M2066 63H2102.5" stroke="#11112B" stroke-width="12"/>
<path d="M2057 71L2057 107.5" stroke="#11112B" stroke-width="12"/>
<path d="M2111 71L2111 107.5" stroke="#11112B" stroke-width="12"/>
<path d="M1882.51 125.549L1849.92 285.951" stroke="#11112B" stroke-width="12"/>
<path d="M2071 132.5L1998 279" stroke="#11112B" stroke-width="12"/>
<path d="M1913 132.5L1986 279" stroke="#11112B" stroke-width="12"/>
<path d="M2099.92 125.549L2132.51 285.951" stroke="#11112B" stroke-width="12"/>
<path d="M1899.5 127V307.5" stroke="#11112B" stroke-width="12"/>
<path d="M2084.5 127V307.5" stroke="#11112B" stroke-width="12"/>
<path d="M1892 314L1846 517" stroke="#11112B" stroke-width="12"/>
<path d="M2077.39 315.95L1997 507.945" stroke="#11112B" stroke-width="12"/>
<path d="M1907 313.845L1982.7 507.74" stroke="#11112B" stroke-width="12"/>
<path d="M2091 314L2137 517" stroke="#11112B" stroke-width="12"/>
<path d="M2497.06 43.5L2460.04 85.6314" stroke="#11112B" stroke-width="12"/>
<path d="M2513.52 53L2495.54 106.131" stroke="#11112B" stroke-width="12"/>
<path d="M2454 104.086L2485.61 122.336" stroke="#11112B" stroke-width="12"/>
<path d="M2636.79 122.81L2668.4 104.56" stroke="#11112B" stroke-width="12"/>
<path d="M2610.79 77.7764L2642.4 59.5264" stroke="#11112B" stroke-width="12"/>
<path d="M2607 89.2046L2625.25 120.815" stroke="#11112B" stroke-width="12"/>
<path d="M2653.77 62.2046L2672.02 93.8145" stroke="#11112B" stroke-width="12"/>
<path d="M2451.51 127.842L2418.92 288.244" stroke="#11112B" stroke-width="12"/>
<path d="M2640 134.793L2567 281.293" stroke="#11112B" stroke-width="12"/>
<path d="M2482 134.793L2555 281.293" stroke="#11112B" stroke-width="12"/>
<path d="M2668.92 127.842L2701.51 288.244" stroke="#11112B" stroke-width="12"/>
<path d="M2468.5 129.293V309.793" stroke="#11112B" stroke-width="12"/>
<path d="M2653.5 129.293V309.793" stroke="#11112B" stroke-width="12"/>
<path d="M2461 316.293L2415 519.293" stroke="#11112B" stroke-width="12"/>
<path d="M2646.39 318.243L2566 510.238" stroke="#11112B" stroke-width="12"/>
<path d="M2476 316.138L2551.7 510.033" stroke="#11112B" stroke-width="12"/>
<path d="M2660 316.293L2706 519.293" stroke="#11112B" stroke-width="12"/>
</svg>
