<svg width="1253" height="2058" viewBox="0 0 1253 2058" fill="none" xmlns="http://www.w3.org/2000/svg">
<path d="M827 0H704L423 568L547 708L203 987V1298L2 1295V1512V1712L769 1692V1417L896 1307L898 1153V972L897 934L898 896L575 548L827 0Z" fill="#F3F3F3"/>
<path d="M866 1687L7 1684L4 1705L865 2058V1977V1896L866 1758V1687Z" fill="#F3F3F3"/>
<path d="M1253 1307V1480V1691H765V1411L885 1308L1253 1307Z" fill="#F3F3F3"/>
<path d="M1253 0L822 1L560 550L888 883L1253 473V0Z" fill="#F3F3F3"/>
<path d="M2 992V566L419 563L547 705L196 989L2 992Z" fill="#F3F3F3"/>
<path d="M421 562L707 0H2V562H207H421Z" fill="#F3F3F3"/>
<path d="M421 562L707 0H2V562H207H421Z" fill="#F3F3F3"/>
<path d="M1247 1476V1313H892L765 1409V1685H1247V1565" stroke="#E84A0F" stroke-width="12"/>
<path d="M15 1685H8M859 1896V2049L8 1710V1685M8 1685H781" stroke="#E84A0F" stroke-width="12"/>
<path d="M8 6H658H699L418 567H8V6Z" stroke="#E84A0F" stroke-width="12"/>
<path d="M1247 355V471L892 886L566 542L830 6H1247V164" stroke="#E84A0F" stroke-width="12"/>
<path d="M6 1395.5V1299.5H206V985L545.5 706.5L418 567L699 6H829.5" stroke="#E84A0F" stroke-width="12"/>
<circle cx="347" cy="333" r="85.5" stroke="#E84A0F" stroke-width="5"/>
<circle cx="425.5" cy="231.5" r="22" stroke="#E84A0F" stroke-width="5"/>
<path d="M1066.01 272.113C1070.85 326.298 1031.29 373.598 977.104 378.429C922.919 383.261 874.623 343.794 869.792 289.609C864.961 235.424 905.424 187.039 959.609 182.208" stroke="#E84A0F" stroke-width="5"/>
<circle cx="920.5" cy="50.5" r="22" stroke="#E84A0F" stroke-width="5"/>
<circle cx="316.5" cy="465.5" r="22" stroke="#E84A0F" stroke-width="5"/>
<circle cx="761.5" cy="587.5" r="60" stroke="#E84A0F" stroke-width="5"/>
<circle cx="761" cy="588" r="41.5" stroke="#E84A0F" stroke-width="5"/>
<circle cx="1181.5" cy="50.5" r="22" stroke="#E84A0F" stroke-width="5"/>
<path d="M58 184L9 140" stroke="#E84A0F" stroke-width="5"/>
<path d="M89 184L132 141" stroke="#E84A0F" stroke-width="5"/>
<circle cx="322.5" cy="1434.5" r="22" stroke="#E84A0F" stroke-width="5"/>
<path d="M90 214L131.5 258" stroke="#E84A0F" stroke-width="5"/>
<path d="M9 259L57 214" stroke="#E84A0F" stroke-width="5"/>
<circle cx="506" cy="1011" r="53.5" stroke="#E84A0F" stroke-width="5"/>
<path d="M20 96L44 96" stroke="#E84A0F" stroke-width="5"/>
<rect x="4" y="563" width="303" height="128" transform="rotate(-90 4 563)" stroke="#E84A0F" stroke-width="4"/>
<circle cx="55" cy="601" r="22.5" stroke="#E84A0F" stroke-width="5"/>
<path d="M30 534L30 447" stroke="#E84A0F" stroke-width="5"/>
<path d="M49 534L49 447" stroke="#E84A0F" stroke-width="5"/>
<path d="M68 534L68 447" stroke="#E84A0F" stroke-width="5"/>
<path d="M85 534L85 447" stroke="#E84A0F" stroke-width="5"/>
<path d="M101 534L101 447" stroke="#E84A0F" stroke-width="5"/>
<rect x="32" y="419" width="62" height="71" transform="rotate(-90 32 419)" stroke="#E84A0F" stroke-width="4"/>
<rect x="32" y="340" width="62" height="71" transform="rotate(-90 32 340)" stroke="#E84A0F" stroke-width="4"/>
<rect x="11" y="143" width="89" height="121" transform="rotate(-90 11 143)" stroke="#E84A0F" stroke-width="4"/>
<rect x="11" y="54" width="46" height="279" transform="rotate(-90 11 54)" stroke="#E84A0F" stroke-width="4"/>
<rect x="21" y="135" width="76" height="101" transform="rotate(-90 21 135)" stroke="#E84A0F" stroke-width="4"/>
<rect x="10" y="260" width="117" height="122" transform="rotate(-90 10 260)" stroke="#E84A0F" stroke-width="4"/>
<circle cx="73.5" cy="199.5" r="20.5" transform="rotate(-90 73.5 199.5)" stroke="#E84A0F" stroke-width="4"/>
<ellipse cx="72.5" cy="199" rx="8" ry="8.5" transform="rotate(-90 72.5 199)" fill="#E84A0F"/>
<rect x="290" y="8" width="117" height="120" stroke="#E84A0F" stroke-width="4"/>
<rect x="314" y="42" width="67" height="24" stroke="#E84A0F" stroke-width="4"/>
<path d="M289 52H313" stroke="#E84A0F" stroke-width="5"/>
<path d="M381 51H405" stroke="#E84A0F" stroke-width="5"/>
<path d="M407 51H677" stroke="#E84A0F" stroke-width="5"/>
<rect x="588.107" y="411.316" width="46" height="414" transform="rotate(-153.406 588.107 411.316)" stroke="#E84A0F" stroke-width="4"/>
<path d="M1214 1331H1170V1351H1214V1331Z" stroke="#E84A0F" stroke-width="4"/>
<path d="M1208 1358H1174C1172.36 1372.67 1172.78 1402 1190 1402C1207.22 1402 1209.35 1372.67 1208 1358Z" stroke="#E84A0F" stroke-width="4"/>
<path d="M950.631 1337.25L790 1463L844.862 1533.08L1005.49 1407.33L950.631 1337.25Z" stroke="#E84A0F" stroke-width="4"/>
<rect x="805.808" y="1464.34" width="181" height="68" rx="34" transform="rotate(-38.056 805.808 1464.34)" stroke="#E84A0F" stroke-width="4"/>
<ellipse cx="955.413" cy="1389.55" rx="5.5" ry="5" transform="rotate(-38.056 955.413 1389.55)" fill="#E84A0F"/>
<path d="M872 1684L771 1684L771 1591C840.076 1591 867.115 1653 872 1684Z" stroke="#E84A0F" stroke-width="4"/>
<path d="M851 1671L782 1671L782 1608C829.19 1608 847.663 1650 851 1671Z" stroke="#E84A0F" stroke-width="4"/>
<ellipse cx="794.5" cy="1623" rx="5" ry="5.5" transform="rotate(-90 794.5 1623)" fill="#E84A0F"/>
<path d="M1103 1676L1103 1657" stroke="#E84A0F" stroke-width="4"/>
<path d="M1083 1668L1126 1668L1126 1639C1108.21 1618.82 1089.92 1630.59 1083 1639L1083 1668Z" stroke="#E84A0F" stroke-width="4"/>
<rect x="1149" y="1682" width="141" height="69" transform="rotate(-180 1149 1682)" stroke="#E84A0F" stroke-width="4"/>
<rect x="1251" y="1682" width="102" height="69" transform="rotate(-180 1251 1682)" stroke="#E84A0F" stroke-width="4"/>
<path d="M423 1379L455.909 1398L448.909 1410.12M363.909 1557.35L355.909 1571.21L323 1552.21L331 1538.35L363.909 1557.35ZM363.909 1557.35L372.909 1541.76M372.909 1541.76L340 1522.76L348.5 1508.04L381.409 1527.04M372.909 1541.76L381.409 1527.04M381.409 1527.04L390.909 1510.58M390.909 1510.58L358 1491.58L366 1477.73L398.909 1496.73M390.909 1510.58L398.909 1496.73M398.909 1496.73L407.409 1482M407.409 1482L374.5 1463L381.5 1450.88L414.409 1469.88M407.409 1482L414.409 1469.88M414.409 1469.88L423.409 1454.29M423.409 1454.29L390.5 1435.29L397.5 1423.17L430.409 1442.17M423.409 1454.29L430.409 1442.17M430.409 1442.17L441.409 1423.11M441.409 1423.11L408.5 1404.11L416 1391.12L448.909 1410.12M441.409 1423.11L448.909 1410.12" stroke="#E84A0F" stroke-width="4"/>
<path d="M711.994 1519.5L434 1359L315.5 1564.25L415.093 1621.75C451.013 1559.53 502.859 1551.21 529.117 1558.25C674.387 1597.23 699.863 1550.12 711.994 1519.5Z" stroke="#E84A0F" stroke-width="4"/>
<path d="M611 982L604.01 929.463" stroke="#E84A0F" stroke-width="4"/>
<path d="M679.371 996.504L617.913 1004.68C612.438 1005.41 607.409 1001.56 606.681 996.087L606.285 993.114C605.557 987.639 609.404 982.61 614.879 981.882L655.521 976.474C660.995 975.746 664.843 970.717 664.115 965.243L659.63 931.54C658.902 926.065 653.873 922.218 648.399 922.946L607.757 928.354C602.282 929.082 597.254 925.235 596.525 919.76L596.129 916.786C595.401 911.312 599.249 906.283 604.723 905.555L666.181 897.377C671.656 896.649 676.685 900.496 677.413 905.971L687.965 985.272C688.693 990.747 684.846 995.775 679.371 996.504Z" stroke="#E84A0F" stroke-width="4"/>
<path d="M399 1079L447.386 1100.63" stroke="#E84A0F" stroke-width="4"/>
<path d="M350.616 1129.73L375.919 1073.13C378.173 1068.09 384.087 1065.83 389.129 1068.08L391.868 1069.31C396.91 1071.56 399.17 1077.47 396.916 1082.52L380.184 1119.95C377.93 1124.99 380.19 1130.9 385.232 1133.16L416.272 1147.03C421.314 1149.29 427.229 1147.03 429.483 1141.98L446.215 1104.55C448.469 1099.51 454.383 1097.25 459.425 1099.51L462.164 1100.73C467.206 1102.98 469.466 1108.9 467.212 1113.94L441.91 1170.54C439.656 1175.58 433.741 1177.84 428.699 1175.59L355.665 1142.94C350.623 1140.69 348.362 1134.77 350.616 1129.73Z" stroke="#E84A0F" stroke-width="4"/>
<path d="M82 863L130.386 884.63" stroke="#E84A0F" stroke-width="4"/>
<path d="M33.6164 913.731L58.9189 857.129C61.1728 852.087 67.0873 849.827 72.1293 852.081L74.8682 853.305C79.9101 855.559 82.1703 861.474 79.9164 866.516L63.1841 903.946C60.9302 908.988 63.1904 914.903 68.2324 917.157L99.2722 931.032C104.314 933.286 110.229 931.026 112.483 925.984L129.215 888.553C131.469 883.511 137.383 881.251 142.425 883.505L145.164 884.73C150.206 886.983 152.466 892.898 150.212 897.94L124.91 954.542C122.656 959.584 116.741 961.844 111.699 959.59L38.6647 926.942C33.6227 924.688 31.3625 918.773 33.6164 913.731Z" stroke="#E84A0F" stroke-width="4"/>
<path d="M735 1896L784.256 1915.57" stroke="#E84A0F" stroke-width="4"/>
<path d="M689.418 1948.91L712.308 1891.29C714.347 1886.16 720.161 1883.65 725.294 1885.69L728.082 1886.8C733.214 1888.84 735.722 1894.65 733.683 1899.78L718.546 1937.89C716.507 1943.02 719.015 1948.83 724.148 1950.87L755.746 1963.43C760.879 1965.47 766.692 1962.96 768.731 1957.82L783.868 1919.72C785.907 1914.59 791.721 1912.08 796.854 1914.12L799.642 1915.23C804.774 1917.27 807.282 1923.08 805.243 1928.21L782.353 1985.83C780.315 1990.97 774.501 1993.47 769.368 1991.43L695.02 1961.9C689.887 1959.86 687.379 1954.05 689.418 1948.91Z" stroke="#E84A0F" stroke-width="4"/>
<path d="M392.904 901.961L428 943" stroke="#E84A0F" stroke-width="4"/>
<path d="M470 908L429.721 942.447" stroke="#E84A0F" stroke-width="4"/>
<path d="M432 940L391.721 974.447" stroke="#E84A0F" stroke-width="4"/>
<path d="M361.707 899.676L430.105 841.181C434.303 837.591 440.615 838.084 444.205 842.281L484.501 889.4C488.091 893.597 487.598 899.91 483.401 903.499L481.121 905.449C476.923 909.039 470.611 908.546 467.021 904.349L440.374 873.19C436.784 868.992 430.472 868.5 426.275 872.089L392.835 900.687" stroke="#E84A0F" stroke-width="4"/>
<path d="M399.705 867.681L331.306 926.176C327.109 929.766 326.616 936.078 330.206 940.276L370.502 987.395C374.092 991.592 380.404 992.084 384.602 988.495L386.882 986.545C391.079 982.956 391.571 976.643 387.982 972.446L361.334 941.287C357.745 937.089 358.237 930.777 362.435 927.187L395.874 898.59" stroke="#E84A0F" stroke-width="4"/>
<path d="M890.836 726.925L888 673" stroke="#E84A0F" stroke-width="4"/>
<path d="M833 676L885.927 673.216" stroke="#E84A0F" stroke-width="4"/>
<path d="M883 673L935.927 670.216" stroke="#E84A0F" stroke-width="4"/>
<path d="M914.169 747.634L824.293 752.362C818.778 752.652 814.072 748.416 813.782 742.901L810.525 680.986C810.235 675.471 814.471 670.765 819.986 670.475L822.982 670.317C828.497 670.027 833.203 674.263 833.494 679.778L835.647 720.721C835.937 726.237 840.643 730.473 846.159 730.182L890.098 727.871" stroke="#E84A0F" stroke-width="4"/>
<path d="M864.307 749.887L954.183 745.159C959.698 744.869 963.934 740.163 963.644 734.648L960.387 672.734C960.097 667.218 955.391 662.983 949.876 663.273L946.88 663.43C941.365 663.72 937.129 668.426 937.419 673.942L939.573 714.885C939.863 720.4 935.627 725.106 930.112 725.397L886.172 727.708" stroke="#E84A0F" stroke-width="4"/>
<rect x="10" y="1580" width="223" height="103" stroke="#E84A0F" stroke-width="4"/>
<path d="M167 1579V1683" stroke="#E84A0F" stroke-width="4"/>
<path d="M181 1579V1684" stroke="#E84A0F" stroke-width="4"/>
<rect x="731.934" y="719.828" width="75" height="75" transform="rotate(46.3432 731.934 719.828)" stroke="#E84A0F" stroke-width="4"/>
<rect x="783.934" y="773.828" width="75" height="75" transform="rotate(46.3432 783.934 773.828)" stroke="#E84A0F" stroke-width="4"/>
<rect x="835.934" y="828.828" width="75" height="75" transform="rotate(46.3432 835.934 828.828)" stroke="#E84A0F" stroke-width="4"/>
<rect x="811.317" y="217.898" width="75" height="75" transform="rotate(116.465 811.317 217.898)" stroke="#E84A0F" stroke-width="4"/>
<rect x="778.318" y="284.899" width="75" height="75" transform="rotate(116.465 778.318 284.899)" stroke="#E84A0F" stroke-width="4"/>
<rect x="744.318" y="351.899" width="75" height="75" transform="rotate(116.465 744.318 351.899)" stroke="#E84A0F" stroke-width="4"/>
<rect x="744.317" y="351.898" width="75" height="75" transform="rotate(116.465 744.317 351.898)" stroke="#E84A0F" stroke-width="4"/>
<rect x="711.318" y="418.899" width="75" height="75" transform="rotate(116.465 711.318 418.899)" stroke="#E84A0F" stroke-width="4"/>
<rect x="677.318" y="485.899" width="75" height="75" transform="rotate(116.465 677.318 485.899)" stroke="#E84A0F" stroke-width="4"/>
<rect x="890.247" y="1311.3" width="79.9674" height="75" transform="rotate(142.704 890.247 1311.3)" stroke="#E84A0F" stroke-width="4"/>
<path d="M826.936 1359.3L763.148 1407.88L717.832 1348.39L781.621 1299.8L826.936 1359.3Z" stroke="#E84A0F" stroke-width="4"/>
<path d="M577 1727H800" stroke="#E84A0F" stroke-width="4"/>
<path d="M594 1707L619 1755" stroke="#E84A0F" stroke-width="4"/>
<path d="M630 1704L623.811 1757.7" stroke="#E84A0F" stroke-width="4"/>
<path d="M779 1704L772.811 1757.7" stroke="#E84A0F" stroke-width="4"/>
<path d="M648 1704L653.747 1757.77" stroke="#E84A0F" stroke-width="4"/>
<path d="M710 1711L673.789 1751.16" stroke="#E84A0F" stroke-width="4"/>
<path d="M737 1707L760.882 1755.56" stroke="#E84A0F" stroke-width="4"/>
<path d="M722 1707L745.882 1755.56" stroke="#E84A0F" stroke-width="4"/>
<path d="M697 1704L695.639 1758.05" stroke="#E84A0F" stroke-width="4"/>
<path d="M298 563L298 640L165 640L165 563L298 563Z" stroke="#E84A0F" stroke-width="4"/>
<path d="M492 645L511 665.001L249.707 878.12L232.624 857.212L492 645Z" stroke="#E84A0F" stroke-width="4"/>
<path d="M293.302 842.086L330 887L286.635 922.432L249.937 877.518L293.302 842.086Z" stroke="#E84A0F" stroke-width="4"/>
<path d="M337.302 807.086L374 852L330.635 887.432L293.937 842.518L337.302 807.086Z" stroke="#E84A0F" stroke-width="4"/>
<path d="M381.302 771.086L418 816L374.635 851.432L337.937 806.518L381.302 771.086Z" stroke="#E84A0F" stroke-width="4"/>
<path d="M425.302 735.086L462 780L418.635 815.432L381.937 770.518L425.302 735.086Z" stroke="#E84A0F" stroke-width="4"/>
<path d="M469.302 699.086L506 744L462.635 779.432L425.937 734.518L469.302 699.086Z" stroke="#E84A0F" stroke-width="4"/>
<path d="M512 664.5L550 709L506.635 744.432L469.937 699.518L512 664.5Z" stroke="#E84A0F" stroke-width="4"/>
<path d="M244 641L244 660L220 660L220 641" stroke="#E84A0F" stroke-width="4"/>
<path d="M205 660L258 660L258 670L205 670L205 660Z" stroke="#E84A0F" stroke-width="4"/>
<path d="M968 219L968 59L1134 59L1134 219" stroke="#E84A0F" stroke-width="4"/>
<path d="M1040 22H988V46H1040V22Z" stroke="#E84A0F" stroke-width="4"/>
<path d="M1114 22H1062V46H1114V22Z" stroke="#E84A0F" stroke-width="4"/>
<path d="M1206 443.999L1064.02 615.959" stroke="#E84A0F" stroke-width="4"/>
<path d="M1211 469.999L1158.07 458.716" stroke="#E84A0F" stroke-width="4"/>
<path d="M1190 499.999L1152.53 461.035" stroke="#E84A0F" stroke-width="4"/>
<path d="M1095 614.999L1057.53 576.035" stroke="#E84A0F" stroke-width="4"/>
<path d="M1179 514L1133.88 484.198" stroke="#E84A0F" stroke-width="4"/>
<path d="M1134 557L1126.09 503.506" stroke="#E84A0F" stroke-width="4"/>
<path d="M1120 581L1067.35 568.496" stroke="#E84A0F" stroke-width="4"/>
<path d="M1130 569L1077.35 556.496" stroke="#E84A0F" stroke-width="4"/>
<path d="M1148 551L1107.19 515.54" stroke="#E84A0F" stroke-width="4"/>
<path d="M1134 232H968V264H1134V232Z" fill="#F3F3F3" stroke="#E84A0F" stroke-width="4"/>
<path d="M1135 9V219H968V9" stroke="#E84A0F" stroke-width="4"/>
<path d="M511 1907L533 1855L284 1760L265 1806" stroke="#E84A0F" stroke-width="4"/>
<path d="M8 1522V1685.5L766.5 1684L764.5 1408.5L894 1311.5C894 1146.5 892 886.5 892 886.5L566.5 542.5L830.5 5" stroke="#E84A0F" stroke-width="12"/>
<path d="M8 632V567H418.5L547 708L203 987H8V804" stroke="#E84A0F" stroke-width="12"/>
</svg>
