<svg width="569" height="557" viewBox="0 0 569 557" fill="none" xmlns="http://www.w3.org/2000/svg">
<rect width="569" height="557" rx="26" fill="#AED9F4"/>
<path d="M105.075 342.58C98.7549 342.58 93.0144 341.211 87.8533 338.472C82.6922 335.628 78.7423 332.416 76.0038 328.834L84.5354 320.461C86.8527 323.094 89.8019 325.464 93.3831 327.571C97.0696 329.677 100.967 330.73 105.075 330.73C109.92 330.73 113.712 329.624 116.45 327.413C119.189 325.201 120.558 322.462 120.558 319.197C120.558 316.353 119.241 314.194 116.608 312.719C113.975 311.139 109.867 309.507 104.285 307.821C99.0182 306.241 94.6997 304.714 91.3292 303.239C87.9586 301.66 85.0621 299.448 82.6395 296.604C80.3223 293.655 79.1636 289.863 79.1636 285.228C79.1636 281.436 80.2696 277.908 82.4815 274.643C84.6934 271.272 87.8006 268.586 91.8031 266.585C95.911 264.584 100.598 263.583 105.865 263.583C111.552 263.583 116.555 264.636 120.874 266.743C125.298 268.85 128.879 271.325 131.618 274.169L123.086 282.542C121.085 280.646 118.609 279.014 115.66 277.645C112.711 276.17 109.446 275.433 105.865 275.433C101.546 275.433 98.1755 276.381 95.753 278.276C93.3304 280.172 92.1191 282.49 92.1191 285.228C92.1191 287.967 93.3831 290.073 95.911 291.548C98.5442 293.023 102.599 294.55 108.076 296.13C113.343 297.71 117.661 299.29 121.032 300.87C124.508 302.344 127.457 304.609 129.88 307.663C132.302 310.613 133.513 314.457 133.513 319.197C133.513 323.41 132.355 327.307 130.038 330.888C127.72 334.47 124.403 337.313 120.084 339.42C115.766 341.527 110.762 342.58 105.075 342.58ZM180.329 263.583C186.333 263.583 191.652 264.847 196.286 267.375C200.921 269.903 204.502 273.431 207.03 277.96C209.663 282.384 210.98 287.44 210.98 293.128V341H198.498V329.466H198.34C196.339 332.837 193.021 335.892 188.387 338.63C183.752 341.263 178.538 342.58 172.745 342.58C167.795 342.58 163.371 341.579 159.474 339.578C155.577 337.577 152.522 334.944 150.31 331.678C148.204 328.308 147.15 324.674 147.15 320.777C147.15 314.457 149.257 309.243 153.47 305.135C157.683 300.922 163.582 298.184 171.165 296.92L198.024 292.496V292.18C198.024 287.335 196.339 283.332 192.968 280.172C189.703 277.013 185.49 275.433 180.329 275.433C176.116 275.433 172.324 276.381 168.953 278.276C165.688 280.172 162.634 282.7 159.79 285.86L151.416 277.803C154.787 273.8 158.895 270.429 163.74 267.691C168.585 264.952 174.115 263.583 180.329 263.583ZM174.641 331.204C178.96 331.204 182.91 330.151 186.491 328.045C190.072 325.938 192.863 323.094 194.864 319.513C196.971 315.826 198.024 311.771 198.024 307.347V303.082L174.325 307.189C169.585 308.032 166.004 309.559 163.582 311.771C161.264 313.983 160.106 316.616 160.106 319.671C160.106 322.831 161.422 325.569 164.056 327.887C166.794 330.098 170.323 331.204 174.641 331.204ZM239.867 341L239.867 277.487H225.489V265.163H239.867V252.524C239.867 244.834 241.763 238.989 245.554 234.986C249.452 230.878 254.929 228.824 261.986 228.824C264.198 228.824 266.304 229.088 268.306 229.614C270.412 230.036 272.097 230.562 273.361 231.194V243.518C270.201 241.938 267.147 241.148 264.198 241.148C260.617 241.148 257.825 242.201 255.824 244.308C253.823 246.414 252.822 249.522 252.822 253.629V265.163H271.307V277.487H252.822L252.822 341H239.867ZM319.629 342.58C312.572 342.58 306.094 340.842 300.196 337.366C294.297 333.785 289.61 328.992 286.134 322.989C282.658 316.985 280.92 310.349 280.92 303.082C280.92 295.708 282.606 289.02 285.976 283.016C289.452 277.013 294.087 272.273 299.88 268.797C305.673 265.321 311.992 263.583 318.839 263.583C325.58 263.583 331.742 265.216 337.324 268.481C342.907 271.746 347.278 276.275 350.438 282.068C353.598 287.756 355.177 294.234 355.177 301.502C355.177 303.187 355.019 305.293 354.703 307.821H294.35C295.192 314.141 298.036 319.46 302.882 323.779C307.727 328.097 313.52 330.256 320.261 330.256C328.582 330.256 336.008 326.781 342.538 319.829L351.228 327.887C348.173 331.889 343.907 335.365 338.43 338.314C333.058 341.158 326.791 342.58 319.629 342.58ZM341.906 297.078C340.853 290.442 338.272 285.176 334.164 281.278C330.162 277.381 325.053 275.433 318.839 275.433C312.414 275.433 306.989 277.487 302.566 281.594C298.142 285.597 295.35 290.758 294.192 297.078H341.906ZM402.063 341.79C395.006 341.79 389.529 339.789 385.632 335.786C381.84 331.678 379.944 325.78 379.944 318.091V277.487H365.567V265.163H374.73C379.154 265.163 381.366 262.53 381.366 257.263V239.884H392.9V265.163H411.385V277.487H392.9V316.985C392.9 321.093 393.9 324.2 395.902 326.307C397.903 328.413 400.694 329.466 404.275 329.466C407.224 329.466 410.279 328.676 413.439 327.097V339.42C412.175 340.052 410.49 340.579 408.383 341C406.382 341.527 404.275 341.79 402.063 341.79ZM481.285 265.163H494.714L462.8 351.586C460.061 359.169 456.585 364.804 452.372 368.491C448.159 372.283 443.05 374.179 437.047 374.179C435.045 374.179 433.097 373.968 431.201 373.547C429.305 373.125 427.83 372.651 426.777 372.125L426.777 359.643C427.725 360.275 428.936 360.802 430.411 361.223C431.991 361.75 433.676 362.013 435.467 362.013C438.627 362.013 441.365 361.065 443.682 359.169C446.105 357.273 448.001 354.535 449.37 350.954L453.32 340.842L419.825 265.163H433.887L460.114 325.517H460.43L481.285 265.163Z" fill="#11112B"/>
</svg>
