<svg width="695" height="895" viewBox="0 0 695 895" fill="none" xmlns="http://www.w3.org/2000/svg">
<path d="M695 0H270.5L3.5 541L330 883L695 472.5V0Z" fill="#F3F3F3"/>
<path d="M689 355V471L334 886L8 542L272 6H689V164" stroke="#E84A0F" stroke-width="12"/>
<path d="M267.628 389.7C264.828 389.7 262.285 389.093 259.998 387.88C257.711 386.62 255.961 385.197 254.748 383.61L258.528 379.9C259.555 381.067 260.861 382.117 262.448 383.05C264.081 383.983 265.808 384.45 267.628 384.45C269.775 384.45 271.455 383.96 272.668 382.98C273.881 382 274.488 380.787 274.488 379.34C274.488 378.08 273.905 377.123 272.738 376.47C271.571 375.77 269.751 375.047 267.278 374.3C264.945 373.6 263.031 372.923 261.538 372.27C260.045 371.57 258.761 370.59 257.688 369.33C256.661 368.023 256.148 366.343 256.148 364.29C256.148 362.61 256.638 361.047 257.618 359.6C258.598 358.107 259.975 356.917 261.748 356.03C263.568 355.143 265.645 354.7 267.978 354.7C270.498 354.7 272.715 355.167 274.628 356.1C276.588 357.033 278.175 358.13 279.388 359.39L275.608 363.1C274.721 362.26 273.625 361.537 272.318 360.93C271.011 360.277 269.565 359.95 267.978 359.95C266.065 359.95 264.571 360.37 263.498 361.21C262.425 362.05 261.888 363.077 261.888 364.29C261.888 365.503 262.448 366.437 263.568 367.09C264.735 367.743 266.531 368.42 268.958 369.12C271.291 369.82 273.205 370.52 274.698 371.22C276.238 371.873 277.545 372.877 278.618 374.23C279.691 375.537 280.228 377.24 280.228 379.34C280.228 381.207 279.715 382.933 278.688 384.52C277.661 386.107 276.191 387.367 274.278 388.3C272.365 389.233 270.148 389.7 267.628 389.7ZM294.6 389H288.86V340H294.6V389ZM320.373 389.7C317.246 389.7 314.376 388.93 311.763 387.39C309.15 385.803 307.073 383.68 305.533 381.02C303.993 378.36 303.223 375.42 303.223 372.2C303.223 368.933 303.97 365.97 305.463 363.31C307.003 360.65 309.056 358.55 311.623 357.01C314.19 355.47 316.99 354.7 320.023 354.7C323.01 354.7 325.74 355.423 328.213 356.87C330.686 358.317 332.623 360.323 334.023 362.89C335.423 365.41 336.123 368.28 336.123 371.5C336.123 372.247 336.053 373.18 335.913 374.3H309.173C309.546 377.1 310.806 379.457 312.953 381.37C315.1 383.283 317.666 384.24 320.653 384.24C324.34 384.24 327.63 382.7 330.523 379.62L334.373 383.19C333.02 384.963 331.13 386.503 328.703 387.81C326.323 389.07 323.546 389.7 320.373 389.7ZM330.243 369.54C329.776 366.6 328.633 364.267 326.813 362.54C325.04 360.813 322.776 359.95 320.023 359.95C317.176 359.95 314.773 360.86 312.813 362.68C310.853 364.453 309.616 366.74 309.103 369.54H330.243ZM358.996 389.7C355.869 389.7 352.999 388.93 350.386 387.39C347.773 385.803 345.696 383.68 344.156 381.02C342.616 378.36 341.846 375.42 341.846 372.2C341.846 368.933 342.593 365.97 344.086 363.31C345.626 360.65 347.679 358.55 350.246 357.01C352.813 355.47 355.613 354.7 358.646 354.7C361.633 354.7 364.363 355.423 366.836 356.87C369.309 358.317 371.246 360.323 372.646 362.89C374.046 365.41 374.746 368.28 374.746 371.5C374.746 372.247 374.676 373.18 374.536 374.3H347.796C348.169 377.1 349.429 379.457 351.576 381.37C353.723 383.283 356.289 384.24 359.276 384.24C362.963 384.24 366.253 382.7 369.146 379.62L372.996 383.19C371.643 384.963 369.753 386.503 367.326 387.81C364.946 389.07 362.169 389.7 358.996 389.7ZM368.866 369.54C368.399 366.6 367.256 364.267 365.436 362.54C363.663 360.813 361.399 359.95 358.646 359.95C355.799 359.95 353.396 360.86 351.436 362.68C349.476 364.453 348.239 366.74 347.726 369.54H368.866ZM382.709 403.7V355.4H388.449V360.72H388.519C389.406 359.18 390.922 357.803 393.069 356.59C395.216 355.33 397.666 354.7 400.419 354.7C403.219 354.7 405.809 355.47 408.189 357.01C410.616 358.503 412.552 360.58 413.999 363.24C415.446 365.9 416.169 368.887 416.169 372.2C416.169 375.513 415.446 378.5 413.999 381.16C412.552 383.82 410.616 385.92 408.189 387.46C405.809 388.953 403.219 389.7 400.419 389.7C397.666 389.7 395.216 389.093 393.069 387.88C390.922 386.62 389.406 385.22 388.519 383.68H388.449V403.7H382.709ZM399.509 384.24C401.469 384.24 403.289 383.727 404.969 382.7C406.649 381.627 407.979 380.18 408.959 378.36C409.986 376.54 410.499 374.487 410.499 372.2C410.499 369.913 409.986 367.86 408.959 366.04C407.979 364.22 406.649 362.797 404.969 361.77C403.289 360.697 401.469 360.16 399.509 360.16C397.502 360.16 395.636 360.673 393.909 361.7C392.229 362.727 390.899 364.173 389.919 366.04C388.939 367.86 388.449 369.913 388.449 372.2C388.449 374.487 388.939 376.563 389.919 378.43C390.899 380.25 392.229 381.673 393.909 382.7C395.636 383.727 397.502 384.24 399.509 384.24ZM430.567 389H424.827V355.4H430.567V389ZM427.697 348.54C426.717 348.54 425.853 348.19 425.107 347.49C424.407 346.79 424.057 345.927 424.057 344.9C424.057 343.873 424.407 343.01 425.107 342.31C425.853 341.61 426.717 341.26 427.697 341.26C428.63 341.26 429.447 341.61 430.147 342.31C430.893 343.01 431.267 343.873 431.267 344.9C431.267 345.927 430.893 346.79 430.147 347.49C429.447 348.19 428.63 348.54 427.697 348.54ZM441.43 389V355.4H447.17V360.51H447.24C448.173 359.017 449.596 357.687 451.51 356.52C453.423 355.307 455.593 354.7 458.02 354.7C460.586 354.7 462.873 355.307 464.88 356.52C466.933 357.733 468.52 359.437 469.64 361.63C470.806 363.823 471.39 366.367 471.39 369.26V389H465.72V369.26C465.72 366.553 464.903 364.36 463.27 362.68C461.636 361 459.56 360.16 457.04 360.16C454.24 360.16 451.883 361.14 449.97 363.1C448.103 365.06 447.17 367.557 447.17 370.59V389H441.43ZM495.067 403.7C491.987 403.7 489.093 402.953 486.387 401.46C483.727 400.013 481.813 398.427 480.647 396.7L484.707 392.99C485.593 394.297 486.993 395.487 488.907 396.56C490.867 397.68 492.92 398.24 495.067 398.24C498.333 398.24 500.947 397.143 502.907 394.95C504.913 392.757 505.917 389.91 505.917 386.41V382.49H505.847C504.773 384.123 503.21 385.5 501.157 386.62C499.103 387.74 496.887 388.3 494.507 388.3C491.8 388.3 489.28 387.577 486.947 386.13C484.613 384.683 482.747 382.677 481.347 380.11C479.993 377.543 479.317 374.673 479.317 371.5C479.317 368.327 479.993 365.457 481.347 362.89C482.747 360.323 484.613 358.317 486.947 356.87C489.28 355.423 491.8 354.7 494.507 354.7C497.073 354.7 499.36 355.307 501.367 356.52C503.42 357.733 504.913 359.063 505.847 360.51H505.917V355.4H511.657V386.41C511.657 389.677 510.933 392.617 509.487 395.23C508.087 397.89 506.127 399.967 503.607 401.46C501.087 402.953 498.24 403.7 495.067 403.7ZM495.417 382.84C497.377 382.84 499.15 382.35 500.737 381.37C502.323 380.39 503.583 379.06 504.517 377.38C505.45 375.653 505.917 373.693 505.917 371.5C505.917 369.307 505.45 367.37 504.517 365.69C503.583 363.963 502.323 362.61 500.737 361.63C499.15 360.65 497.377 360.16 495.417 360.16C493.55 360.16 491.823 360.65 490.237 361.63C488.65 362.61 487.39 363.963 486.457 365.69C485.523 367.417 485.057 369.353 485.057 371.5C485.057 373.647 485.523 375.583 486.457 377.31C487.39 379.037 488.65 380.39 490.237 381.37C491.823 382.35 493.55 382.84 495.417 382.84ZM334.739 412.7C337.399 412.7 339.756 413.26 341.809 414.38C343.863 415.5 345.449 417.063 346.569 419.07C347.736 421.03 348.319 423.27 348.319 425.79V447H342.789V441.89H342.719C341.833 443.383 340.363 444.737 338.309 445.95C336.256 447.117 333.946 447.7 331.379 447.7C329.186 447.7 327.226 447.257 325.499 446.37C323.773 445.483 322.419 444.317 321.439 442.87C320.506 441.377 320.039 439.767 320.039 438.04C320.039 435.24 320.973 432.93 322.839 431.11C324.706 429.243 327.319 428.03 330.679 427.47L342.579 425.51V425.37C342.579 423.223 341.833 421.45 340.339 420.05C338.893 418.65 337.026 417.95 334.739 417.95C332.873 417.95 331.193 418.37 329.699 419.21C328.253 420.05 326.899 421.17 325.639 422.57L321.929 419C323.423 417.227 325.243 415.733 327.389 414.52C329.536 413.307 331.986 412.7 334.739 412.7ZM332.219 442.66C334.133 442.66 335.883 442.193 337.469 441.26C339.056 440.327 340.293 439.067 341.179 437.48C342.113 435.847 342.579 434.05 342.579 432.09V430.2L332.079 432.02C329.979 432.393 328.393 433.07 327.319 434.05C326.293 435.03 325.779 436.197 325.779 437.55C325.779 438.95 326.363 440.163 327.529 441.19C328.743 442.17 330.306 442.66 332.219 442.66ZM358.441 447V413.4H364.181V418.3H364.251C365.185 416.853 366.585 415.57 368.451 414.45C370.365 413.283 372.511 412.7 374.891 412.7H376.501V418.65C375.381 418.51 374.611 418.44 374.191 418.44C372.371 418.44 370.691 418.907 369.151 419.84C367.658 420.773 366.445 422.08 365.511 423.76C364.625 425.393 364.181 427.237 364.181 429.29V447H358.441ZM397.346 447.7C394.219 447.7 391.349 446.93 388.736 445.39C386.122 443.803 384.046 441.68 382.506 439.02C380.966 436.36 380.196 433.42 380.196 430.2C380.196 426.933 380.942 423.97 382.436 421.31C383.976 418.65 386.029 416.55 388.596 415.01C391.162 413.47 393.962 412.7 396.996 412.7C399.982 412.7 402.712 413.423 405.186 414.87C407.659 416.317 409.596 418.323 410.996 420.89C412.396 423.41 413.096 426.28 413.096 429.5C413.096 430.247 413.026 431.18 412.886 432.3H386.146C386.519 435.1 387.779 437.457 389.926 439.37C392.072 441.283 394.639 442.24 397.626 442.24C401.312 442.24 404.602 440.7 407.496 437.62L411.346 441.19C409.992 442.963 408.102 444.503 405.676 445.81C403.296 447.07 400.519 447.7 397.346 447.7ZM407.216 427.54C406.749 424.6 405.606 422.267 403.786 420.54C402.012 418.813 399.749 417.95 396.996 417.95C394.149 417.95 391.746 418.86 389.786 420.68C387.826 422.453 386.589 424.74 386.076 427.54H407.216ZM433.519 412.7C436.179 412.7 438.535 413.26 440.589 414.38C442.642 415.5 444.229 417.063 445.349 419.07C446.515 421.03 447.099 423.27 447.099 425.79V447H441.569V441.89H441.499C440.612 443.383 439.142 444.737 437.089 445.95C435.035 447.117 432.725 447.7 430.159 447.7C427.965 447.7 426.005 447.257 424.279 446.37C422.552 445.483 421.199 444.317 420.219 442.87C419.285 441.377 418.819 439.767 418.819 438.04C418.819 435.24 419.752 432.93 421.619 431.11C423.485 429.243 426.099 428.03 429.459 427.47L441.359 425.51V425.37C441.359 423.223 440.612 421.45 439.119 420.05C437.672 418.65 435.805 417.95 433.519 417.95C431.652 417.95 429.972 418.37 428.479 419.21C427.032 420.05 425.679 421.17 424.419 422.57L420.709 419C422.202 417.227 424.022 415.733 426.169 414.52C428.315 413.307 430.765 412.7 433.519 412.7ZM430.999 442.66C432.912 442.66 434.662 442.193 436.249 441.26C437.835 440.327 439.072 439.067 439.959 437.48C440.892 435.847 441.359 434.05 441.359 432.09V430.2L430.859 432.02C428.759 432.393 427.172 433.07 426.099 434.05C425.072 435.03 424.559 436.197 424.559 437.55C424.559 438.95 425.142 440.163 426.309 441.19C427.522 442.17 429.085 442.66 430.999 442.66Z" fill="#11112B"/>
<path d="M469.752 326.816C469.208 327.264 468.488 327.488 467.592 327.488V326.368C468.744 326.315 469.571 325.792 470.072 324.8H471.192V336H469.752V326.816ZM473.484 336C473.484 335.157 473.649 334.427 473.98 333.808C474.31 333.189 474.705 332.677 475.164 332.272C475.633 331.867 476.241 331.413 476.988 330.912C477.542 330.539 477.98 330.224 478.3 329.968C478.62 329.712 478.881 329.424 479.084 329.104C479.297 328.773 479.404 328.405 479.404 328C479.404 327.413 479.201 326.939 478.796 326.576C478.401 326.213 477.857 326.032 477.164 326.032C476.545 326.032 476.044 326.197 475.66 326.528C475.276 326.859 474.998 327.248 474.828 327.696L473.628 327.168C473.745 326.773 473.953 326.384 474.252 326C474.55 325.605 474.945 325.28 475.436 325.024C475.937 324.768 476.513 324.64 477.164 324.64C477.878 324.64 478.513 324.789 479.068 325.088C479.633 325.387 480.07 325.792 480.38 326.304C480.689 326.816 480.844 327.381 480.844 328C480.844 328.597 480.71 329.125 480.444 329.584C480.177 330.043 479.846 330.437 479.452 330.768C479.068 331.088 478.55 331.467 477.9 331.904C477.132 332.427 476.534 332.88 476.108 333.264C475.681 333.637 475.366 334.085 475.164 334.608H480.844V336H473.484ZM485.302 336.16C484.662 336.16 484.081 336.021 483.558 335.744C483.035 335.456 482.635 335.131 482.358 334.768L483.222 333.92C483.457 334.187 483.755 334.427 484.118 334.64C484.491 334.853 484.886 334.96 485.302 334.96C485.793 334.96 486.177 334.848 486.454 334.624C486.731 334.4 486.87 334.123 486.87 333.792C486.87 333.504 486.737 333.285 486.47 333.136C486.203 332.976 485.787 332.811 485.222 332.64C484.689 332.48 484.251 332.325 483.91 332.176C483.569 332.016 483.275 331.792 483.03 331.504C482.795 331.205 482.678 330.821 482.678 330.352C482.678 329.968 482.79 329.611 483.014 329.28C483.238 328.939 483.553 328.667 483.958 328.464C484.374 328.261 484.849 328.16 485.382 328.16C485.958 328.16 486.465 328.267 486.902 328.48C487.35 328.693 487.713 328.944 487.99 329.232L487.126 330.08C486.923 329.888 486.673 329.723 486.374 329.584C486.075 329.435 485.745 329.36 485.382 329.36C484.945 329.36 484.603 329.456 484.358 329.648C484.113 329.84 483.99 330.075 483.99 330.352C483.99 330.629 484.118 330.843 484.374 330.992C484.641 331.141 485.051 331.296 485.606 331.456C486.139 331.616 486.577 331.776 486.918 331.936C487.27 332.085 487.569 332.315 487.814 332.624C488.059 332.923 488.182 333.312 488.182 333.792C488.182 334.219 488.065 334.613 487.83 334.976C487.595 335.339 487.259 335.627 486.822 335.84C486.385 336.053 485.878 336.16 485.302 336.16ZM495.915 339.36V334.784H495.899C495.686 335.136 495.334 335.456 494.843 335.744C494.352 336.021 493.792 336.16 493.163 336.16C492.523 336.16 491.926 335.989 491.371 335.648C490.827 335.296 490.39 334.816 490.059 334.208C489.728 333.6 489.563 332.917 489.563 332.16C489.563 331.403 489.728 330.72 490.059 330.112C490.39 329.504 490.827 329.029 491.371 328.688C491.926 328.336 492.523 328.16 493.163 328.16C493.792 328.16 494.352 328.304 494.843 328.592C495.334 328.869 495.686 329.184 495.899 329.536H495.915V328.32H497.227V339.36H495.915ZM493.387 334.912C493.846 334.912 494.267 334.795 494.651 334.56C495.035 334.315 495.339 333.984 495.563 333.568C495.798 333.152 495.915 332.683 495.915 332.16C495.915 331.637 495.798 331.168 495.563 330.752C495.339 330.336 495.035 330.011 494.651 329.776C494.267 329.531 493.846 329.408 493.387 329.408C492.939 329.408 492.523 329.531 492.139 329.776C491.755 330.011 491.446 330.336 491.211 330.752C490.987 331.168 490.875 331.637 490.875 332.16C490.875 332.683 490.987 333.152 491.211 333.568C491.446 333.984 491.755 334.315 492.139 334.56C492.523 334.795 492.939 334.912 493.387 334.912ZM499.622 336V328.32H500.934V329.456H500.95C501.11 329.125 501.387 328.827 501.782 328.56C502.187 328.293 502.657 328.16 503.19 328.16C503.766 328.16 504.273 328.309 504.71 328.608C505.147 328.896 505.457 329.221 505.638 329.584H505.67C505.841 329.221 506.155 328.896 506.614 328.608C507.083 328.309 507.643 328.16 508.294 328.16C508.806 328.16 509.275 328.299 509.702 328.576C510.139 328.843 510.481 329.227 510.726 329.728C510.982 330.219 511.11 330.789 511.11 331.44V336H509.814V331.44C509.814 330.821 509.643 330.331 509.302 329.968C508.961 329.595 508.534 329.408 508.022 329.408C507.446 329.408 506.966 329.621 506.582 330.048C506.209 330.464 506.022 331.024 506.022 331.728V336H504.71V331.44C504.71 330.821 504.539 330.331 504.198 329.968C503.857 329.595 503.435 329.408 502.934 329.408C502.358 329.408 501.878 329.621 501.494 330.048C501.121 330.464 500.934 331.024 500.934 331.728V336H499.622Z" fill="#11112B"/>
</svg>
