<svg width="569" height="733" viewBox="0 0 569 733" fill="none" xmlns="http://www.w3.org/2000/svg">
<path d="M568.844 0H221.482L3 442.692L270.17 722.545L568.844 386.639V0Z" fill="#F3F3F3"/>
<path d="M563.934 290.491V385.412L273.443 725L6.68262 443.511L222.71 4.91016H563.934V134.199" stroke="#E84A0F" stroke-width="9.81941"/>
<path d="M219.132 319.154C216.84 319.154 214.759 318.657 212.888 317.665C211.017 316.634 209.585 315.469 208.592 314.171L211.685 311.135C212.525 312.089 213.595 312.949 214.893 313.712C216.229 314.476 217.642 314.858 219.132 314.858C220.888 314.858 222.263 314.457 223.256 313.655C224.249 312.853 224.745 311.86 224.745 310.676C224.745 309.645 224.268 308.863 223.313 308.328C222.358 307.755 220.869 307.163 218.845 306.552C216.936 305.979 215.37 305.426 214.148 304.891C212.926 304.318 211.876 303.516 210.998 302.485C210.158 301.416 209.738 300.041 209.738 298.361C209.738 296.987 210.139 295.707 210.941 294.523C211.743 293.302 212.869 292.328 214.32 291.602C215.809 290.877 217.509 290.514 219.418 290.514C221.48 290.514 223.294 290.896 224.86 291.659C226.463 292.423 227.762 293.321 228.755 294.352L225.662 297.387C224.936 296.7 224.039 296.108 222.969 295.612C221.9 295.077 220.716 294.81 219.418 294.81C217.852 294.81 216.63 295.154 215.752 295.841C214.874 296.528 214.435 297.368 214.435 298.361C214.435 299.354 214.893 300.118 215.809 300.652C216.764 301.187 218.234 301.741 220.22 302.314C222.129 302.886 223.695 303.459 224.917 304.032C226.177 304.567 227.246 305.388 228.125 306.495C229.003 307.564 229.442 308.958 229.442 310.676C229.442 312.204 229.022 313.617 228.182 314.915C227.342 316.213 226.139 317.245 224.573 318.008C223.008 318.772 221.194 319.154 219.132 319.154ZM241.202 318.581H236.505V278.485H241.202V318.581ZM262.292 319.154C259.734 319.154 257.385 318.524 255.247 317.264C253.108 315.965 251.409 314.228 250.149 312.051C248.889 309.875 248.258 307.469 248.258 304.834C248.258 302.161 248.869 299.736 250.091 297.559C251.352 295.383 253.032 293.664 255.132 292.404C257.232 291.144 259.524 290.514 262.006 290.514C264.45 290.514 266.684 291.106 268.707 292.29C270.731 293.473 272.316 295.115 273.462 297.216C274.607 299.278 275.18 301.626 275.18 304.261C275.18 304.872 275.123 305.636 275.008 306.552H253.127C253.433 308.843 254.464 310.772 256.22 312.338C257.977 313.903 260.077 314.686 262.521 314.686C265.538 314.686 268.23 313.426 270.598 310.906L273.748 313.827C272.641 315.278 271.094 316.538 269.108 317.607C267.161 318.638 264.889 319.154 262.292 319.154ZM270.369 302.657C269.987 300.251 269.051 298.342 267.562 296.929C266.111 295.516 264.259 294.81 262.006 294.81C259.676 294.81 257.71 295.555 256.106 297.044C254.502 298.495 253.49 300.366 253.07 302.657H270.369ZM293.897 319.154C291.338 319.154 288.99 318.524 286.851 317.264C284.713 315.965 283.014 314.228 281.753 312.051C280.493 309.875 279.863 307.469 279.863 304.834C279.863 302.161 280.474 299.736 281.696 297.559C282.956 295.383 284.636 293.664 286.737 292.404C288.837 291.144 291.128 290.514 293.61 290.514C296.054 290.514 298.288 291.106 300.312 292.29C302.336 293.473 303.921 295.115 305.066 297.216C306.212 299.278 306.785 301.626 306.785 304.261C306.785 304.872 306.727 305.636 306.613 306.552H284.732C285.037 308.843 286.068 310.772 287.825 312.338C289.582 313.903 291.682 314.686 294.126 314.686C297.143 314.686 299.835 313.426 302.202 310.906L305.353 313.827C304.245 315.278 302.699 316.538 300.713 317.607C298.766 318.638 296.493 319.154 293.897 319.154ZM301.973 302.657C301.591 300.251 300.656 298.342 299.166 296.929C297.715 295.516 295.863 294.81 293.61 294.81C291.281 294.81 289.314 295.555 287.71 297.044C286.107 298.495 285.095 300.366 284.675 302.657H301.973ZM313.301 330.61V291.087H317.998V295.44H318.055C318.781 294.18 320.022 293.053 321.778 292.06C323.535 291.029 325.54 290.514 327.793 290.514C330.084 290.514 332.203 291.144 334.151 292.404C336.136 293.626 337.721 295.325 338.905 297.502C340.089 299.679 340.681 302.123 340.681 304.834C340.681 307.545 340.089 309.989 338.905 312.166C337.721 314.342 336.136 316.061 334.151 317.321C332.203 318.543 330.084 319.154 327.793 319.154C325.54 319.154 323.535 318.657 321.778 317.665C320.022 316.634 318.781 315.488 318.055 314.228H317.998V330.61H313.301ZM327.048 314.686C328.652 314.686 330.141 314.266 331.516 313.426C332.89 312.548 333.979 311.364 334.781 309.875C335.621 308.385 336.041 306.705 336.041 304.834C336.041 302.963 335.621 301.283 334.781 299.793C333.979 298.304 332.89 297.139 331.516 296.299C330.141 295.421 328.652 294.982 327.048 294.982C325.406 294.982 323.878 295.402 322.466 296.242C321.091 297.082 320.002 298.266 319.201 299.793C318.399 301.283 317.998 302.963 317.998 304.834C317.998 306.705 318.399 308.404 319.201 309.932C320.002 311.421 321.091 312.586 322.466 313.426C323.878 314.266 325.406 314.686 327.048 314.686ZM352.462 318.581H347.765V291.087H352.462V318.581ZM350.113 285.473C349.311 285.473 348.605 285.187 347.994 284.614C347.421 284.041 347.135 283.335 347.135 282.495C347.135 281.655 347.421 280.948 347.994 280.375C348.605 279.803 349.311 279.516 350.113 279.516C350.877 279.516 351.545 279.803 352.118 280.375C352.729 280.948 353.035 281.655 353.035 282.495C353.035 283.335 352.729 284.041 352.118 284.614C351.545 285.187 350.877 285.473 350.113 285.473ZM361.351 318.581V291.087H366.048V295.268H366.105C366.869 294.046 368.034 292.958 369.599 292.003C371.165 291.01 372.941 290.514 374.926 290.514C377.027 290.514 378.898 291.01 380.54 292.003C382.22 292.996 383.518 294.39 384.435 296.185C385.389 297.979 385.867 300.061 385.867 302.428V318.581H381.227V302.428C381.227 300.213 380.559 298.419 379.222 297.044C377.886 295.669 376.186 294.982 374.124 294.982C371.833 294.982 369.905 295.784 368.339 297.387C366.812 298.991 366.048 301.034 366.048 303.516V318.581H361.351ZM405.241 330.61C402.721 330.61 400.353 329.999 398.139 328.777C395.962 327.593 394.396 326.295 393.442 324.882L396.764 321.846C397.489 322.915 398.635 323.889 400.201 324.767C401.804 325.684 403.485 326.142 405.241 326.142C407.914 326.142 410.053 325.245 411.657 323.45C413.299 321.655 414.12 319.326 414.12 316.462V313.254H414.062C413.184 314.591 411.905 315.717 410.225 316.634C408.544 317.55 406.731 318.008 404.783 318.008C402.568 318.008 400.506 317.416 398.597 316.233C396.687 315.049 395.16 313.407 394.014 311.307C392.907 309.206 392.353 306.858 392.353 304.261C392.353 301.664 392.907 299.316 394.014 297.216C395.16 295.115 396.687 293.473 398.597 292.29C400.506 291.106 402.568 290.514 404.783 290.514C406.883 290.514 408.754 291.01 410.396 292.003C412.077 292.996 413.299 294.084 414.062 295.268H414.12V291.087H418.817V316.462C418.817 319.135 418.225 321.541 417.041 323.679C415.895 325.856 414.291 327.555 412.229 328.777C410.167 329.999 407.838 330.61 405.241 330.61ZM405.528 313.54C407.131 313.54 408.583 313.139 409.881 312.338C411.179 311.536 412.21 310.447 412.974 309.073C413.738 307.66 414.12 306.056 414.12 304.261C414.12 302.466 413.738 300.882 412.974 299.507C412.21 298.094 411.179 296.987 409.881 296.185C408.583 295.383 407.131 294.982 405.528 294.982C404 294.982 402.587 295.383 401.289 296.185C399.991 296.987 398.96 298.094 398.196 299.507C397.432 300.92 397.05 302.504 397.05 304.261C397.05 306.018 397.432 307.602 398.196 309.015C398.96 310.428 399.991 311.536 401.289 312.338C402.587 313.139 404 313.54 405.528 313.54ZM274.048 338.514C276.225 338.514 278.153 338.972 279.833 339.889C281.513 340.805 282.812 342.084 283.728 343.726C284.683 345.33 285.16 347.163 285.16 349.225V366.581H280.635V362.4H280.578C279.852 363.622 278.649 364.729 276.969 365.722C275.289 366.677 273.399 367.154 271.298 367.154C269.504 367.154 267.9 366.791 266.487 366.066C265.074 365.34 263.967 364.385 263.165 363.202C262.401 361.98 262.019 360.662 262.019 359.249C262.019 356.958 262.783 355.068 264.31 353.579C265.838 352.051 267.976 351.058 270.726 350.6L280.463 348.996V348.882C280.463 347.125 279.852 345.674 278.63 344.528C277.446 343.383 275.919 342.81 274.048 342.81C272.52 342.81 271.146 343.154 269.924 343.841C268.74 344.528 267.633 345.445 266.601 346.59L263.566 343.669C264.788 342.218 266.277 340.996 268.033 340.003C269.79 339.01 271.795 338.514 274.048 338.514ZM271.986 363.03C273.551 363.03 274.983 362.648 276.282 361.884C277.58 361.12 278.592 360.089 279.318 358.791C280.081 357.454 280.463 355.984 280.463 354.38V352.834L271.871 354.323C270.153 354.629 268.854 355.182 267.976 355.984C267.136 356.786 266.716 357.741 266.716 358.848C266.716 359.994 267.193 360.987 268.148 361.827C269.141 362.629 270.42 363.03 271.986 363.03ZM293.443 366.581V339.087H298.14V343.096H298.197C298.961 341.913 300.107 340.862 301.634 339.946C303.2 338.991 304.956 338.514 306.904 338.514H308.221V343.383C307.305 343.268 306.675 343.211 306.331 343.211C304.842 343.211 303.467 343.593 302.207 344.356C300.985 345.12 299.992 346.189 299.228 347.564C298.503 348.901 298.14 350.409 298.14 352.089V366.581H293.443ZM325.278 367.154C322.719 367.154 320.371 366.524 318.232 365.264C316.094 363.965 314.394 362.228 313.134 360.051C311.874 357.875 311.244 355.469 311.244 352.834C311.244 350.161 311.855 347.736 313.077 345.559C314.337 343.383 316.017 341.664 318.118 340.404C320.218 339.144 322.509 338.514 324.991 338.514C327.435 338.514 329.669 339.106 331.693 340.29C333.717 341.473 335.302 343.115 336.447 345.216C337.593 347.278 338.166 349.626 338.166 352.261C338.166 352.872 338.108 353.636 337.994 354.552H316.113C316.418 356.843 317.449 358.772 319.206 360.338C320.963 361.903 323.063 362.686 325.507 362.686C328.523 362.686 331.216 361.426 333.583 358.906L336.734 361.827C335.626 363.278 334.08 364.538 332.094 365.607C330.146 366.638 327.874 367.154 325.278 367.154ZM333.354 350.657C332.972 348.251 332.037 346.342 330.547 344.929C329.096 343.516 327.244 342.81 324.991 342.81C322.662 342.81 320.695 343.555 319.091 345.044C317.488 346.495 316.476 348.366 316.056 350.657H333.354ZM354.877 338.514C357.054 338.514 358.982 338.972 360.663 339.889C362.343 340.805 363.641 342.084 364.558 343.726C365.512 345.33 365.99 347.163 365.99 349.225V366.581H361.465V362.4H361.407C360.682 363.622 359.479 364.729 357.799 365.722C356.119 366.677 354.228 367.154 352.128 367.154C350.333 367.154 348.729 366.791 347.316 366.066C345.904 365.34 344.796 364.385 343.994 363.202C343.231 361.98 342.849 360.662 342.849 359.249C342.849 356.958 343.612 355.068 345.14 353.579C346.667 352.051 348.806 351.058 351.555 350.6L361.293 348.996V348.882C361.293 347.125 360.682 345.674 359.46 344.528C358.276 343.383 356.749 342.81 354.877 342.81C353.35 342.81 351.975 343.154 350.753 343.841C349.569 344.528 348.462 345.445 347.431 346.59L344.395 343.669C345.617 342.218 347.106 340.996 348.863 340.003C350.62 339.01 352.624 338.514 354.877 338.514ZM352.815 363.03C354.381 363.03 355.813 362.648 357.111 361.884C358.41 361.12 359.422 360.089 360.147 358.791C360.911 357.454 361.293 355.984 361.293 354.38V352.834L352.701 354.323C350.982 354.629 349.684 355.182 348.806 355.984C347.966 356.786 347.546 357.741 347.546 358.848C347.546 359.994 348.023 360.987 348.978 361.827C349.97 362.629 351.25 363.03 352.815 363.03Z" fill="#11112B"/>
<path d="M384.526 268.155C384.081 268.521 383.492 268.705 382.759 268.705V267.788C383.702 267.745 384.378 267.317 384.788 266.505H385.705V275.67H384.526V268.155ZM387.58 275.67C387.58 274.98 387.715 274.382 387.986 273.876C388.256 273.37 388.579 272.951 388.955 272.619C389.339 272.288 389.836 271.917 390.447 271.506C390.901 271.201 391.259 270.944 391.521 270.734C391.783 270.525 391.997 270.289 392.162 270.027C392.337 269.756 392.424 269.455 392.424 269.124C392.424 268.644 392.258 268.255 391.927 267.958C391.604 267.662 391.159 267.513 390.591 267.513C390.085 267.513 389.675 267.649 389.361 267.919C389.046 268.19 388.819 268.508 388.68 268.875L387.698 268.443C387.794 268.12 387.964 267.801 388.208 267.487C388.453 267.164 388.776 266.898 389.177 266.688C389.587 266.479 390.059 266.374 390.591 266.374C391.176 266.374 391.695 266.496 392.149 266.741C392.612 266.985 392.97 267.317 393.223 267.736C393.476 268.155 393.603 268.617 393.603 269.124C393.603 269.612 393.493 270.044 393.275 270.42C393.057 270.795 392.786 271.118 392.463 271.389C392.149 271.651 391.726 271.96 391.194 272.318C390.565 272.746 390.076 273.117 389.727 273.431C389.378 273.737 389.121 274.103 388.955 274.531H393.603V275.67H387.58ZM397.251 275.801C396.727 275.801 396.251 275.687 395.824 275.46C395.396 275.225 395.069 274.959 394.842 274.662L395.549 273.968C395.741 274.186 395.985 274.382 396.282 274.557C396.587 274.732 396.91 274.819 397.251 274.819C397.652 274.819 397.966 274.727 398.193 274.544C398.42 274.361 398.534 274.134 398.534 273.863C398.534 273.627 398.425 273.449 398.206 273.326C397.988 273.195 397.648 273.06 397.185 272.92C396.749 272.79 396.391 272.663 396.112 272.541C395.832 272.41 395.592 272.227 395.392 271.991C395.199 271.747 395.103 271.432 395.103 271.048C395.103 270.734 395.195 270.442 395.378 270.171C395.562 269.892 395.819 269.669 396.151 269.503C396.491 269.337 396.88 269.255 397.316 269.255C397.787 269.255 398.202 269.342 398.56 269.516C398.927 269.691 399.223 269.896 399.45 270.132L398.743 270.826C398.577 270.669 398.372 270.533 398.128 270.42C397.883 270.298 397.613 270.237 397.316 270.237C396.958 270.237 396.679 270.315 396.478 270.472C396.277 270.629 396.177 270.821 396.177 271.048C396.177 271.275 396.282 271.45 396.491 271.572C396.709 271.694 397.046 271.821 397.499 271.952C397.936 272.083 398.294 272.213 398.573 272.344C398.861 272.467 399.105 272.654 399.306 272.907C399.507 273.152 399.607 273.47 399.607 273.863C399.607 274.212 399.511 274.535 399.319 274.832C399.127 275.129 398.852 275.364 398.494 275.539C398.137 275.714 397.722 275.801 397.251 275.801ZM405.935 278.419V274.675H405.922C405.747 274.963 405.459 275.225 405.058 275.46C404.656 275.687 404.198 275.801 403.683 275.801C403.159 275.801 402.671 275.661 402.217 275.382C401.772 275.094 401.414 274.701 401.143 274.204C400.873 273.706 400.737 273.147 400.737 272.528C400.737 271.908 400.873 271.349 401.143 270.852C401.414 270.354 401.772 269.966 402.217 269.687C402.671 269.399 403.159 269.255 403.683 269.255C404.198 269.255 404.656 269.372 405.058 269.608C405.459 269.835 405.747 270.092 405.922 270.381H405.935V269.385H407.009V278.419H405.935ZM403.866 274.78C404.242 274.78 404.587 274.684 404.901 274.492C405.215 274.291 405.464 274.02 405.647 273.68C405.839 273.339 405.935 272.955 405.935 272.528C405.935 272.1 405.839 271.716 405.647 271.376C405.464 271.035 405.215 270.769 404.901 270.577C404.587 270.376 404.242 270.276 403.866 270.276C403.5 270.276 403.159 270.376 402.845 270.577C402.531 270.769 402.278 271.035 402.086 271.376C401.903 271.716 401.811 272.1 401.811 272.528C401.811 272.955 401.903 273.339 402.086 273.68C402.278 274.02 402.531 274.291 402.845 274.492C403.159 274.684 403.5 274.78 403.866 274.78ZM408.968 275.67V269.385H410.042V270.315H410.055C410.186 270.044 410.413 269.8 410.736 269.582C411.068 269.364 411.452 269.255 411.888 269.255C412.359 269.255 412.774 269.377 413.132 269.621C413.49 269.857 413.743 270.123 413.891 270.42H413.917C414.057 270.123 414.315 269.857 414.69 269.621C415.074 269.377 415.532 269.255 416.065 269.255C416.484 269.255 416.868 269.368 417.217 269.595C417.575 269.813 417.854 270.127 418.055 270.538C418.264 270.939 418.369 271.406 418.369 271.939V275.67H417.308V271.939C417.308 271.432 417.169 271.031 416.889 270.734C416.61 270.429 416.261 270.276 415.842 270.276C415.371 270.276 414.978 270.45 414.664 270.799C414.358 271.14 414.205 271.598 414.205 272.174V275.67H413.132V271.939C413.132 271.432 412.992 271.031 412.713 270.734C412.434 270.429 412.089 270.276 411.679 270.276C411.207 270.276 410.814 270.45 410.5 270.799C410.195 271.14 410.042 271.598 410.042 272.174V275.67H408.968Z" fill="#11112B"/>
</svg>
