<svg width="864" height="379" viewBox="0 0 864 379" fill="none" xmlns="http://www.w3.org/2000/svg">
<path d="M864 8L5 5L2 26L863 379V298V217L864 79V8Z" fill="#F3F3F3"/>
<path fill-rule="evenodd" clip-rule="evenodd" d="M0 0H864V12H12V26.9316L851 361.151V217H863V378.849L0 35.0684V0Z" fill="#E84A0F"/>
<path d="M526.462 152.7C523.662 152.7 521.119 152.093 518.832 150.88C516.545 149.62 514.795 148.196 513.582 146.61L517.362 142.9C518.389 144.066 519.695 145.116 521.282 146.05C522.915 146.983 524.642 147.45 526.462 147.45C528.609 147.45 530.289 146.96 531.502 145.98C532.715 145 533.322 143.786 533.322 142.34C533.322 141.08 532.739 140.123 531.572 139.47C530.405 138.77 528.585 138.046 526.112 137.3C523.779 136.6 521.865 135.923 520.372 135.27C518.879 134.57 517.595 133.59 516.522 132.33C515.495 131.023 514.982 129.343 514.982 127.29C514.982 125.61 515.472 124.046 516.452 122.6C517.432 121.106 518.809 119.916 520.582 119.03C522.402 118.143 524.479 117.7 526.812 117.7C529.332 117.7 531.549 118.166 533.462 119.1C535.422 120.033 537.009 121.13 538.222 122.39L534.442 126.1C533.555 125.26 532.459 124.536 531.152 123.93C529.845 123.276 528.399 122.95 526.812 122.95C524.899 122.95 523.405 123.37 522.332 124.21C521.259 125.05 520.722 126.076 520.722 127.29C520.722 128.503 521.282 129.436 522.402 130.09C523.569 130.743 525.365 131.42 527.792 132.12C530.125 132.82 532.039 133.52 533.532 134.22C535.072 134.873 536.379 135.876 537.452 137.23C538.525 138.536 539.062 140.24 539.062 142.34C539.062 144.206 538.549 145.933 537.522 147.52C536.495 149.106 535.025 150.366 533.112 151.3C531.199 152.233 528.982 152.7 526.462 152.7Z" fill="#11112B"/>
<path d="M560.154 152.35C557.027 152.35 554.601 151.463 552.874 149.69C551.194 147.87 550.354 145.256 550.354 141.85V123.86H543.984V118.4H548.044C550.004 118.4 550.984 117.233 550.984 114.9V107.2H556.094V118.4L564.284 118.4V123.86H556.094V141.36C556.094 143.18 556.537 144.556 557.424 145.49C558.311 146.423 559.547 146.89 561.134 146.89C562.441 146.89 563.794 146.54 565.194 145.84V151.3C564.634 151.58 563.887 151.813 562.954 152C562.067 152.233 561.134 152.35 560.154 152.35Z" fill="#11112B"/>
<path d="M584.823 117.7C587.483 117.7 589.84 118.26 591.893 119.38C593.947 120.5 595.533 122.063 596.653 124.07C597.82 126.03 598.403 128.27 598.403 130.79V152H592.873V146.89H592.803C591.917 148.383 590.447 149.736 588.393 150.95C586.34 152.116 584.03 152.7 581.463 152.7C579.27 152.7 577.31 152.256 575.583 151.37C573.857 150.483 572.503 149.316 571.523 147.87C570.59 146.376 570.123 144.766 570.123 143.04C570.123 140.24 571.057 137.93 572.923 136.11C574.79 134.243 577.403 133.03 580.763 132.47L592.663 130.51V130.37C592.663 128.223 591.917 126.45 590.423 125.05C588.977 123.65 587.11 122.95 584.823 122.95C582.957 122.95 581.277 123.37 579.783 124.21C578.337 125.05 576.983 126.17 575.723 127.57L572.013 124C573.507 122.226 575.327 120.733 577.473 119.52C579.62 118.306 582.07 117.7 584.823 117.7ZM582.303 147.66C584.217 147.66 585.967 147.193 587.553 146.26C589.14 145.326 590.377 144.066 591.263 142.48C592.197 140.846 592.663 139.05 592.663 137.09V135.2L582.163 137.02C580.063 137.393 578.477 138.07 577.403 139.05C576.377 140.03 575.863 141.196 575.863 142.55C575.863 143.95 576.447 145.163 577.613 146.19C578.827 147.17 580.39 147.66 582.303 147.66Z" fill="#11112B"/>
<path d="M614.616 152H608.876V118.4H614.616V152ZM611.746 111.54C610.766 111.54 609.902 111.19 609.156 110.49C608.456 109.79 608.106 108.926 608.106 107.9C608.106 106.873 608.456 106.01 609.156 105.31C609.902 104.61 610.766 104.26 611.746 104.26C612.679 104.26 613.496 104.61 614.196 105.31C614.942 106.01 615.316 106.873 615.316 107.9C615.316 108.926 614.942 109.79 614.196 110.49C613.496 111.19 612.679 111.54 611.746 111.54Z" fill="#11112B"/>
<path d="M625.479 152V118.4H631.219V123.3H631.289C632.222 121.853 633.622 120.57 635.489 119.45C637.402 118.283 639.549 117.7 641.929 117.7H643.539V123.65C642.419 123.51 641.649 123.44 641.229 123.44C639.409 123.44 637.729 123.906 636.189 124.84C634.695 125.773 633.482 127.08 632.549 128.76C631.662 130.393 631.219 132.236 631.219 134.29V152H625.479Z" fill="#11112B"/>
<path d="M660.446 152.7C657.646 152.7 655.103 152.093 652.816 150.88C650.53 149.62 648.78 148.196 647.566 146.61L651.346 142.9C652.373 144.066 653.68 145.116 655.266 146.05C656.9 146.983 658.626 147.45 660.446 147.45C662.593 147.45 664.273 146.96 665.486 145.98C666.7 145 667.306 143.786 667.306 142.34C667.306 141.08 666.723 140.123 665.556 139.47C664.39 138.77 662.57 138.046 660.096 137.3C657.763 136.6 655.85 135.923 654.356 135.27C652.863 134.57 651.58 133.59 650.506 132.33C649.48 131.023 648.966 129.343 648.966 127.29C648.966 125.61 649.456 124.046 650.436 122.6C651.416 121.106 652.793 119.916 654.566 119.03C656.386 118.143 658.463 117.7 660.796 117.7C663.316 117.7 665.533 118.166 667.446 119.1C669.406 120.033 670.993 121.13 672.206 122.39L668.426 126.1C667.54 125.26 666.443 124.536 665.136 123.93C663.83 123.276 662.383 122.95 660.796 122.95C658.883 122.95 657.39 123.37 656.316 124.21C655.243 125.05 654.706 126.076 654.706 127.29C654.706 128.503 655.266 129.436 656.386 130.09C657.553 130.743 659.35 131.42 661.776 132.12C664.11 132.82 666.023 133.52 667.516 134.22C669.056 134.873 670.363 135.876 671.436 137.23C672.51 138.536 673.046 140.24 673.046 142.34C673.046 144.206 672.533 145.933 671.506 147.52C670.48 149.106 669.01 150.366 667.096 151.3C665.183 152.233 662.966 152.7 660.446 152.7Z" fill="#11112B"/>
<path d="M638.192 88.1606C637.339 88.1606 636.571 87.99 635.888 87.6486C635.206 87.2966 634.71 86.9073 634.4 86.4806L635.392 85.4886C635.627 85.83 635.995 86.1393 636.496 86.4166C636.998 86.694 637.563 86.8326 638.192 86.8326C638.939 86.8326 639.531 86.6406 639.968 86.2566C640.416 85.862 640.64 85.3766 640.64 84.8006C640.64 84.246 640.416 83.782 639.968 83.4086C639.531 83.0246 638.939 82.8326 638.192 82.8326H637.04V81.4406H638.192C638.822 81.4406 639.318 81.2806 639.68 80.9606C640.054 80.63 640.24 80.214 640.24 79.7126C640.24 79.2006 640.054 78.7846 639.68 78.4646C639.318 78.134 638.822 77.9686 638.192 77.9686C637.67 77.9686 637.179 78.0913 636.72 78.3366C636.272 78.5713 635.931 78.838 635.696 79.1366L634.72 78.1286C635.03 77.7446 635.499 77.4033 636.128 77.1046C636.758 76.7953 637.446 76.6406 638.192 76.6406C638.896 76.6406 639.51 76.774 640.032 77.0406C640.566 77.3073 640.971 77.67 641.248 78.1286C641.536 78.5766 641.68 79.0673 641.68 79.6006C641.68 80.23 641.499 80.7686 641.136 81.2166C640.774 81.654 640.374 81.942 639.936 82.0806C640.48 82.2406 640.971 82.566 641.408 83.0566C641.856 83.5366 642.08 84.134 642.08 84.8486C642.08 85.4673 641.92 86.0273 641.6 86.5286C641.28 87.03 640.822 87.43 640.224 87.7286C639.638 88.0166 638.96 88.1606 638.192 88.1606Z" fill="#11112B"/>
<path d="M646.474 88.1606C645.834 88.1606 645.253 88.022 644.73 87.7446C644.208 87.4566 643.808 87.1313 643.53 86.7686L644.394 85.9206C644.629 86.1873 644.928 86.4273 645.29 86.6406C645.664 86.854 646.058 86.9606 646.474 86.9606C646.965 86.9606 647.349 86.8486 647.626 86.6246C647.904 86.4006 648.042 86.1233 648.042 85.7926C648.042 85.5046 647.909 85.286 647.642 85.1366C647.376 84.9766 646.96 84.8113 646.394 84.6406C645.861 84.4806 645.424 84.326 645.082 84.1766C644.741 84.0166 644.448 83.7926 644.202 83.5046C643.968 83.206 643.85 82.822 643.85 82.3526C643.85 81.9686 643.962 81.6113 644.186 81.2806C644.41 80.9393 644.725 80.6673 645.13 80.4646C645.546 80.262 646.021 80.1606 646.554 80.1606C647.13 80.1606 647.637 80.2673 648.074 80.4806C648.522 80.694 648.885 80.9446 649.162 81.2326L648.298 82.0806C648.096 81.8886 647.845 81.7233 647.546 81.5846C647.248 81.4353 646.917 81.3606 646.554 81.3606C646.117 81.3606 645.776 81.4566 645.53 81.6486C645.285 81.8406 645.162 82.0753 645.162 82.3526C645.162 82.63 645.29 82.8433 645.546 82.9926C645.813 83.142 646.224 83.2966 646.778 83.4566C647.312 83.6166 647.749 83.7766 648.09 83.9366C648.442 84.086 648.741 84.3153 648.986 84.6246C649.232 84.9233 649.354 85.3126 649.354 85.7926C649.354 86.2193 649.237 86.614 649.002 86.9766C648.768 87.3393 648.432 87.6273 647.994 87.8406C647.557 88.054 647.05 88.1606 646.474 88.1606Z" fill="#11112B"/>
<path d="M657.087 91.3606V86.7846H657.071C656.858 87.1366 656.506 87.4566 656.015 87.7446C655.525 88.022 654.965 88.1606 654.335 88.1606C653.695 88.1606 653.098 87.99 652.543 87.6486C651.999 87.2966 651.562 86.8166 651.231 86.2086C650.901 85.6006 650.735 84.918 650.735 84.1606C650.735 83.4033 650.901 82.7206 651.231 82.1126C651.562 81.5046 651.999 81.03 652.543 80.6886C653.098 80.3366 653.695 80.1606 654.335 80.1606C654.965 80.1606 655.525 80.3046 656.015 80.5926C656.506 80.87 656.858 81.1846 657.071 81.5366H657.087V80.3206H658.399V91.3606H657.087ZM654.559 86.9126C655.018 86.9126 655.439 86.7953 655.823 86.5606C656.207 86.3153 656.511 85.9846 656.735 85.5686C656.97 85.1526 657.087 84.6833 657.087 84.1606C657.087 83.638 656.97 83.1686 656.735 82.7526C656.511 82.3366 656.207 82.0113 655.823 81.7766C655.439 81.5313 655.018 81.4086 654.559 81.4086C654.111 81.4086 653.695 81.5313 653.311 81.7766C652.927 82.0113 652.618 82.3366 652.383 82.7526C652.159 83.1686 652.047 83.638 652.047 84.1606C652.047 84.6833 652.159 85.1526 652.383 85.5686C652.618 85.9846 652.927 86.3153 653.311 86.5606C653.695 86.7953 654.111 86.9126 654.559 86.9126Z" fill="#11112B"/>
<path d="M660.794 88.0006V80.3206H662.106V81.4566H662.122C662.282 81.126 662.559 80.8273 662.954 80.5606C663.359 80.294 663.829 80.1606 664.362 80.1606C664.938 80.1606 665.445 80.31 665.882 80.6086C666.319 80.8966 666.629 81.222 666.81 81.5846H666.842C667.013 81.222 667.327 80.8966 667.786 80.6086C668.255 80.31 668.815 80.1606 669.466 80.1606C669.978 80.1606 670.447 80.2993 670.874 80.5766C671.311 80.8433 671.653 81.2273 671.898 81.7286C672.154 82.2193 672.282 82.79 672.282 83.4406V88.0006H670.986V83.4406C670.986 82.822 670.815 82.3313 670.474 81.9686C670.133 81.5953 669.706 81.4086 669.194 81.4086C668.618 81.4086 668.138 81.622 667.754 82.0486C667.381 82.4646 667.194 83.0246 667.194 83.7286V88.0006H665.882V83.4406C665.882 82.822 665.711 82.3313 665.37 81.9686C665.029 81.5953 664.607 81.4086 664.106 81.4086C663.53 81.4086 663.05 81.622 662.666 82.0486C662.293 82.4646 662.106 83.0246 662.106 83.7286V88.0006H660.794Z" fill="#11112B"/>
</svg>
