<svg width="750" height="329" viewBox="0 0 750 329" fill="none" xmlns="http://www.w3.org/2000/svg">
<path d="M750 7.06419L4.60325 4.46094L2 22.6837L749.132 328.999V258.712V188.424L750 68.6744V7.06419Z" fill="#F3F3F3"/>
<path d="M11.5449 5.32812H5.4707M743.925 188.423V321.189L5.4707 27.0219V5.32812M5.4707 5.32812H750" stroke="#E84A0F" stroke-width="10.413"/>
<path d="M457.102 132.373C454.672 132.373 452.465 131.847 450.481 130.794C448.497 129.7 446.978 128.465 445.925 127.088L449.205 123.869C450.096 124.881 451.23 125.793 452.607 126.603C454.024 127.412 455.522 127.817 457.102 127.817C458.965 127.817 460.422 127.392 461.475 126.542C462.528 125.691 463.055 124.639 463.055 123.383C463.055 122.29 462.548 121.46 461.536 120.893C460.524 120.285 458.944 119.658 456.798 119.01C454.773 118.402 453.113 117.815 451.817 117.248C450.521 116.641 449.408 115.79 448.476 114.697C447.585 113.563 447.14 112.105 447.14 110.324C447.14 108.866 447.565 107.509 448.416 106.254C449.266 104.958 450.461 103.925 451.999 103.156C453.579 102.387 455.381 102.002 457.405 102.002C459.592 102.002 461.516 102.407 463.176 103.217C464.877 104.027 466.254 104.978 467.306 106.072L464.026 109.291C463.257 108.562 462.305 107.934 461.171 107.408C460.038 106.841 458.782 106.558 457.405 106.558C455.745 106.558 454.449 106.922 453.518 107.651C452.587 108.38 452.121 109.271 452.121 110.324C452.121 111.376 452.607 112.186 453.579 112.753C454.591 113.32 456.15 113.907 458.256 114.515C460.281 115.122 461.941 115.73 463.237 116.337C464.573 116.904 465.707 117.775 466.638 118.949C467.57 120.083 468.035 121.561 468.035 123.383C468.035 125.003 467.59 126.501 466.699 127.878C465.808 129.255 464.533 130.348 462.872 131.158C461.212 131.968 459.288 132.373 457.102 132.373ZM486.338 132.069C483.625 132.069 481.519 131.3 480.021 129.761C478.563 128.182 477.834 125.914 477.834 122.958L477.834 107.347H472.306V102.609H475.829C477.53 102.609 478.381 101.597 478.381 99.5721V92.8904H482.815V102.609H489.922V107.347H482.815V122.533C482.815 124.112 483.199 125.307 483.969 126.117C484.738 126.926 485.811 127.331 487.188 127.331C488.322 127.331 489.496 127.028 490.711 126.42V131.158C490.225 131.401 489.577 131.604 488.768 131.766C487.998 131.968 487.188 132.069 486.338 132.069ZM507.745 102.002C510.053 102.002 512.098 102.488 513.88 103.46C515.662 104.432 517.038 105.788 518.01 107.529C519.023 109.23 519.529 111.174 519.529 113.361V131.766H514.73V127.331H514.669C513.9 128.627 512.624 129.802 510.843 130.854C509.061 131.867 507.056 132.373 504.829 132.373C502.926 132.373 501.225 131.988 499.727 131.219C498.229 130.45 497.054 129.437 496.204 128.182C495.394 126.886 494.989 125.489 494.989 123.991C494.989 121.561 495.799 119.556 497.419 117.977C499.038 116.357 501.306 115.304 504.222 114.818L514.548 113.118V112.996C514.548 111.133 513.9 109.595 512.604 108.38C511.349 107.165 509.729 106.558 507.745 106.558C506.125 106.558 504.667 106.922 503.371 107.651C502.116 108.38 500.942 109.352 499.848 110.567L496.629 107.469C497.925 105.93 499.504 104.634 501.367 103.581C503.23 102.528 505.356 102.002 507.745 102.002ZM505.558 128C507.218 128 508.737 127.595 510.114 126.785C511.491 125.975 512.564 124.881 513.333 123.505C514.143 122.087 514.548 120.528 514.548 118.827V117.187L505.437 118.767C503.614 119.091 502.238 119.678 501.306 120.528C500.415 121.379 499.97 122.391 499.97 123.565C499.97 124.78 500.476 125.833 501.488 126.724C502.541 127.574 503.898 128 505.558 128ZM533.597 131.766H528.616V102.609H533.597V131.766ZM531.106 96.6565C530.256 96.6565 529.507 96.3528 528.859 95.7453C528.252 95.1379 527.948 94.3888 527.948 93.4979C527.948 92.607 528.252 91.8578 528.859 91.2504C529.507 90.643 530.256 90.3393 531.106 90.3393C531.916 90.3393 532.625 90.643 533.232 91.2504C533.88 91.8578 534.204 92.607 534.204 93.4979C534.204 94.3888 533.88 95.1379 533.232 95.7453C532.625 96.3528 531.916 96.6565 531.106 96.6565ZM543.023 131.766V102.609H548.004V106.861H548.065C548.875 105.606 550.09 104.492 551.71 103.52C553.37 102.508 555.233 102.002 557.298 102.002H558.695V107.165C557.723 107.043 557.055 106.983 556.69 106.983C555.111 106.983 553.653 107.388 552.317 108.198C551.021 109.007 549.968 110.141 549.158 111.599C548.389 113.016 548.004 114.616 548.004 116.398V131.766H543.023ZM573.367 132.373C570.937 132.373 568.73 131.847 566.746 130.794C564.761 129.7 563.243 128.465 562.19 127.088L565.47 123.869C566.361 124.881 567.495 125.793 568.872 126.603C570.289 127.412 571.787 127.817 573.367 127.817C575.229 127.817 576.687 127.392 577.74 126.542C578.793 125.691 579.319 124.639 579.319 123.383C579.319 122.29 578.813 121.46 577.801 120.893C576.788 120.285 575.209 119.658 573.063 119.01C571.038 118.402 569.378 117.815 568.082 117.248C566.786 116.641 565.673 115.79 564.741 114.697C563.85 113.563 563.405 112.105 563.405 110.324C563.405 108.866 563.83 107.509 564.68 106.254C565.531 104.958 566.725 103.925 568.264 103.156C569.844 102.387 571.646 102.002 573.67 102.002C575.857 102.002 577.781 102.407 579.441 103.217C581.142 104.027 582.518 104.978 583.571 106.072L580.291 109.291C579.522 108.562 578.57 107.934 577.436 107.408C576.303 106.841 575.047 106.558 573.67 106.558C572.01 106.558 570.714 106.922 569.783 107.651C568.851 108.38 568.386 109.271 568.386 110.324C568.386 111.376 568.872 112.186 569.844 112.753C570.856 113.32 572.415 113.907 574.521 114.515C576.545 115.122 578.206 115.73 579.502 116.337C580.838 116.904 581.972 117.775 582.903 118.949C583.835 120.083 584.3 121.561 584.3 123.383C584.3 125.003 583.855 126.501 582.964 127.878C582.073 129.255 580.797 130.348 579.137 131.158C577.477 131.968 575.553 132.373 573.367 132.373Z" fill="#11112B"/>
<path d="M554.056 76.6076C553.315 76.6076 552.649 76.4595 552.056 76.1633C551.464 75.8579 551.033 75.52 550.765 75.1498L551.626 74.289C551.83 74.5852 552.149 74.8536 552.584 75.0942C553.019 75.3349 553.509 75.4552 554.056 75.4552C554.703 75.4552 555.217 75.2886 555.597 74.9554C555.985 74.6129 556.18 74.1918 556.18 73.692C556.18 73.2106 555.985 72.808 555.597 72.484C555.217 72.1508 554.703 71.9842 554.056 71.9842H553.056V70.7763H554.056C554.602 70.7763 555.032 70.6375 555.347 70.3598C555.671 70.0729 555.833 69.7119 555.833 69.2768C555.833 68.8326 555.671 68.4716 555.347 68.1939C555.032 67.907 554.602 67.7635 554.056 67.7635C553.602 67.7635 553.176 67.8699 552.778 68.0828C552.389 68.2865 552.093 68.5179 551.89 68.777L551.043 67.9023C551.311 67.5691 551.718 67.2729 552.265 67.0138C552.811 66.7453 553.408 66.6111 554.056 66.6111C554.666 66.6111 555.199 66.7268 555.652 66.9582C556.115 67.1896 556.467 67.5043 556.707 67.9023C556.957 68.2911 557.082 68.7169 557.082 69.1797C557.082 69.7258 556.925 70.1932 556.61 70.5819C556.296 70.9614 555.948 71.2113 555.569 71.3317C556.041 71.4705 556.467 71.7528 556.846 72.1786C557.235 72.5951 557.429 73.1135 557.429 73.7336C557.429 74.2705 557.291 74.7564 557.013 75.1914C556.735 75.6265 556.337 75.9736 555.819 76.2327C555.31 76.4826 554.722 76.6076 554.056 76.6076ZM561.242 76.6076C560.687 76.6076 560.182 76.4873 559.729 76.2466C559.275 75.9967 558.928 75.7144 558.688 75.3997L559.437 74.6638C559.641 74.8952 559.9 75.1035 560.215 75.2886C560.539 75.4737 560.881 75.5663 561.242 75.5663C561.668 75.5663 562.001 75.4691 562.242 75.2747C562.482 75.0804 562.603 74.8397 562.603 74.5528C562.603 74.3028 562.487 74.1131 562.256 73.9835C562.024 73.8447 561.663 73.7012 561.173 73.5531C560.71 73.4143 560.33 73.2801 560.034 73.1505C559.738 73.0116 559.484 72.8173 559.271 72.5673C559.067 72.3082 558.965 71.975 558.965 71.5677C558.965 71.2345 559.062 70.9244 559.257 70.6375C559.451 70.3413 559.724 70.1053 560.076 69.9294C560.437 69.7535 560.849 69.6656 561.312 69.6656C561.811 69.6656 562.251 69.7582 562.631 69.9433C563.019 70.1284 563.334 70.3459 563.575 70.5958L562.825 71.3317C562.649 71.1651 562.432 71.0216 562.172 70.9013C561.913 70.7717 561.626 70.7069 561.312 70.7069C560.932 70.7069 560.636 70.7902 560.423 70.9568C560.21 71.1234 560.104 71.327 560.104 71.5677C560.104 71.8084 560.215 71.9935 560.437 72.1231C560.668 72.2526 561.025 72.3869 561.506 72.5257C561.969 72.6645 562.348 72.8034 562.644 72.9422C562.95 73.0718 563.209 73.2708 563.422 73.5392C563.635 73.7984 563.741 74.1362 563.741 74.5528C563.741 74.923 563.639 75.2655 563.436 75.5802C563.232 75.8949 562.941 76.1448 562.561 76.3299C562.182 76.515 561.742 76.6076 561.242 76.6076ZM570.452 79.3844V75.4136H570.438C570.253 75.719 569.947 75.9967 569.521 76.2466C569.096 76.4873 568.61 76.6076 568.064 76.6076C567.508 76.6076 566.99 76.4595 566.509 76.1633C566.036 75.8579 565.657 75.4413 565.37 74.9137C565.083 74.3862 564.94 73.7938 564.94 73.1366C564.94 72.4794 565.083 71.887 565.37 71.3594C565.657 70.8318 566.036 70.42 566.509 70.1238C566.99 69.8183 567.508 69.6656 568.064 69.6656C568.61 69.6656 569.096 69.7906 569.521 70.0405C569.947 70.2811 570.253 70.5542 570.438 70.8596H570.452V69.8044H571.59V79.3844H570.452ZM568.258 75.5246C568.656 75.5246 569.022 75.4228 569.355 75.2192C569.688 75.0063 569.952 74.7194 570.146 74.3584C570.35 73.9974 570.452 73.5901 570.452 73.1366C570.452 72.683 570.35 72.2758 570.146 71.9148C569.952 71.5538 569.688 71.2715 569.355 71.0679C569.022 70.855 568.656 70.7485 568.258 70.7485C567.869 70.7485 567.508 70.855 567.175 71.0679C566.842 71.2715 566.573 71.5538 566.37 71.9148C566.175 72.2758 566.078 72.683 566.078 73.1366C566.078 73.5901 566.175 73.9974 566.37 74.3584C566.573 74.7194 566.842 75.0063 567.175 75.2192C567.508 75.4228 567.869 75.5246 568.258 75.5246ZM573.668 76.4688V69.8044H574.807V70.7902H574.821C574.959 70.5033 575.2 70.2441 575.543 70.0127C575.894 69.7813 576.302 69.6656 576.764 69.6656C577.264 69.6656 577.704 69.7952 578.083 70.0543C578.463 70.3043 578.731 70.5866 578.889 70.9013H578.916C579.064 70.5866 579.338 70.3043 579.736 70.0543C580.143 69.7952 580.629 69.6656 581.193 69.6656C581.638 69.6656 582.045 69.7859 582.415 70.0266C582.795 70.258 583.091 70.5912 583.304 71.0262C583.526 71.452 583.637 71.9472 583.637 72.5118V76.4688H582.512V72.5118C582.512 71.975 582.364 71.5492 582.068 71.2345C581.772 70.9105 581.402 70.7485 580.957 70.7485C580.458 70.7485 580.041 70.9337 579.708 71.3039C579.384 71.6649 579.222 72.1508 579.222 72.7617V76.4688H578.083V72.5118C578.083 71.975 577.935 71.5492 577.639 71.2345C577.343 70.9105 576.977 70.7485 576.542 70.7485C576.042 70.7485 575.626 70.9337 575.293 71.3039C574.969 71.6649 574.807 72.1508 574.807 72.7617V76.4688H573.668Z" fill="#11112B"/>
</svg>
