<svg width="569" height="557" viewBox="0 0 569 557" fill="none" xmlns="http://www.w3.org/2000/svg">
<rect width="569" height="557" rx="26" fill="#AED9F4"/>
<path d="M56.7624 341H44.4389L18.0539 265.163H31.7994L51.0746 322.357H51.3906L69.8759 265.163H80.1455L98.6307 322.673H98.9467L118.064 265.163H131.335L104.95 341H92.627L74.9317 285.702H74.6157L56.7624 341ZM171.845 263.583C177.849 263.583 183.168 264.847 187.802 267.375C192.437 269.903 196.018 273.431 198.546 277.96C201.179 282.384 202.496 287.44 202.496 293.128V341H190.014V329.466H189.856C187.855 332.837 184.537 335.892 179.902 338.63C175.268 341.263 170.054 342.58 164.261 342.58C159.311 342.58 154.887 341.579 150.99 339.578C147.092 337.577 144.038 334.944 141.826 331.678C139.719 328.308 138.666 324.674 138.666 320.777C138.666 314.457 140.773 309.243 144.986 305.135C149.199 300.922 155.097 298.184 162.681 296.92L189.54 292.496V292.18C189.54 287.335 187.855 283.332 184.484 280.172C181.219 277.013 177.006 275.433 171.845 275.433C167.632 275.433 163.84 276.381 160.469 278.276C157.204 280.172 154.149 282.7 151.306 285.86L142.932 277.803C146.302 273.8 150.41 270.429 155.255 267.691C160.101 264.952 165.63 263.583 171.845 263.583ZM166.157 331.204C170.475 331.204 174.425 330.151 178.007 328.045C181.588 325.938 184.379 323.094 186.38 319.513C188.487 315.826 189.54 311.771 189.54 307.347V303.082L165.841 307.189C161.101 308.032 157.52 309.559 155.097 311.771C152.78 313.983 151.622 316.616 151.622 319.671C151.622 322.831 152.938 325.569 155.571 327.887C158.31 330.098 161.838 331.204 166.157 331.204ZM225.342 341L225.342 265.163L238.297 265.163V276.223H238.455C240.562 272.957 243.722 270.061 247.935 267.533C252.253 264.9 257.098 263.583 262.47 263.583H266.104V277.013C263.576 276.697 261.838 276.539 260.89 276.539C256.782 276.539 252.991 277.592 249.515 279.698C246.144 281.805 243.406 284.754 241.299 288.546C239.298 292.233 238.297 296.393 238.297 301.028V341H225.342ZM281.041 341V265.163H293.996V276.381H294.154C295.734 273.115 298.473 270.166 302.37 267.533C306.372 264.9 311.007 263.583 316.273 263.583C321.961 263.583 326.964 265.058 331.283 268.007C335.601 270.851 338.656 274.063 340.446 277.645H340.762C342.448 274.063 345.555 270.851 350.084 268.007C354.718 265.058 360.248 263.583 366.673 263.583C371.729 263.583 376.364 264.952 380.577 267.691C384.895 270.324 388.266 274.116 390.688 279.066C393.216 283.912 394.48 289.547 394.48 295.972V341H381.683V295.972C381.683 289.863 379.997 285.018 376.627 281.436C373.256 277.75 369.043 275.907 363.987 275.907C358.3 275.907 353.56 278.013 349.768 282.226C346.081 286.334 344.238 291.864 344.238 298.816V341H331.283V295.972C331.283 289.863 329.597 285.018 326.227 281.436C322.856 277.75 318.696 275.907 313.745 275.907C308.058 275.907 303.318 278.013 299.526 282.226C295.839 286.334 293.996 291.864 293.996 298.816V341L281.041 341ZM444.804 341.79C437.747 341.79 432.269 339.789 428.372 335.786C424.58 331.678 422.684 325.78 422.684 318.091V277.487H408.307V265.163H417.471C421.895 265.163 424.106 262.53 424.106 257.263V239.884H435.64V265.163H454.125V277.487H435.64V316.985C435.64 321.093 436.641 324.2 438.642 326.307C440.643 328.413 443.434 329.466 447.016 329.466C449.965 329.466 453.019 328.676 456.179 327.097V339.42C454.915 340.052 453.23 340.579 451.123 341C449.122 341.527 447.016 341.79 444.804 341.79ZM474.694 341V230.404L487.65 230.404V276.697H487.808C489.914 273.326 493.127 270.324 497.445 267.691C501.764 264.952 506.661 263.583 512.139 263.583C517.932 263.583 523.093 264.952 527.622 267.691C532.256 270.429 535.838 274.274 538.366 279.224C540.999 284.175 542.315 289.915 542.315 296.446V341H529.518V296.446C529.518 290.337 527.675 285.386 523.988 281.594C520.302 277.803 515.614 275.907 509.927 275.907C503.607 275.907 498.288 278.118 493.969 282.542C489.756 286.966 487.65 292.601 487.65 299.448V341H474.694Z" fill="#11112B"/>
</svg>
