<svg width="494" height="384" viewBox="0 0 494 384" fill="none" xmlns="http://www.w3.org/2000/svg">
<path d="M494 0V173V384H6V104L131.5 2.5L494 0Z" fill="#F3F3F3"/>
<path d="M488 169V6H133L6 102V378H488V258" stroke="#E84A0F" stroke-width="12"/>
<path d="M136.147 198H130.687L118.997 164.4H125.087L133.627 189.74H133.767L141.957 164.4H146.507L154.697 189.88H154.837L163.307 164.4H169.187L157.497 198H152.037L144.197 173.5H144.057L136.147 198ZM187.135 163.7C189.795 163.7 192.151 164.26 194.205 165.38C196.258 166.5 197.845 168.063 198.965 170.07C200.131 172.03 200.715 174.27 200.715 176.79V198H195.185V192.89H195.115C194.228 194.383 192.758 195.737 190.705 196.95C188.651 198.117 186.341 198.7 183.775 198.7C181.581 198.7 179.621 198.257 177.895 197.37C176.168 196.483 174.815 195.317 173.835 193.87C172.901 192.377 172.435 190.767 172.435 189.04C172.435 186.24 173.368 183.93 175.235 182.11C177.101 180.243 179.715 179.03 183.075 178.47L194.975 176.51V176.37C194.975 174.223 194.228 172.45 192.735 171.05C191.288 169.65 189.421 168.95 187.135 168.95C185.268 168.95 183.588 169.37 182.095 170.21C180.648 171.05 179.295 172.17 178.035 173.57L174.325 170C175.818 168.227 177.638 166.733 179.785 165.52C181.931 164.307 184.381 163.7 187.135 163.7ZM184.615 193.66C186.528 193.66 188.278 193.193 189.865 192.26C191.451 191.327 192.688 190.067 193.575 188.48C194.508 186.847 194.975 185.05 194.975 183.09V181.2L184.475 183.02C182.375 183.393 180.788 184.07 179.715 185.05C178.688 186.03 178.175 187.197 178.175 188.55C178.175 189.95 178.758 191.163 179.925 192.19C181.138 193.17 182.701 193.66 184.615 193.66ZM221.127 198.7C218.327 198.7 215.784 198.093 213.497 196.88C211.21 195.62 209.46 194.197 208.247 192.61L212.027 188.9C213.054 190.067 214.36 191.117 215.947 192.05C217.58 192.983 219.307 193.45 221.127 193.45C223.274 193.45 224.954 192.96 226.167 191.98C227.38 191 227.987 189.787 227.987 188.34C227.987 187.08 227.404 186.123 226.237 185.47C225.07 184.77 223.25 184.047 220.777 183.3C218.444 182.6 216.53 181.923 215.037 181.27C213.544 180.57 212.26 179.59 211.187 178.33C210.16 177.023 209.647 175.343 209.647 173.29C209.647 171.61 210.137 170.047 211.117 168.6C212.097 167.107 213.474 165.917 215.247 165.03C217.067 164.143 219.144 163.7 221.477 163.7C223.997 163.7 226.214 164.167 228.127 165.1C230.087 166.033 231.674 167.13 232.887 168.39L229.107 172.1C228.22 171.26 227.124 170.537 225.817 169.93C224.51 169.277 223.064 168.95 221.477 168.95C219.564 168.95 218.07 169.37 216.997 170.21C215.924 171.05 215.387 172.077 215.387 173.29C215.387 174.503 215.947 175.437 217.067 176.09C218.234 176.743 220.03 177.42 222.457 178.12C224.79 178.82 226.704 179.52 228.197 180.22C229.737 180.873 231.044 181.877 232.117 183.23C233.19 184.537 233.727 186.24 233.727 188.34C233.727 190.207 233.214 191.933 232.187 193.52C231.16 195.107 229.69 196.367 227.777 197.3C225.864 198.233 223.647 198.7 221.127 198.7ZM242.359 198V149H248.099V169.51H248.169C249.102 168.017 250.525 166.687 252.439 165.52C254.352 164.307 256.522 163.7 258.949 163.7C261.515 163.7 263.802 164.307 265.809 165.52C267.862 166.733 269.449 168.437 270.569 170.63C271.735 172.823 272.319 175.367 272.319 178.26V198H266.649V178.26C266.649 175.553 265.832 173.36 264.199 171.68C262.565 170 260.489 169.16 257.969 169.16C255.169 169.16 252.812 170.14 250.899 172.1C249.032 174.06 248.099 176.557 248.099 179.59V198H242.359ZM288.568 198H282.828V164.4H288.568V198ZM285.698 157.54C284.718 157.54 283.854 157.19 283.108 156.49C282.408 155.79 282.058 154.927 282.058 153.9C282.058 152.873 282.408 152.01 283.108 151.31C283.854 150.61 284.718 150.26 285.698 150.26C286.631 150.26 287.448 150.61 288.148 151.31C288.894 152.01 289.268 152.873 289.268 153.9C289.268 154.927 288.894 155.79 288.148 156.49C287.448 157.19 286.631 157.54 285.698 157.54ZM299.431 198V164.4H305.171V169.51H305.241C306.174 168.017 307.597 166.687 309.511 165.52C311.424 164.307 313.594 163.7 316.021 163.7C318.587 163.7 320.874 164.307 322.881 165.52C324.934 166.733 326.521 168.437 327.641 170.63C328.807 172.823 329.391 175.367 329.391 178.26V198H323.721V178.26C323.721 175.553 322.904 173.36 321.271 171.68C319.637 170 317.561 169.16 315.041 169.16C312.241 169.16 309.884 170.14 307.971 172.1C306.104 174.06 305.171 176.557 305.171 179.59V198H299.431ZM353.068 212.7C349.988 212.7 347.094 211.953 344.388 210.46C341.728 209.013 339.814 207.427 338.648 205.7L342.708 201.99C343.594 203.297 344.994 204.487 346.908 205.56C348.868 206.68 350.921 207.24 353.068 207.24C356.334 207.24 358.948 206.143 360.908 203.95C362.914 201.757 363.918 198.91 363.918 195.41V191.49H363.848C362.774 193.123 361.211 194.5 359.158 195.62C357.104 196.74 354.888 197.3 352.508 197.3C349.801 197.3 347.281 196.577 344.948 195.13C342.614 193.683 340.748 191.677 339.348 189.11C337.994 186.543 337.318 183.673 337.318 180.5C337.318 177.327 337.994 174.457 339.348 171.89C340.748 169.323 342.614 167.317 344.948 165.87C347.281 164.423 349.801 163.7 352.508 163.7C355.074 163.7 357.361 164.307 359.368 165.52C361.421 166.733 362.914 168.063 363.848 169.51H363.918V164.4L369.658 164.4V195.41C369.658 198.677 368.934 201.617 367.488 204.23C366.088 206.89 364.128 208.967 361.608 210.46C359.088 211.953 356.241 212.7 353.068 212.7ZM353.418 191.84C355.378 191.84 357.151 191.35 358.738 190.37C360.324 189.39 361.584 188.06 362.518 186.38C363.451 184.653 363.918 182.693 363.918 180.5C363.918 178.307 363.451 176.37 362.518 174.69C361.584 172.963 360.324 171.61 358.738 170.63C357.151 169.65 355.378 169.16 353.418 169.16C351.551 169.16 349.824 169.65 348.238 170.63C346.651 171.61 345.391 172.963 344.458 174.69C343.524 176.417 343.058 178.353 343.058 180.5C343.058 182.647 343.524 184.583 344.458 186.31C345.391 188.037 346.651 189.39 348.238 190.37C349.824 191.35 351.551 191.84 353.418 191.84ZM196.739 221.7C199.399 221.7 201.756 222.26 203.809 223.38C205.863 224.5 207.449 226.063 208.569 228.07C209.736 230.03 210.319 232.27 210.319 234.79V256H204.789V250.89H204.719C203.833 252.383 202.363 253.737 200.309 254.95C198.256 256.117 195.946 256.7 193.379 256.7C191.186 256.7 189.226 256.257 187.499 255.37C185.773 254.483 184.419 253.317 183.439 251.87C182.506 250.377 182.039 248.767 182.039 247.04C182.039 244.24 182.973 241.93 184.839 240.11C186.706 238.243 189.319 237.03 192.679 236.47L204.579 234.51V234.37C204.579 232.223 203.833 230.45 202.339 229.05C200.893 227.65 199.026 226.95 196.739 226.95C194.873 226.95 193.193 227.37 191.699 228.21C190.253 229.05 188.899 230.17 187.639 231.57L183.929 228C185.423 226.227 187.243 224.733 189.389 223.52C191.536 222.307 193.986 221.7 196.739 221.7ZM194.219 251.66C196.133 251.66 197.883 251.193 199.469 250.26C201.056 249.327 202.293 248.067 203.179 246.48C204.113 244.847 204.579 243.05 204.579 241.09V239.2L194.079 241.02C191.979 241.393 190.393 242.07 189.319 243.05C188.293 244.03 187.779 245.197 187.779 246.55C187.779 247.95 188.363 249.163 189.529 250.19C190.743 251.17 192.306 251.66 194.219 251.66ZM220.441 256V222.4H226.181V227.3H226.251C227.185 225.853 228.585 224.57 230.451 223.45C232.365 222.283 234.511 221.7 236.891 221.7H238.501V227.65C237.381 227.51 236.611 227.44 236.191 227.44C234.371 227.44 232.691 227.907 231.151 228.84C229.658 229.773 228.445 231.08 227.511 232.76C226.625 234.393 226.181 236.237 226.181 238.29V256H220.441ZM259.346 256.7C256.219 256.7 253.349 255.93 250.736 254.39C248.122 252.803 246.046 250.68 244.506 248.02C242.966 245.36 242.196 242.42 242.196 239.2C242.196 235.933 242.942 232.97 244.436 230.31C245.976 227.65 248.029 225.55 250.596 224.01C253.162 222.47 255.962 221.7 258.996 221.7C261.982 221.7 264.712 222.423 267.186 223.87C269.659 225.317 271.596 227.323 272.996 229.89C274.396 232.41 275.096 235.28 275.096 238.5C275.096 239.247 275.026 240.18 274.886 241.3H248.146C248.519 244.1 249.779 246.457 251.926 248.37C254.072 250.283 256.639 251.24 259.626 251.24C263.312 251.24 266.602 249.7 269.496 246.62L273.346 250.19C271.992 251.963 270.102 253.503 267.676 254.81C265.296 256.07 262.519 256.7 259.346 256.7ZM269.216 236.54C268.749 233.6 267.606 231.267 265.786 229.54C264.012 227.813 261.749 226.95 258.996 226.95C256.149 226.95 253.746 227.86 251.786 229.68C249.826 231.453 248.589 233.74 248.076 236.54H269.216ZM295.519 221.7C298.179 221.7 300.535 222.26 302.589 223.38C304.642 224.5 306.229 226.063 307.349 228.07C308.515 230.03 309.099 232.27 309.099 234.79V256H303.569V250.89H303.499C302.612 252.383 301.142 253.737 299.089 254.95C297.035 256.117 294.725 256.7 292.159 256.7C289.965 256.7 288.005 256.257 286.279 255.37C284.552 254.483 283.199 253.317 282.219 251.87C281.285 250.377 280.819 248.767 280.819 247.04C280.819 244.24 281.752 241.93 283.619 240.11C285.485 238.243 288.099 237.03 291.459 236.47L303.359 234.51V234.37C303.359 232.223 302.612 230.45 301.119 229.05C299.672 227.65 297.805 226.95 295.519 226.95C293.652 226.95 291.972 227.37 290.479 228.21C289.032 229.05 287.679 230.17 286.419 231.57L282.709 228C284.202 226.227 286.022 224.733 288.169 223.52C290.315 222.307 292.765 221.7 295.519 221.7ZM292.999 251.66C294.912 251.66 296.662 251.193 298.249 250.26C299.835 249.327 301.072 248.067 301.959 246.48C302.892 244.847 303.359 243.05 303.359 241.09V239.2L292.859 241.02C290.759 241.393 289.172 242.07 288.099 243.05C287.072 244.03 286.559 245.197 286.559 246.55C286.559 247.95 287.142 249.163 288.309 250.19C289.522 251.17 291.085 251.66 292.999 251.66Z" fill="#11112B"/>
<path d="M335.56 140.16C334.717 140.16 333.955 139.989 333.272 139.648C332.6 139.296 332.109 138.907 331.8 138.48L332.792 137.488C333.016 137.829 333.379 138.139 333.88 138.416C334.381 138.693 334.941 138.832 335.56 138.832C336.328 138.832 336.941 138.613 337.4 138.176C337.859 137.728 338.088 137.152 338.088 136.448C338.088 135.755 337.859 135.189 337.4 134.752C336.952 134.304 336.355 134.08 335.608 134.08C335.107 134.08 334.653 134.208 334.248 134.464C333.843 134.709 333.549 134.981 333.368 135.28L332.312 135.168L332.712 128.8H338.808V130.192H333.96L333.768 133.408C333.96 133.237 334.243 133.088 334.616 132.96C334.989 132.821 335.395 132.752 335.832 132.752C336.525 132.752 337.149 132.917 337.704 133.248C338.269 133.568 338.712 134.011 339.032 134.576C339.363 135.131 339.528 135.755 339.528 136.448C339.528 137.152 339.363 137.787 339.032 138.352C338.701 138.907 338.232 139.349 337.624 139.68C337.027 140 336.339 140.16 335.56 140.16ZM343.88 140.16C343.24 140.16 342.659 140.021 342.136 139.744C341.613 139.456 341.213 139.131 340.936 138.768L341.8 137.92C342.035 138.187 342.333 138.427 342.696 138.64C343.069 138.853 343.464 138.96 343.88 138.96C344.371 138.96 344.755 138.848 345.032 138.624C345.309 138.4 345.448 138.123 345.448 137.792C345.448 137.504 345.315 137.285 345.048 137.136C344.781 136.976 344.365 136.811 343.8 136.64C343.267 136.48 342.829 136.325 342.488 136.176C342.147 136.016 341.853 135.792 341.608 135.504C341.373 135.205 341.256 134.821 341.256 134.352C341.256 133.968 341.368 133.611 341.592 133.28C341.816 132.939 342.131 132.667 342.536 132.464C342.952 132.261 343.427 132.16 343.96 132.16C344.536 132.16 345.043 132.267 345.48 132.48C345.928 132.693 346.291 132.944 346.568 133.232L345.704 134.08C345.501 133.888 345.251 133.723 344.952 133.584C344.653 133.435 344.323 133.36 343.96 133.36C343.523 133.36 343.181 133.456 342.936 133.648C342.691 133.84 342.568 134.075 342.568 134.352C342.568 134.629 342.696 134.843 342.952 134.992C343.219 135.141 343.629 135.296 344.184 135.456C344.717 135.616 345.155 135.776 345.496 135.936C345.848 136.085 346.147 136.315 346.392 136.624C346.637 136.923 346.76 137.312 346.76 137.792C346.76 138.219 346.643 138.613 346.408 138.976C346.173 139.339 345.837 139.627 345.4 139.84C344.963 140.053 344.456 140.16 343.88 140.16ZM354.493 143.36V138.784H354.477C354.264 139.136 353.912 139.456 353.421 139.744C352.93 140.021 352.37 140.16 351.741 140.16C351.101 140.16 350.504 139.989 349.949 139.648C349.405 139.296 348.968 138.816 348.637 138.208C348.306 137.6 348.141 136.917 348.141 136.16C348.141 135.403 348.306 134.72 348.637 134.112C348.968 133.504 349.405 133.029 349.949 132.688C350.504 132.336 351.101 132.16 351.741 132.16C352.37 132.16 352.93 132.304 353.421 132.592C353.912 132.869 354.264 133.184 354.477 133.536H354.493V132.32H355.805V143.36H354.493ZM351.965 138.912C352.424 138.912 352.845 138.795 353.229 138.56C353.613 138.315 353.917 137.984 354.141 137.568C354.376 137.152 354.493 136.683 354.493 136.16C354.493 135.637 354.376 135.168 354.141 134.752C353.917 134.336 353.613 134.011 353.229 133.776C352.845 133.531 352.424 133.408 351.965 133.408C351.517 133.408 351.101 133.531 350.717 133.776C350.333 134.011 350.024 134.336 349.789 134.752C349.565 135.168 349.453 135.637 349.453 136.16C349.453 136.683 349.565 137.152 349.789 137.568C350.024 137.984 350.333 138.315 350.717 138.56C351.101 138.795 351.517 138.912 351.965 138.912ZM358.2 140V132.32H359.512V133.456H359.528C359.688 133.125 359.965 132.827 360.36 132.56C360.765 132.293 361.235 132.16 361.768 132.16C362.344 132.16 362.851 132.309 363.288 132.608C363.725 132.896 364.035 133.221 364.216 133.584H364.248C364.419 133.221 364.733 132.896 365.192 132.608C365.661 132.309 366.221 132.16 366.872 132.16C367.384 132.16 367.853 132.299 368.28 132.576C368.717 132.843 369.059 133.227 369.304 133.728C369.56 134.219 369.688 134.789 369.688 135.44V140H368.392V135.44C368.392 134.821 368.221 134.331 367.88 133.968C367.539 133.595 367.112 133.408 366.6 133.408C366.024 133.408 365.544 133.621 365.16 134.048C364.787 134.464 364.6 135.024 364.6 135.728V140H363.288V135.44C363.288 134.821 363.117 134.331 362.776 133.968C362.435 133.595 362.013 133.408 361.512 133.408C360.936 133.408 360.456 133.621 360.072 134.048C359.699 134.464 359.512 135.024 359.512 135.728V140H358.2Z" fill="#11112B"/>
</svg>
