<svg width="4906" height="272" viewBox="0 0 4906 272" fill="none" xmlns="http://www.w3.org/2000/svg">
<path d="M136.818 0C111.963 0 89.0457 6.12 68.0669 18.36C47.3162 30.6 30.784 47.1467 18.4704 68C6.15681 88.8533 0 111.633 0 136.34C0 161.047 6.15681 183.827 18.4704 204.68C30.784 225.307 47.3162 241.74 68.0669 253.98C89.0457 265.993 111.963 272 136.818 272V258.06C114.699 258.06 94.1763 252.62 75.2498 241.74C56.5514 230.86 41.6154 216.127 30.442 197.54C19.4966 178.727 14.0238 158.327 14.0238 136.34C14.0238 114.127 19.4966 93.7267 30.442 75.14C41.6154 56.3267 56.5514 41.48 75.2498 30.6C94.1763 19.4933 114.699 13.94 136.818 13.94V0Z" fill="#F3F3F3"/>
<path d="M251.906 176.46V162.18H323.736V176.46H251.906ZM210.177 272L284.743 4.07999L271.403 0.339996L196.837 267.92L210.177 272ZM305.265 0.339996L379.831 267.92L366.149 272L291.584 4.07999L305.265 0.339996Z" fill="#F3F3F3"/>
<path d="M501.427 272L488.087 268.6L552.392 0L566.073 3.06L501.427 272ZM467.222 272L480.904 268.6L416.258 0L402.918 3.06L467.222 272Z" fill="#F3F3F3"/>
<path d="M633.085 272H619.404L619.746 0H633.427L633.085 272ZM640.61 257.72H801.713V272H640.61V257.72ZM640.61 112.88L801.713 113.22V126.82H640.61V112.88ZM640.61 0H801.713V13.94H640.61V0Z" fill="#F3F3F3"/>
<path d="M892.614 176.46V162.18H964.443V176.46H892.614ZM850.884 272L925.45 4.07999L912.11 0.339996L837.545 267.92L850.884 272ZM945.973 0.339996L1020.54 267.92L1006.86 272L932.291 4.07999L945.973 0.339996Z" fill="#F3F3F3"/>
<path d="M1072.52 0H1058.84V272H1072.86L1072.52 0ZM1134.43 272L1144.35 262.14L1089.28 207.4L1079.7 217.26L1134.43 272ZM1079.7 191.76C1095.89 191.76 1110.83 187.793 1124.51 179.86C1138.42 171.927 1149.36 161.16 1157.35 147.56C1165.33 133.96 1169.32 119.113 1169.32 103.02C1169.32 86.9267 1165.33 72.08 1157.35 58.48C1149.36 44.88 1138.42 34.1133 1124.51 26.18C1110.83 18.02 1095.89 13.94 1079.7 13.94V0C1098.63 0 1115.96 4.64666 1131.69 13.94C1147.65 23.2333 1160.2 35.8133 1169.32 51.68C1178.67 67.32 1183.34 84.4333 1183.34 103.02C1183.34 121.607 1178.67 138.833 1169.32 154.7C1159.97 170.34 1147.31 182.807 1131.35 192.1C1115.62 201.167 1098.4 205.7 1079.7 205.7V191.76Z" fill="#F3F3F3"/>
<path d="M1353.35 0C1328.49 0 1305.58 6.12 1284.6 18.36C1263.85 30.6 1247.31 47.1467 1235 68C1222.69 88.8533 1216.53 111.633 1216.53 136.34C1216.53 161.047 1222.69 183.827 1235 204.68C1247.31 225.307 1263.85 241.74 1284.6 253.98C1305.58 265.993 1328.49 272 1353.35 272V258.06C1331.23 258.06 1310.71 252.62 1291.78 241.74C1273.08 230.86 1258.15 216.127 1246.97 197.54C1236.03 178.727 1230.55 158.327 1230.55 136.34C1230.55 114.127 1236.03 93.7267 1246.97 75.14C1258.15 56.3267 1273.08 41.48 1291.78 30.6C1310.71 19.4933 1331.23 13.94 1353.35 13.94V0Z" fill="#F3F3F3"/>
<path d="M1393.37 272H1407.39L1407.05 0H1393.37V272ZM1554.81 143.82V129.88H1414.23V143.48L1554.81 143.82ZM1562 272H1575.68L1575.34 0H1561.65L1562 272Z" fill="#F3F3F3"/>
<path d="M1791.32 0C1766.47 0 1743.55 6.12 1722.57 18.36C1701.82 30.6 1685.29 47.1467 1672.97 68C1660.66 88.8533 1654.5 111.633 1654.5 136.34C1654.5 161.047 1660.66 183.827 1672.97 204.68C1685.29 225.307 1701.82 241.74 1722.57 253.98C1743.55 265.993 1766.47 272 1791.32 272V258.06C1769.2 258.06 1748.68 252.62 1729.75 241.74C1711.05 230.86 1696.12 216.127 1684.95 197.54C1674 178.727 1668.53 158.327 1668.53 136.34C1668.53 114.127 1674 93.7267 1684.95 75.14C1696.12 56.3267 1711.05 41.48 1729.75 30.6C1748.68 19.4933 1769.2 13.94 1791.32 13.94V0Z" fill="#F3F3F3"/>
<path d="M2080.11 135.66C2080.11 157.873 2074.52 178.387 2063.35 197.2C2052.4 215.787 2037.47 230.633 2018.54 241.74C1999.84 252.62 1979.43 258.06 1957.31 258.06V272C1982.17 272 2004.97 265.88 2025.72 253.64C2046.7 241.4 2063.35 224.853 2075.66 204C2087.97 183.147 2094.13 160.367 2094.13 135.66C2094.13 110.953 2087.97 88.2867 2075.66 67.66C2063.35 46.8067 2046.7 30.3733 2025.72 18.36C2004.97 6.12 1982.17 0 1957.31 0V13.94C1979.43 13.94 1999.84 19.38 2018.54 30.26C2037.47 41.14 2052.4 55.9867 2063.35 74.8C2074.52 93.3867 2080.11 113.673 2080.11 135.66ZM1813.65 136.34C1813.65 161.047 1819.81 183.827 1832.12 204.68C1844.44 225.307 1860.97 241.74 1881.72 253.98C1902.7 265.993 1925.62 272 1950.47 272V258.06C1928.13 258.06 1907.49 252.62 1888.56 241.74C1869.86 230.86 1854.93 216.127 1843.75 197.54C1832.81 178.727 1827.34 158.327 1827.34 136.34C1827.34 114.127 1832.81 93.7267 1843.75 75.14C1854.93 56.3267 1869.86 41.48 1888.56 30.6C1907.49 19.4933 1928.13 13.94 1950.47 13.94V0C1925.62 0 1902.7 6.12 1881.72 18.36C1860.97 30.6 1844.44 47.1467 1832.12 68C1819.81 88.8533 1813.65 111.633 1813.65 136.34Z" fill="#F3F3F3"/>
<path d="M2175.52 0L2189.2 3.06L2124.56 272L2111.22 268.26L2175.52 0ZM2260.69 272L2274.37 268.26L2209.73 0L2196.39 3.06L2260.69 272ZM2344.83 0L2358.51 3.06L2294.21 272L2280.53 268.26L2344.83 0ZM2429.66 272L2443 268.26L2378.7 0L2365.01 3.06L2429.66 272Z" fill="#F3F3F3"/>
<rect x="1626" y="249" width="23" height="23" fill="#F3F3F3"/>
<path d="M2599.82 0C2574.96 0 2552.05 6.12 2531.07 18.36C2510.32 30.6 2493.78 47.1467 2481.47 68C2469.16 88.8533 2463 111.633 2463 136.34C2463 161.047 2469.16 183.827 2481.47 204.68C2493.78 225.307 2510.32 241.74 2531.07 253.98C2552.05 265.993 2574.96 272 2599.82 272V258.06C2577.7 258.06 2557.18 252.62 2538.25 241.74C2519.55 230.86 2504.62 216.127 2493.44 197.54C2482.5 178.727 2477.02 158.327 2477.02 136.34C2477.02 114.127 2482.5 93.7267 2493.44 75.14C2504.62 56.3267 2519.55 41.48 2538.25 30.6C2557.18 19.4933 2577.7 13.94 2599.82 13.94V0Z" fill="#F3F3F3"/>
<path d="M2714.91 176.46V162.18H2786.74V176.46H2714.91ZM2673.18 272L2747.74 4.07999L2734.4 0.339996L2659.84 267.92L2673.18 272ZM2768.27 0.339996L2842.83 267.92L2829.15 272L2754.58 4.07999L2768.27 0.339996Z" fill="#F3F3F3"/>
<path d="M2964.43 272L2951.09 268.6L3015.39 0L3029.07 3.06L2964.43 272ZM2930.22 272L2943.9 268.6L2879.26 0L2865.92 3.06L2930.22 272Z" fill="#F3F3F3"/>
<path d="M3096.09 272H3082.4L3082.75 0H3096.43L3096.09 272ZM3103.61 257.72H3264.71V272H3103.61V257.72ZM3103.61 112.88L3264.71 113.22V126.82H3103.61V112.88ZM3103.61 0H3264.71V13.94H3103.61V0Z" fill="#F3F3F3"/>
<path d="M3355.61 176.46V162.18H3427.44V176.46H3355.61ZM3313.88 272L3388.45 4.07999L3375.11 0.339996L3300.54 267.92L3313.88 272ZM3408.97 0.339996L3483.54 267.92L3469.86 272L3395.29 4.07999L3408.97 0.339996Z" fill="#F3F3F3"/>
<path d="M3535.52 0H3521.84V272H3535.86L3535.52 0ZM3597.43 272L3607.35 262.14L3552.28 207.4L3542.7 217.26L3597.43 272ZM3542.7 191.76C3558.89 191.76 3573.83 187.793 3587.51 179.86C3601.42 171.927 3612.36 161.16 3620.35 147.56C3628.33 133.96 3632.32 119.113 3632.32 103.02C3632.32 86.9267 3628.33 72.08 3620.35 58.48C3612.36 44.88 3601.42 34.1133 3587.51 26.18C3573.83 18.02 3558.89 13.94 3542.7 13.94V0C3561.63 0 3578.96 4.64666 3594.69 13.94C3610.65 23.2333 3623.2 35.8133 3632.32 51.68C3641.67 67.32 3646.34 84.4333 3646.34 103.02C3646.34 121.607 3641.67 138.833 3632.32 154.7C3622.97 170.34 3610.31 182.807 3594.35 192.1C3578.62 201.167 3561.4 205.7 3542.7 205.7V191.76Z" fill="#F3F3F3"/>
<path d="M3816.35 0C3791.49 0 3768.58 6.12 3747.6 18.36C3726.85 30.6 3710.31 47.1467 3698 68C3685.69 88.8533 3679.53 111.633 3679.53 136.34C3679.53 161.047 3685.69 183.827 3698 204.68C3710.31 225.307 3726.85 241.74 3747.6 253.98C3768.58 265.993 3791.49 272 3816.35 272V258.06C3794.23 258.06 3773.71 252.62 3754.78 241.74C3736.08 230.86 3721.15 216.127 3709.97 197.54C3699.03 178.727 3693.55 158.327 3693.55 136.34C3693.55 114.127 3699.03 93.7267 3709.97 75.14C3721.15 56.3267 3736.08 41.48 3754.78 30.6C3773.71 19.4933 3794.23 13.94 3816.35 13.94V0Z" fill="#F3F3F3"/>
<path d="M3856.37 272H3870.39L3870.05 0H3856.37V272ZM4017.81 143.82V129.88H3877.23V143.48L4017.81 143.82ZM4025 272H4038.68L4038.34 0H4024.65L4025 272Z" fill="#F3F3F3"/>
<path d="M4254.32 0C4229.47 0 4206.55 6.12 4185.57 18.36C4164.82 30.6 4148.29 47.1467 4135.97 68C4123.66 88.8533 4117.5 111.633 4117.5 136.34C4117.5 161.047 4123.66 183.827 4135.97 204.68C4148.29 225.307 4164.82 241.74 4185.57 253.98C4206.55 265.993 4229.47 272 4254.32 272V258.06C4232.2 258.06 4211.68 252.62 4192.75 241.74C4174.05 230.86 4159.12 216.127 4147.95 197.54C4137 178.727 4131.53 158.327 4131.53 136.34C4131.53 114.127 4137 93.7267 4147.95 75.14C4159.12 56.3267 4174.05 41.48 4192.75 30.6C4211.68 19.4933 4232.2 13.94 4254.32 13.94V0Z" fill="#F3F3F3"/>
<path d="M4543.11 135.66C4543.11 157.873 4537.52 178.387 4526.35 197.2C4515.4 215.787 4500.47 230.633 4481.54 241.74C4462.84 252.62 4442.43 258.06 4420.31 258.06V272C4445.17 272 4467.97 265.88 4488.72 253.64C4509.7 241.4 4526.35 224.853 4538.66 204C4550.97 183.147 4557.13 160.367 4557.13 135.66C4557.13 110.953 4550.97 88.2867 4538.66 67.66C4526.35 46.8067 4509.7 30.3733 4488.72 18.36C4467.97 6.12 4445.17 0 4420.31 0V13.94C4442.43 13.94 4462.84 19.38 4481.54 30.26C4500.47 41.14 4515.4 55.9867 4526.35 74.8C4537.52 93.3867 4543.11 113.673 4543.11 135.66ZM4276.65 136.34C4276.65 161.047 4282.81 183.827 4295.12 204.68C4307.44 225.307 4323.97 241.74 4344.72 253.98C4365.7 265.993 4388.62 272 4413.47 272V258.06C4391.13 258.06 4370.49 252.62 4351.56 241.74C4332.86 230.86 4317.93 216.127 4306.75 197.54C4295.81 178.727 4290.34 158.327 4290.34 136.34C4290.34 114.127 4295.81 93.7267 4306.75 75.14C4317.93 56.3267 4332.86 41.48 4351.56 30.6C4370.49 19.4933 4391.13 13.94 4413.47 13.94V0C4388.62 0 4365.7 6.12 4344.72 18.36C4323.97 30.6 4307.44 47.1467 4295.12 68C4282.81 88.8533 4276.65 111.633 4276.65 136.34Z" fill="#F3F3F3"/>
<path d="M4638.52 0L4652.2 3.06L4587.56 272L4574.22 268.26L4638.52 0ZM4723.69 272L4737.37 268.26L4672.73 0L4659.39 3.06L4723.69 272ZM4807.83 0L4821.51 3.06L4757.21 272L4743.53 268.26L4807.83 0ZM4892.66 272L4906 268.26L4841.7 0L4828.01 3.06L4892.66 272Z" fill="#F3F3F3"/>
<rect x="4089" y="249" width="23" height="23" fill="#F3F3F3"/>
</svg>
