<svg width="554" height="432" viewBox="0 0 554 432" fill="none" xmlns="http://www.w3.org/2000/svg">
<path d="M0 431V5L417 2L545 144L194 428L0 431Z" fill="#F3F3F3"/>
<path d="M6 71V6H416.5L545 147L201 426H6V243" stroke="#E84A0F" stroke-width="12"/>
<path d="M93.7788 160H88.3188L76.6288 126.4H82.7188L91.2588 151.74H91.3988L99.5888 126.4H104.139L112.329 151.88H112.469L120.939 126.4L126.819 126.4L115.129 160H109.669L101.829 135.5H101.689L93.7788 160ZM148.04 160.7C144.867 160.7 141.95 159.93 139.29 158.39C136.677 156.803 134.6 154.68 133.06 152.02C131.52 149.36 130.75 146.42 130.75 143.2C130.75 139.98 131.52 137.04 133.06 134.38C134.6 131.72 136.677 129.62 139.29 128.08C141.95 126.493 144.867 125.7 148.04 125.7C151.214 125.7 154.107 126.493 156.72 128.08C159.38 129.62 161.48 131.72 163.02 134.38C164.56 137.04 165.33 139.98 165.33 143.2C165.33 146.42 164.56 149.36 163.02 152.02C161.48 154.68 159.38 156.803 156.72 158.39C154.107 159.93 151.214 160.7 148.04 160.7ZM148.04 155.24C150.14 155.24 152.077 154.727 153.85 153.7C155.624 152.627 157.024 151.18 158.05 149.36C159.077 147.493 159.59 145.44 159.59 143.2C159.59 140.96 159.077 138.93 158.05 137.11C157.024 135.243 155.624 133.797 153.85 132.77C152.077 131.697 150.14 131.16 148.04 131.16C145.94 131.16 144.004 131.697 142.23 132.77C140.457 133.797 139.057 135.243 138.03 137.11C137.004 138.93 136.49 140.96 136.49 143.2C136.49 145.44 137.004 147.493 138.03 149.36C139.057 151.18 140.457 152.627 142.23 153.7C144.004 154.727 145.94 155.24 148.04 155.24ZM173.596 160V126.4H179.336V131.3H179.406C180.339 129.853 181.739 128.57 183.606 127.45C185.519 126.283 187.666 125.7 190.046 125.7H191.656V131.65C190.536 131.51 189.766 131.44 189.346 131.44C187.526 131.44 185.846 131.907 184.306 132.84C182.812 133.773 181.599 135.08 180.666 136.76C179.779 138.393 179.336 140.237 179.336 142.29V160L173.596 160ZM204.363 160H198.623V111L204.363 111V143.34L220.113 126.4H227.323L214.513 140.05L228.583 160H221.933L210.733 144.11L204.363 150.9V160ZM240.936 160H235.196V126.4H240.936V160ZM238.066 119.54C237.086 119.54 236.222 119.19 235.476 118.49C234.776 117.79 234.426 116.927 234.426 115.9C234.426 114.873 234.776 114.01 235.476 113.31C236.222 112.61 237.086 112.26 238.066 112.26C238.999 112.26 239.816 112.61 240.516 113.31C241.262 114.01 241.636 114.873 241.636 115.9C241.636 116.927 241.262 117.79 240.516 118.49C239.816 119.19 238.999 119.54 238.066 119.54ZM251.799 160V126.4H257.539V131.51H257.609C258.542 130.017 259.965 128.687 261.879 127.52C263.792 126.307 265.962 125.7 268.389 125.7C270.955 125.7 273.242 126.307 275.249 127.52C277.302 128.733 278.889 130.437 280.009 132.63C281.175 134.823 281.759 137.367 281.759 140.26V160H276.089V140.26C276.089 137.553 275.272 135.36 273.639 133.68C272.005 132 269.929 131.16 267.409 131.16C264.609 131.16 262.252 132.14 260.339 134.1C258.472 136.06 257.539 138.557 257.539 141.59V160H251.799ZM305.436 174.7C302.356 174.7 299.462 173.953 296.756 172.46C294.096 171.013 292.182 169.427 291.016 167.7L295.076 163.99C295.962 165.297 297.362 166.487 299.276 167.56C301.236 168.68 303.289 169.24 305.436 169.24C308.702 169.24 311.316 168.143 313.276 165.95C315.282 163.757 316.286 160.91 316.286 157.41V153.49H316.216C315.142 155.123 313.579 156.5 311.526 157.62C309.472 158.74 307.256 159.3 304.876 159.3C302.169 159.3 299.649 158.577 297.316 157.13C294.982 155.683 293.116 153.677 291.716 151.11C290.362 148.543 289.686 145.673 289.686 142.5C289.686 139.327 290.362 136.457 291.716 133.89C293.116 131.323 294.982 129.317 297.316 127.87C299.649 126.423 302.169 125.7 304.876 125.7C307.442 125.7 309.729 126.307 311.736 127.52C313.789 128.733 315.282 130.063 316.216 131.51H316.286V126.4H322.026V157.41C322.026 160.677 321.302 163.617 319.856 166.23C318.456 168.89 316.496 170.967 313.976 172.46C311.456 173.953 308.609 174.7 305.436 174.7ZM305.786 153.84C307.746 153.84 309.519 153.35 311.106 152.37C312.692 151.39 313.952 150.06 314.886 148.38C315.819 146.653 316.286 144.693 316.286 142.5C316.286 140.307 315.819 138.37 314.886 136.69C313.952 134.963 312.692 133.61 311.106 132.63C309.519 131.65 307.746 131.16 305.786 131.16C303.919 131.16 302.192 131.65 300.606 132.63C299.019 133.61 297.759 134.963 296.826 136.69C295.892 138.417 295.426 140.353 295.426 142.5C295.426 144.647 295.892 146.583 296.826 148.31C297.759 150.037 299.019 151.39 300.606 152.37C302.192 153.35 303.919 153.84 305.786 153.84ZM151.739 183.7C154.399 183.7 156.756 184.26 158.809 185.38C160.863 186.5 162.449 188.063 163.569 190.07C164.736 192.03 165.319 194.27 165.319 196.79V218H159.789V212.89H159.719C158.833 214.383 157.363 215.737 155.309 216.95C153.256 218.117 150.946 218.7 148.379 218.7C146.186 218.7 144.226 218.257 142.499 217.37C140.773 216.483 139.419 215.317 138.439 213.87C137.506 212.377 137.039 210.767 137.039 209.04C137.039 206.24 137.973 203.93 139.839 202.11C141.706 200.243 144.319 199.03 147.679 198.47L159.579 196.51V196.37C159.579 194.223 158.833 192.45 157.339 191.05C155.893 189.65 154.026 188.95 151.739 188.95C149.873 188.95 148.193 189.37 146.699 190.21C145.253 191.05 143.899 192.17 142.639 193.57L138.929 190C140.423 188.227 142.243 186.733 144.389 185.52C146.536 184.307 148.986 183.7 151.739 183.7ZM149.219 213.66C151.133 213.66 152.883 213.193 154.469 212.26C156.056 211.327 157.293 210.067 158.179 208.48C159.113 206.847 159.579 205.05 159.579 203.09V201.2L149.079 203.02C146.979 203.393 145.393 204.07 144.319 205.05C143.293 206.03 142.779 207.197 142.779 208.55C142.779 209.95 143.363 211.163 144.529 212.19C145.743 213.17 147.306 213.66 149.219 213.66ZM175.441 218V184.4H181.181V189.3H181.251C182.185 187.853 183.585 186.57 185.451 185.45C187.365 184.283 189.511 183.7 191.891 183.7H193.501V189.65C192.381 189.51 191.611 189.44 191.191 189.44C189.371 189.44 187.691 189.907 186.151 190.84C184.658 191.773 183.445 193.08 182.511 194.76C181.625 196.393 181.181 198.237 181.181 200.29V218H175.441ZM214.346 218.7C211.219 218.7 208.349 217.93 205.736 216.39C203.122 214.803 201.046 212.68 199.506 210.02C197.966 207.36 197.196 204.42 197.196 201.2C197.196 197.933 197.942 194.97 199.436 192.31C200.976 189.65 203.029 187.55 205.596 186.01C208.162 184.47 210.962 183.7 213.996 183.7C216.982 183.7 219.712 184.423 222.186 185.87C224.659 187.317 226.596 189.323 227.996 191.89C229.396 194.41 230.096 197.28 230.096 200.5C230.096 201.247 230.026 202.18 229.886 203.3H203.146C203.519 206.1 204.779 208.457 206.926 210.37C209.072 212.283 211.639 213.24 214.626 213.24C218.312 213.24 221.602 211.7 224.496 208.62L228.346 212.19C226.992 213.963 225.102 215.503 222.676 216.81C220.296 218.07 217.519 218.7 214.346 218.7ZM224.216 198.54C223.749 195.6 222.606 193.267 220.786 191.54C219.012 189.813 216.749 188.95 213.996 188.95C211.149 188.95 208.746 189.86 206.786 191.68C204.826 193.453 203.589 195.74 203.076 198.54H224.216ZM250.519 183.7C253.179 183.7 255.535 184.26 257.589 185.38C259.642 186.5 261.229 188.063 262.349 190.07C263.515 192.03 264.099 194.27 264.099 196.79V218H258.569V212.89H258.499C257.612 214.383 256.142 215.737 254.089 216.95C252.035 218.117 249.725 218.7 247.159 218.7C244.965 218.7 243.005 218.257 241.279 217.37C239.552 216.483 238.199 215.317 237.219 213.87C236.285 212.377 235.819 210.767 235.819 209.04C235.819 206.24 236.752 203.93 238.619 202.11C240.485 200.243 243.099 199.03 246.459 198.47L258.359 196.51V196.37C258.359 194.223 257.612 192.45 256.119 191.05C254.672 189.65 252.805 188.95 250.519 188.95C248.652 188.95 246.972 189.37 245.479 190.21C244.032 191.05 242.679 192.17 241.419 193.57L237.709 190C239.202 188.227 241.022 186.733 243.169 185.52C245.315 184.307 247.765 183.7 250.519 183.7ZM247.999 213.66C249.912 213.66 251.662 213.193 253.249 212.26C254.835 211.327 256.072 210.067 256.959 208.48C257.892 206.847 258.359 205.05 258.359 203.09V201.2L247.859 203.02C245.759 203.393 244.172 204.07 243.099 205.05C242.072 206.03 241.559 207.197 241.559 208.55C241.559 209.95 242.142 211.163 243.309 212.19C244.522 213.17 246.085 213.66 247.999 213.66Z" fill="#11112B"/>
<path d="M287.752 97.16C286.995 97.16 286.317 97.0107 285.72 96.712C285.133 96.4133 284.68 96.0133 284.36 95.512C284.04 95 283.88 94.44 283.88 93.832C283.88 93.128 284.088 92.5253 284.504 92.024C284.92 91.512 285.379 91.16 285.88 90.968C285.443 90.7653 285.08 90.456 284.792 90.04C284.504 89.624 284.36 89.1333 284.36 88.568C284.36 88.0453 284.504 87.56 284.792 87.112C285.08 86.664 285.48 86.3067 285.992 86.04C286.504 85.7733 287.091 85.64 287.752 85.64C288.403 85.64 288.984 85.7733 289.496 86.04C290.019 86.3067 290.419 86.664 290.696 87.112C290.984 87.56 291.128 88.0453 291.128 88.568C291.128 89.1333 290.984 89.624 290.696 90.04C290.408 90.456 290.045 90.7653 289.608 90.968C290.109 91.16 290.568 91.512 290.984 92.024C291.4 92.5253 291.608 93.128 291.608 93.832C291.608 94.44 291.448 95 291.128 95.512C290.808 96.0133 290.355 96.4133 289.768 96.712C289.181 97.0107 288.509 97.16 287.752 97.16ZM287.752 90.36C288.339 90.36 288.808 90.2053 289.16 89.896C289.512 89.576 289.688 89.1707 289.688 88.68C289.688 88.1893 289.512 87.784 289.16 87.464C288.808 87.1333 288.339 86.968 287.752 86.968C287.165 86.968 286.691 87.1333 286.328 87.464C285.976 87.784 285.8 88.1893 285.8 88.68C285.8 89.1707 285.976 89.576 286.328 89.896C286.691 90.2053 287.165 90.36 287.752 90.36ZM287.752 95.832C288.488 95.832 289.075 95.64 289.512 95.256C289.949 94.8613 290.168 94.3653 290.168 93.768C290.168 93.1813 289.944 92.6907 289.496 92.296C289.059 91.8907 288.477 91.688 287.752 91.688C287.016 91.688 286.424 91.8907 285.976 92.296C285.539 92.6907 285.32 93.1813 285.32 93.768C285.32 94.3653 285.539 94.8613 285.976 95.256C286.424 95.64 287.016 95.832 287.752 95.832ZM296.036 97.16C295.396 97.16 294.815 97.0213 294.292 96.744C293.77 96.456 293.37 96.1307 293.092 95.768L293.956 94.92C294.191 95.1867 294.49 95.4267 294.852 95.64C295.226 95.8533 295.62 95.96 296.036 95.96C296.527 95.96 296.911 95.848 297.188 95.624C297.466 95.4 297.604 95.1227 297.604 94.792C297.604 94.504 297.471 94.2853 297.204 94.136C296.938 93.976 296.522 93.8107 295.956 93.64C295.423 93.48 294.986 93.3253 294.644 93.176C294.303 93.016 294.01 92.792 293.764 92.504C293.53 92.2053 293.412 91.8213 293.412 91.352C293.412 90.968 293.524 90.6107 293.748 90.28C293.972 89.9387 294.287 89.6667 294.692 89.464C295.108 89.2613 295.583 89.16 296.116 89.16C296.692 89.16 297.199 89.2667 297.636 89.48C298.084 89.6933 298.447 89.944 298.724 90.232L297.86 91.08C297.658 90.888 297.407 90.7227 297.108 90.584C296.81 90.4347 296.479 90.36 296.116 90.36C295.679 90.36 295.338 90.456 295.092 90.648C294.847 90.84 294.724 91.0747 294.724 91.352C294.724 91.6293 294.852 91.8427 295.108 91.992C295.375 92.1413 295.786 92.296 296.34 92.456C296.874 92.616 297.311 92.776 297.652 92.936C298.004 93.0853 298.303 93.3147 298.548 93.624C298.794 93.9227 298.916 94.312 298.916 94.792C298.916 95.2187 298.799 95.6133 298.564 95.976C298.33 96.3387 297.994 96.6267 297.556 96.84C297.119 97.0533 296.612 97.16 296.036 97.16ZM306.649 100.36V95.784H306.633C306.42 96.136 306.068 96.456 305.577 96.744C305.087 97.0213 304.527 97.16 303.897 97.16C303.257 97.16 302.66 96.9893 302.105 96.648C301.561 96.296 301.124 95.816 300.793 95.208C300.463 94.6 300.297 93.9173 300.297 93.16C300.297 92.4027 300.463 91.72 300.793 91.112C301.124 90.504 301.561 90.0293 302.105 89.688C302.66 89.336 303.257 89.16 303.897 89.16C304.527 89.16 305.087 89.304 305.577 89.592C306.068 89.8693 306.42 90.184 306.633 90.536H306.649V89.32H307.961V100.36H306.649ZM304.121 95.912C304.58 95.912 305.001 95.7947 305.385 95.56C305.769 95.3147 306.073 94.984 306.297 94.568C306.532 94.152 306.649 93.6827 306.649 93.16C306.649 92.6373 306.532 92.168 306.297 91.752C306.073 91.336 305.769 91.0107 305.385 90.776C305.001 90.5307 304.58 90.408 304.121 90.408C303.673 90.408 303.257 90.5307 302.873 90.776C302.489 91.0107 302.18 91.336 301.945 91.752C301.721 92.168 301.609 92.6373 301.609 93.16C301.609 93.6827 301.721 94.152 301.945 94.568C302.18 94.984 302.489 95.3147 302.873 95.56C303.257 95.7947 303.673 95.912 304.121 95.912ZM310.356 97V89.32H311.668V90.456H311.684C311.844 90.1253 312.122 89.8267 312.516 89.56C312.922 89.2933 313.391 89.16 313.924 89.16C314.5 89.16 315.007 89.3093 315.444 89.608C315.882 89.896 316.191 90.2213 316.372 90.584H316.404C316.575 90.2213 316.89 89.896 317.348 89.608C317.818 89.3093 318.378 89.16 319.028 89.16C319.54 89.16 320.01 89.2987 320.436 89.576C320.874 89.8427 321.215 90.2267 321.46 90.728C321.716 91.2187 321.844 91.7893 321.844 92.44V97H320.548V92.44C320.548 91.8213 320.378 91.3307 320.036 90.968C319.695 90.5947 319.268 90.408 318.756 90.408C318.18 90.408 317.7 90.6213 317.316 91.048C316.943 91.464 316.756 92.024 316.756 92.728V97H315.444V92.44C315.444 91.8213 315.274 91.3307 314.932 90.968C314.591 90.5947 314.17 90.408 313.668 90.408C313.092 90.408 312.612 90.6213 312.228 91.048C311.855 91.464 311.668 92.024 311.668 92.728V97H310.356Z" fill="#11112B"/>
</svg>
