<svg width="439" height="439" viewBox="0 0 439 439" fill="none" xmlns="http://www.w3.org/2000/svg">
<path d="M110 178.702L125.079 178.702L125.082 119L110.003 119L110 178.702Z" fill="#11112B"/>
<path d="M125.087 209H110.008L109.996 439H125.075L125.087 209Z" fill="#11112B"/>
<path d="M226.998 439L242.077 439L242.082 336L227.003 336L226.998 439Z" fill="#11112B"/>
<path d="M395.088 264H380.009L380 439H395.079L395.088 264Z" fill="#11112B"/>
<path d="M289.495 110.57L281.955 97.5107L118 192.159L125.539 205.218L289.495 110.57Z" fill="#11112B"/>
<path d="M387.932 257.984L395.472 244.925L234.54 152L227 165.059L387.932 257.984Z" fill="#11112B"/>
<path d="M386.358 412.075L393.897 399.016L234.54 307L227 320.059L386.358 412.075Z" fill="#11112B"/>
</svg>
