<svg width="439" height="439" viewBox="0 0 439 439" fill="none" xmlns="http://www.w3.org/2000/svg">
<path d="M209.013 322H224.092L224.097 439H209.018L209.013 322Z" fill="#11112B"/>
<path d="M119.013 322H134.092L134.097 439H119.018L119.013 322Z" fill="#11112B"/>
<path d="M141.397 337.082L141.397 322.003L201.099 322L201.099 337.079L141.397 337.082Z" fill="#11112B"/>
<path d="M39.0988 220.089L39.0988 205.01L229.098 205L229.098 220.079L39.0988 220.089Z" fill="#11112B"/>
<path d="M373.995 49H389.074L389.094 439H374.015L373.995 49Z" fill="#11112B"/>
<path d="M240.995 135H256.074L256.09 439H241.011L240.995 135Z" fill="#11112B"/>
<path d="M39.0001 229H54.0791L54.0898 439H39.0109L39.0001 229Z" fill="#11112B"/>
<path d="M358.559 48.9998L366.099 62.0586L248.614 129.897L241.074 116.838L358.559 48.9998Z" fill="#11112B"/>
</svg>
