<svg width="1440" height="272" viewBox="0 0 1440 272" fill="none" xmlns="http://www.w3.org/2000/svg">
<path d="M-373.182 0C-398.037 0 -420.954 6.12 -441.933 18.36C-462.684 30.6 -479.216 47.1467 -491.53 68C-503.843 88.8533 -510 111.633 -510 136.34C-510 161.047 -503.843 183.827 -491.53 204.68C-479.216 225.307 -462.684 241.74 -441.933 253.98C-420.954 265.993 -398.037 272 -373.182 272V258.06C-395.301 258.06 -415.824 252.62 -434.75 241.74C-453.449 230.86 -468.385 216.127 -479.558 197.54C-490.503 178.727 -495.976 158.327 -495.976 136.34C-495.976 114.127 -490.503 93.7267 -479.558 75.14C-468.385 56.3267 -453.449 41.48 -434.75 30.6C-415.824 19.4933 -395.301 13.94 -373.182 13.94V0Z" fill="#F3F3F3"/>
<path d="M-258.094 176.46V162.18H-186.264V176.46H-258.094ZM-299.823 272L-225.257 4.07999L-238.597 0.339996L-313.163 267.92L-299.823 272ZM-204.735 0.339996L-130.169 267.92L-143.851 272L-218.416 4.07999L-204.735 0.339996Z" fill="#F3F3F3"/>
<path d="M-8.57309 272L-21.9128 268.6L42.3916 0L56.0734 3.06L-8.57309 272ZM-42.7776 272L-29.0958 268.6L-93.7422 0L-107.082 3.06L-42.7776 272Z" fill="#F3F3F3"/>
<path d="M123.085 272H109.404L109.746 0H123.427L123.085 272ZM130.61 257.72H291.713V272H130.61V257.72ZM130.61 112.88L291.713 113.22V126.82H130.61V112.88ZM130.61 0H291.713V13.94H130.61V0Z" fill="#F3F3F3"/>
<path d="M382.614 176.46V162.18H454.443V176.46H382.614ZM340.884 272L415.45 4.07999L402.11 0.339996L327.545 267.92L340.884 272ZM435.973 0.339996L510.539 267.92L496.857 272L422.291 4.07999L435.973 0.339996Z" fill="#F3F3F3"/>
<path d="M562.519 0H548.837V272H562.861L562.519 0ZM624.429 272L634.348 262.14L579.279 207.4L569.702 217.26L624.429 272ZM569.702 191.76C585.892 191.76 600.828 187.793 614.51 179.86C628.419 171.927 639.365 161.16 647.346 147.56C655.327 133.96 659.317 119.113 659.317 103.02C659.317 86.9267 655.327 72.08 647.346 58.48C639.365 44.88 628.419 34.1133 614.51 26.18C600.828 18.02 585.892 13.94 569.702 13.94V0C588.628 0 605.958 4.64666 621.693 13.94C637.655 23.2333 650.196 35.8133 659.317 51.68C668.667 67.32 673.341 84.4333 673.341 103.02C673.341 121.607 668.667 138.833 659.317 154.7C649.968 170.34 637.312 182.807 621.35 192.1C605.616 201.167 588.4 205.7 569.702 205.7V191.76Z" fill="#F3F3F3"/>
<path d="M843.348 0C818.493 0 795.576 6.12 774.597 18.36C753.846 30.6 737.314 47.1467 725.001 68C712.687 88.8533 706.53 111.633 706.53 136.34C706.53 161.047 712.687 183.827 725.001 204.68C737.314 225.307 753.846 241.74 774.597 253.98C795.576 265.993 818.493 272 843.348 272V258.06C821.229 258.06 800.707 252.62 781.78 241.74C763.082 230.86 748.146 216.127 736.972 197.54C726.027 178.727 720.554 158.327 720.554 136.34C720.554 114.127 726.027 93.7267 736.972 75.14C748.146 56.3267 763.082 41.48 781.78 30.6C800.707 19.4933 821.229 13.94 843.348 13.94V0Z" fill="#F3F3F3"/>
<path d="M883.367 272H897.391L897.049 0H883.367V272ZM1044.81 143.82V129.88H904.232V143.48L1044.81 143.82ZM1052 272H1065.68L1065.34 0H1051.65L1052 272Z" fill="#F3F3F3"/>
<path d="M1281.32 0C1256.47 0 1233.55 6.12 1212.57 18.36C1191.82 30.6 1175.29 47.1467 1162.97 68C1150.66 88.8533 1144.5 111.633 1144.5 136.34C1144.5 161.047 1150.66 183.827 1162.97 204.68C1175.29 225.307 1191.82 241.74 1212.57 253.98C1233.55 265.993 1256.47 272 1281.32 272V258.06C1259.2 258.06 1238.68 252.62 1219.75 241.74C1201.05 230.86 1186.12 216.127 1174.95 197.54C1164 178.727 1158.53 158.327 1158.53 136.34C1158.53 114.127 1164 93.7267 1174.95 75.14C1186.12 56.3267 1201.05 41.48 1219.75 30.6C1238.68 19.4933 1259.2 13.94 1281.32 13.94V0Z" fill="#F3F3F3"/>
<path d="M1570.11 135.66C1570.11 157.873 1564.52 178.387 1553.35 197.2C1542.4 215.787 1527.47 230.633 1508.54 241.74C1489.84 252.62 1469.43 258.06 1447.31 258.06V272C1472.17 272 1494.97 265.88 1515.72 253.64C1536.7 241.4 1553.35 224.853 1565.66 204C1577.97 183.147 1584.13 160.367 1584.13 135.66C1584.13 110.953 1577.97 88.2867 1565.66 67.66C1553.35 46.8067 1536.7 30.3733 1515.72 18.36C1494.97 6.12 1472.17 0 1447.31 0V13.94C1469.43 13.94 1489.84 19.38 1508.54 30.26C1527.47 41.14 1542.4 55.9867 1553.35 74.8C1564.52 93.3867 1570.11 113.673 1570.11 135.66ZM1303.65 136.34C1303.65 161.047 1309.81 183.827 1322.12 204.68C1334.44 225.307 1350.97 241.74 1371.72 253.98C1392.7 265.993 1415.62 272 1440.47 272V258.06C1418.13 258.06 1397.49 252.62 1378.56 241.74C1359.86 230.86 1344.93 216.127 1333.75 197.54C1322.81 178.727 1317.34 158.327 1317.34 136.34C1317.34 114.127 1322.81 93.7267 1333.75 75.14C1344.93 56.3267 1359.86 41.48 1378.56 30.6C1397.49 19.4933 1418.13 13.94 1440.47 13.94V0C1415.62 0 1392.7 6.12 1371.72 18.36C1350.97 30.6 1334.44 47.1467 1322.12 68C1309.81 88.8533 1303.65 111.633 1303.65 136.34Z" fill="#F3F3F3"/>
<path d="M1665.52 0L1679.2 3.06L1614.56 272L1601.22 268.26L1665.52 0ZM1750.69 272L1764.37 268.26L1699.73 0L1686.39 3.06L1750.69 272ZM1834.83 0L1848.51 3.06L1784.21 272L1770.53 268.26L1834.83 0ZM1919.66 272L1933 268.26L1868.7 0L1855.01 3.06L1919.66 272Z" fill="#F3F3F3"/>
<rect x="1116" y="249" width="23" height="23" fill="#F3F3F3"/>
</svg>
